<?xml version="1.0" encoding="UTF-8"?>
<svg id="Camada_2" data-name="Camada 2" xmlns="http://www.w3.org/2000/svg" viewBox="0 0 2049.35 331.56">
  <defs>
    <style>
      .cls-1 {
        fill: #002c69;
      }

      .cls-2 {
        fill: #fff;
      }

      .cls-3 {
        stroke-width: 5.66px;
      }

      .cls-3, .cls-4, .cls-5, .cls-6 {
        fill: none;
        stroke: #fff;
        stroke-linecap: round;
        stroke-linejoin: round;
      }

      .cls-4 {
        stroke-width: 6.39px;
      }

      .cls-5 {
        stroke-width: 4.41px;
      }

      .cls-6 {
        stroke-width: 4.48px;
      }

      .cls-7 {
        fill: #fefefe;
      }

      .cls-8 {
        fill: #6b6b6b;
      }
    </style>
  </defs>
  <g id="Camada_1-2" data-name="Camada 1">
    <g>
      <path class="cls-2" d="M578.29,232.68l-24.11-49h-28.52v49h-54.25V48.93h85.28c24.52,0,43.55,5.77,57.12,17.04,13.3,11.27,20.08,27.52,20.08,48.23,0,13.37-2.61,25.16-7.82,34.86-5.48,9.96-13.04,17.82-22.95,23.59l37.03,60.03h-61.87s0,0,0,0ZM525.66,141.68h31.45c8.19,0,14.8-2.11,19.3-6.61s6.61-10.84,6.61-19.03-2.11-14.27-6.61-18.77c-4.49-4.23-11.1-6.34-19.3-6.34h-31.45v50.75Z"/>
      <path class="cls-2" d="M779.4,172.58c0,20.04-6.13,35.59-18.13,46.67-12.27,11.34-28.8,16.87-49.86,16.87-27.2,0-50.13-10.28-69.06-30.85l25.33-36.12c6.67,6.85,13.6,12.13,20.8,15.56,6.93,3.43,13.07,5.27,18.4,5.27s9.33-1.58,12.27-4.75c2.93-3.16,4.27-7.91,4.27-13.97v-78.59h-63v-43.75h119v123.65h0Z"/>
      <path class="cls-2" d="M937.11,234.42l-10.89-29.75h-75.17l-11.16,29.75h-56.45l79.12-185.5h56.63l76.47,185.5h-58.56ZM866.62,164.43h44.82l-22.15-60.38-22.67,60.38Z"/>
      <polygon class="cls-2" points="1064.65 48.93 1208.14 48.93 1208.14 90.93 1118.89 90.93 1118.89 127.68 1201.14 127.68 1201.14 169.68 1118.89 169.68 1118.89 234.42 1064.65 234.42 1064.65 48.93"/>
      <path class="cls-2" d="M1334.27,232.68l-24.11-49h-28.52v49h-54.25V48.93h85.28c24.52,0,43.55,5.77,57.12,17.04,13.3,11.27,20.08,27.52,20.08,48.23,0,13.37-2.61,25.16-7.82,34.86-5.48,9.96-13.04,17.82-22.95,23.59l37.03,60.03h-61.87s0,0,0,0ZM1281.64,141.68h31.45c8.19,0,14.8-2.11,19.3-6.61,4.49-4.49,6.61-10.84,6.61-19.03s-2.11-14.27-6.61-18.77c-4.49-4.23-11.1-6.34-19.3-6.34h-31.45v50.75Z"/>
      <polygon class="cls-2" points="1418.14 48.93 1570.38 48.93 1570.38 90.93 1474.14 90.93 1474.14 120.68 1561.63 120.68 1561.63 162.68 1474.14 162.68 1474.14 192.43 1572.13 192.43 1572.13 234.42 1418.14 234.42 1418.14 48.93"/>
      <polygon class="cls-2" points="1598.38 48.93 1652.63 48.93 1652.63 234.42 1598.38 234.42 1598.38 48.93"/>
      <path class="cls-2" d="M2029.05,108.63c-9.75-5.8-20.57-10.81-32.43-14.76-11.86-3.95-21.36-6.06-29-6.06-4.75,0-8.44.79-11.07,2.64-2.9,1.84-4.22,4.75-4.22,8.17,0,5.01,2.64,8.7,7.91,11.34,5.27,2.9,13.71,5.8,25.05,8.96,12.92,3.69,23.73,7.38,32.17,11.07,8.44,3.95,15.82,9.75,22.15,17.4,6.06,7.65,9.23,17.93,9.23,30.58s-3.43,23.73-10.02,32.43c-6.85,8.96-16.08,15.56-27.42,20.04-11.6,4.48-24.52,6.59-38.76,6.59-15.82,0-31.64-2.64-47.46-8.17-16.08-5.27-29.79-12.66-41.39-21.88l20.57-41.66c9.23,8.17,20.83,14.76,34.27,20.3,13.45,5.54,24.78,8.44,34.54,8.44,6.06,0,10.55-1.05,13.97-3.43,3.43-2.37,5.01-5.54,5.01-9.75,0-5.01-2.64-8.96-8.17-11.86-5.54-2.64-13.97-5.54-25.31-8.44-12.92-3.43-23.46-6.86-31.9-10.55-8.44-3.43-15.82-8.96-21.88-16.61-6.06-7.65-9.23-17.4-9.23-29.79s3.16-22.41,9.49-31.37c6.33-8.7,15.29-15.56,26.89-20.3,11.34-4.75,24.78-7.12,40.07-7.12,13.97,0,27.68,1.84,41.39,5.8s25.57,9.23,35.86,15.82l-20.3,42.18h0Z"/>
      <path class="cls-2" d="M1867.5,108.75c-1.84-8.34-4.52-16.36-7.95-23.92l4.46-14.71-16.86-25.19-12.17,4.87c-6.4-6.17-13.63-11.58-21.57-15.94l-6.52-20.45-32.99-10.22-5.97,19.03c-51.79.54-98.1,45.8-94.88,112.83.09,1.96.24,3.91.43,5.85-.34-70.39,56.42-113.45,112.05-101.18,43.62,9.62,73.8,51.97,75.93,96.46,2.13,44.49-23.84,89.74-66.33,103.8-5.28,1.75-10.62,2.94-16,3.64l7.12,17.07,31.92-12.11,4.55-20.77c7.5-4.81,14.19-10.63,19.98-17.15l12.6,4.15,14.4-26.1-5.86-14.41c2.7-7.73,4.6-15.89,5.63-24.31l10.31-6.54-1.38-28.79-10.91-5.92h0Z"/>
      <path class="cls-2" d="M1754.99,107.2c4.32-3.14,9.43-5.04,15-5.2,16.51-.48,30.62,14.29,31.52,32.99.77,16.17-8.59,29.95-21.82,33.71,8.49-6.16,13.86-17.13,13.27-29.52-.9-18.7-15.01-33.47-31.51-32.99-2.23.07-4.39.43-6.46,1.02h0ZM1809.36,134.9c-1.21-25.2-20.23-45.1-42.48-44.46-22.25.65-39.31,21.6-38.1,46.8,1.21,25.2,20.22,45.1,42.47,44.46,22.25-.65,39.31-21.6,38.1-46.8h0Z"/>
      <path class="cls-2" d="M1772.25,202.43c-32.36.94-60.01-28.01-61.77-64.65s23.05-67.12,55.41-68.06c32.36-.94,60.02,28.01,61.78,64.65,1.76,36.65-23.05,67.12-55.41,68.06ZM1765.04,52.18c-40.91,1.19-72.27,39.71-70.05,86.04,2.22,46.33,37.18,82.92,78.09,81.73,40.91-1.19,72.27-39.71,70.05-86.04-2.22-46.33-37.18-82.92-78.1-81.73h0Z"/>
      <path class="cls-2" d="M607.99,274.67h-27.2l-2.24,12.25h24.45l-1.88,10.5h-24.51l-2.11,10.5h27.71l-1.66,8.75h-39.44l10.15-50.75h38.47l-1.74,8.75ZM625.28,317.43c-3.54,0-7.02-.65-10.42-2.02-3.4-1.37-6.22-3.18-8.32-5.43l4.7-6.87c1.81,1.81,3.98,3.25,6.51,4.34,2.53,1.16,4.85,1.74,6.94,1.74,1.52,0,2.75-.29,3.69-.94.94-.65,1.37-1.45,1.37-2.53,0-.94-.51-1.74-1.52-2.39s-2.53-1.37-4.63-2.17c-2.24-.94-4.12-1.81-5.57-2.6-1.52-.8-2.75-1.88-3.83-3.33-1.09-1.37-1.59-3.18-1.59-5.28,0-2.39.65-4.56,1.88-6.44,1.23-1.88,3.04-3.33,5.28-4.41,2.24-1.01,4.85-1.52,7.81-1.52s6.08.51,9.19,1.59c3.11,1.09,5.71,2.6,7.96,4.48l-5.06,6.94c-2.02-1.52-4.12-2.68-6.22-3.55-2.17-.87-4.05-1.3-5.71-1.3-1.23,0-2.32.29-3.18.94-.87.65-1.3,1.37-1.3,2.32s.51,1.66,1.52,2.32c1.01.65,2.53,1.37,4.63,2.17,2.32.94,4.2,1.88,5.71,2.68,1.52.8,2.82,1.95,3.91,3.4,1.09,1.52,1.66,3.33,1.66,5.43,0,2.39-.65,4.56-1.95,6.44-1.3,1.88-3.11,3.33-5.43,4.41-2.39,1.09-5.06,1.59-8.03,1.59h0ZM676.7,277.74c3.01,0,5.67.72,8.03,2.15,2.3,1.43,4.09,3.44,5.38,6.02,1.29,2.58,1.94,5.52,1.94,8.89,0,4.16-.93,7.96-2.72,11.33-1.79,3.44-4.3,6.17-7.39,8.1-3.16,1.94-6.67,2.94-10.47,2.94-3.08,0-5.67-.65-7.75-1.94-2.15-1.22-3.73-3.08-4.8-5.45l-4.23,20.87h-10.97l10.47-52.5h10.97l-1,4.95c1.65-1.72,3.59-3.08,5.74-4.02,2.15-.93,4.45-1.36,6.81-1.36h0ZM672.58,286.39c-2.1,0-3.98.58-5.64,1.66-1.74,1.09-3.11,2.6-4.12,4.48s-1.52,3.98-1.52,6.22c0,2.75.8,4.92,2.32,6.58s3.62,2.53,6.15,2.53c2.02,0,3.91-.58,5.64-1.66,1.74-1.09,3.11-2.6,4.12-4.56,1.01-1.88,1.52-3.98,1.52-6.22,0-2.75-.8-4.92-2.32-6.58-1.52-1.66-3.62-2.46-6.15-2.46ZM718.45,277.7c3.69,0,6.94.72,9.69,2.1,2.68,1.45,4.77,3.47,6.29,6,1.45,2.6,2.17,5.64,2.17,9.04,0,1.95-.22,3.98-.72,6.08h-28.57c.22,2.53,1.16,4.41,2.82,5.79,1.66,1.37,3.83,2.1,6.66,2.1,1.66,0,3.4-.29,5.06-.87,1.66-.58,3.11-1.37,4.48-2.46l5.43,6.37c-4.12,3.69-9.26,5.57-15.34,5.57-4.05,0-7.6-.72-10.56-2.17-3.04-1.45-5.35-3.55-7.02-6.22-1.66-2.68-2.46-5.71-2.46-9.26,0-4.12.94-7.88,2.89-11.28,1.88-3.4,4.48-6,7.89-7.96,3.33-1.88,7.09-2.82,11.28-2.82h0ZM726.26,293.92c.22-2.53-.36-4.56-1.66-6.08s-3.18-2.24-5.71-2.24c-2.39,0-4.56.72-6.51,2.24-1.95,1.52-3.33,3.55-4.2,6.08h18.09ZM758.59,317.35c-3.62,0-6.8-.72-9.48-2.24-2.75-1.45-4.85-3.55-6.29-6.22-1.52-2.68-2.24-5.79-2.24-9.33,0-4.27.94-8.03,2.82-11.36,1.88-3.33,4.48-5.93,7.89-7.81,3.33-1.81,7.09-2.75,11.36-2.75,3.69,0,6.94.72,9.69,2.1,2.75,1.45,4.85,3.47,6.37,6.08l-8.03,5.43c-.94-1.37-2.1-2.39-3.54-3.11-1.45-.72-3.11-1.09-4.92-1.09-1.95,0-3.76.51-5.28,1.45-1.59,1.01-2.82,2.39-3.76,4.2-.94,1.81-1.37,3.83-1.37,6.08,0,2.82.72,5.06,2.24,6.73,1.52,1.74,3.47,2.6,6,2.6,4.05,0,7.23-1.52,9.48-4.56l7.16,5.21c-1.88,2.75-4.34,4.85-7.45,6.36-3.11,1.52-6.66,2.24-10.63,2.24h0ZM800.81,278.17l-7.66,38.5h-10.95l7.66-38.5h10.95ZM798.67,260.71c1.52,0,2.75.43,3.69,1.37.94.94,1.37,2.17,1.37,3.69,0,2.1-.72,3.83-2.17,5.21-1.45,1.45-3.18,2.17-5.21,2.17-1.52,0-2.68-.51-3.62-1.45-.94-.94-1.37-2.17-1.37-3.69,0-2.1.72-3.83,2.17-5.21,1.37-1.37,3.11-2.1,5.14-2.1h0ZM820.02,317.1c-3.01,0-5.65-.72-7.94-2.15-2.36-1.43-4.15-3.43-5.44-6.01-1.29-2.58-1.93-5.51-1.93-8.87,0-4.15.93-7.94,2.72-11.38,1.79-3.36,4.22-6.08,7.37-8.02,3.15-1.93,6.65-2.93,10.45-2.93,3.08,0,5.65.64,7.73,1.86,2.08,1.29,3.72,3.15,4.79,5.58l1.36-7.01h10.95l-7.66,38.5h-10.95l1.07-4.87c-3.51,3.51-7.73,5.3-12.52,5.3h0ZM824.13,308.6c2.02,0,3.91-.58,5.64-1.66,1.74-1.09,3.11-2.6,4.12-4.56,1.01-1.88,1.52-3.98,1.52-6.22,0-2.75-.8-4.92-2.32-6.58-1.52-1.66-3.62-2.46-6.15-2.46-2.02,0-3.91.58-5.64,1.66-1.74,1.09-3.11,2.6-4.12,4.48-1.01,1.95-1.52,3.98-1.52,6.22,0,2.82.8,4.99,2.32,6.66,1.52,1.66,3.62,2.46,6.15,2.46h0ZM875.75,262.42l-10.82,54.25h-11.26l10.82-54.25h11.26ZM894.78,278.17l-7.66,38.5h-10.95l7.66-38.5h10.95ZM892.64,260.71c1.52,0,2.75.43,3.69,1.37.94.94,1.37,2.17,1.37,3.69,0,2.1-.72,3.83-2.17,5.21-1.45,1.45-3.18,2.17-5.21,2.17-1.52,0-2.68-.51-3.62-1.45-.94-.94-1.37-2.17-1.37-3.69,0-2.1.72-3.83,2.17-5.21,1.37-1.37,3.11-2.1,5.14-2.1h0ZM936.9,278.17l-1.22,6.94-24.53,22.81h20.53l-1.72,8.75-34.4-.07,1.21-6.92,24.47-22.76h-19.06l1.59-10.5,33.28,1.75h-.15Z"/>
      <path class="cls-2" d="M953.41,317.1c-3.01,0-5.65-.72-7.94-2.15-2.36-1.43-4.15-3.43-5.44-6.01-1.29-2.58-1.93-5.51-1.93-8.87,0-4.15.93-7.94,2.72-11.38,1.79-3.36,4.22-6.08,7.37-8.02,3.15-1.93,6.65-2.93,10.45-2.93,3.08,0,5.65.64,7.73,1.86,2.08,1.29,3.72,3.15,4.79,5.58l1.36-7.01h10.95l-7.66,38.5h-10.95l1.07-4.87c-3.51,3.51-7.73,5.3-12.52,5.3h0ZM957.52,308.6c2.02,0,3.91-.58,5.64-1.66,1.74-1.09,3.11-2.6,4.12-4.56,1.01-1.88,1.52-3.98,1.52-6.22,0-2.75-.8-4.92-2.32-6.58-1.52-1.66-3.62-2.46-6.15-2.46-2.02,0-3.91.58-5.64,1.66-1.74,1.09-3.11,2.6-4.12,4.48-1.01,1.95-1.52,3.98-1.52,6.22,0,2.82.8,4.99,2.32,6.66,1.52,1.66,3.62,2.46,6.15,2.46h0ZM1002.71,317.11c-3.07,0-5.78-.73-8.12-2.19-2.41-1.46-4.24-3.51-5.56-6.14-1.32-2.63-1.97-5.63-1.97-9.07,0-4.24.95-8.12,2.78-11.62,1.83-3.44,4.31-6.21,7.53-8.19,3.22-1.97,6.8-3,10.67-3,3.14,0,5.78.66,7.9,1.9,2.12,1.32,3.8,3.22,4.9,5.7l4.39-22.08h11.19l-10.82,54.25h-11.19l1.1-4.97c-3.58,3.58-7.9,5.41-12.8,5.41h0ZM1007,308.6c2.02,0,3.91-.58,5.64-1.66,1.74-1.09,3.11-2.6,4.12-4.56,1.01-1.88,1.52-3.98,1.52-6.22,0-2.75-.8-4.92-2.32-6.58-1.52-1.66-3.62-2.46-6.15-2.46-2.02,0-3.91.58-5.64,1.66-1.74,1.09-3.11,2.6-4.12,4.48-1.01,1.95-1.52,3.98-1.52,6.22,0,2.82.8,4.99,2.32,6.66,1.52,1.66,3.62,2.46,6.15,2.46h0ZM1060.24,277.64c3.83,0,7.23.72,10.13,2.24,2.82,1.52,5.06,3.55,6.58,6.22,1.52,2.68,2.32,5.86,2.32,9.4,0,4.27-1.01,8.03-2.97,11.36-1.95,3.33-4.7,5.93-8.17,7.74-3.47,1.81-7.45,2.75-11.86,2.75-3.83,0-7.16-.72-10.05-2.24-2.89-1.52-5.14-3.62-6.66-6.29-1.52-2.68-2.32-5.86-2.32-9.4,0-4.27,1.01-8.03,2.97-11.36,1.95-3.25,4.7-5.86,8.17-7.67,3.47-1.81,7.45-2.75,11.86-2.75h0ZM1059.37,286.9c-2.1,0-3.91.51-5.57,1.52-1.66,1.01-2.89,2.39-3.83,4.2-.94,1.81-1.45,3.91-1.45,6.22,0,2.82.8,5.14,2.32,6.87,1.52,1.74,3.62,2.6,6.29,2.6,2.1,0,3.91-.51,5.57-1.52,1.66-1.01,2.97-2.46,3.91-4.27.94-1.81,1.37-3.83,1.37-6.15,0-2.82-.8-5.14-2.32-6.87-1.59-1.74-3.69-2.6-6.29-2.6h0ZM1122.45,277.7c3.69,0,6.94.72,9.69,2.1,2.68,1.45,4.77,3.47,6.29,6,1.45,2.6,2.17,5.64,2.17,9.04,0,1.95-.22,3.98-.72,6.08h-28.57c.22,2.53,1.16,4.41,2.82,5.79,1.66,1.37,3.83,2.1,6.66,2.1,1.66,0,3.4-.29,5.06-.87,1.66-.58,3.11-1.37,4.48-2.46l5.43,6.37c-4.12,3.69-9.26,5.57-15.34,5.57-4.05,0-7.6-.72-10.56-2.17-3.04-1.45-5.35-3.55-7.02-6.22-1.66-2.68-2.46-5.71-2.46-9.26,0-4.12.94-7.88,2.89-11.28,1.88-3.4,4.48-6,7.89-7.96,3.33-1.88,7.09-2.82,11.28-2.82h0ZM1130.27,293.92c.22-2.53-.36-4.56-1.66-6.08s-3.18-2.24-5.71-2.24c-2.39,0-4.56.72-6.51,2.24s-3.33,3.55-4.2,6.08h18.09ZM1201.71,277.67c4.22,0,7.51,1.14,9.95,3.36,2.43,2.29,3.65,5.29,3.65,9.09,0,1.22-.14,2.51-.43,3.86l-4.51,22.68h-11.02l4.22-21.11c.14-.72.22-1.43.22-2.08,0-1.93-.57-3.43-1.79-4.58-1.22-1.07-2.79-1.65-4.87-1.65-2.43,0-4.58.86-6.44,2.58-1.93,1.79-3.15,4.08-3.72,6.87l-4.08,19.96h-10.95l4.15-21.11c.14-.72.22-1.43.22-2.08,0-1.93-.57-3.43-1.72-4.58-1.22-1.07-2.86-1.65-4.94-1.65-2.43,0-4.58.86-6.44,2.58-1.93,1.79-3.15,4.08-3.72,6.87l-4.01,19.96h-11.02l7.58-38.5h11.09l-1.07,5.29c3.15-3.86,7.23-5.8,12.24-5.8,3.36,0,6.23.72,8.52,2.22,2.22,1.5,3.72,3.65,4.51,6.3,3.72-5.65,8.52-8.52,14.38-8.52h0ZM1263.97,272.86c-1.37,0-2.55.39-3.66,1.24-1.11.85-1.77,1.9-2.09,3.27l-.52,2.55h8.31l-1.31,7h-8.25l-5.99,29.75h-11.18l5.99-29.75h-3.59l1.31-7h4.78l.72-3.73c.72-3.79,2.49-6.67,5.23-8.7,2.68-1.96,5.82-2.94,9.42-2.94,2.62,0,5.04.52,7.2,1.57l-2.68,7.65c-.52-.26-1.11-.46-1.83-.65-.72-.2-1.37-.26-1.83-.26h0ZM1281.65,284.61c1.72-2.22,3.72-3.94,6.08-5.08,2.36-1.14,4.87-1.72,7.66-1.79l-1.29,10.3c-.36-.07-.79-.07-1.43-.07-3.36,0-6.37.93-8.87,2.86-2.51,1.93-4.15,4.44-4.87,7.37l-3.65,18.46h-11.02l7.66-38.5h11.02l-1.29,6.44h0ZM1317.19,277.7c3.69,0,6.94.72,9.69,2.1,2.68,1.45,4.77,3.47,6.29,6,1.45,2.6,2.17,5.64,2.17,9.04,0,1.95-.22,3.98-.72,6.08h-28.57c.22,2.53,1.16,4.41,2.82,5.79,1.66,1.37,3.83,2.1,6.66,2.1,1.66,0,3.4-.29,5.06-.87,1.66-.58,3.11-1.37,4.48-2.46l5.43,6.37c-4.12,3.69-9.26,5.57-15.34,5.57-4.05,0-7.6-.72-10.56-2.17-3.04-1.45-5.35-3.55-7.02-6.22-1.66-2.68-2.46-5.71-2.46-9.26,0-4.12.94-7.88,2.89-11.28,1.88-3.4,4.48-6,7.88-7.96,3.33-1.88,7.09-2.82,11.28-2.82h0ZM1325,293.92c.22-2.53-.36-4.56-1.66-6.08s-3.18-2.24-5.71-2.24c-2.39,0-4.56.72-6.51,2.24s-3.33,3.55-4.2,6.08h18.09ZM1357.45,278.17l-7.66,38.5h-10.95l7.66-38.5h10.95ZM1355.31,260.71c1.52,0,2.75.43,3.69,1.37.94.94,1.37,2.17,1.37,3.69,0,2.1-.72,3.83-2.17,5.21-1.45,1.45-3.18,2.17-5.21,2.17-1.52,0-2.68-.51-3.62-1.45-.94-.94-1.37-2.17-1.37-3.69,0-2.1.72-3.83,2.17-5.21,1.37-1.37,3.11-2.1,5.14-2.1h0ZM1384.17,277.64c3.83,0,7.23.72,10.13,2.24,2.82,1.52,5.06,3.55,6.58,6.22,1.52,2.68,2.32,5.86,2.32,9.4,0,4.27-1.01,8.03-2.97,11.36s-4.7,5.93-8.17,7.74c-3.47,1.81-7.45,2.75-11.86,2.75-3.83,0-7.16-.72-10.05-2.24-2.89-1.52-5.14-3.62-6.66-6.29-1.52-2.68-2.32-5.86-2.32-9.4,0-4.27,1.01-8.03,2.97-11.36,1.95-3.25,4.7-5.86,8.17-7.67,3.47-1.81,7.45-2.75,11.86-2.75h0ZM1383.3,286.9c-2.1,0-3.91.51-5.57,1.52-1.66,1.01-2.89,2.39-3.83,4.2-.94,1.81-1.45,3.91-1.45,6.22,0,2.82.8,5.14,2.32,6.87,1.52,1.74,3.62,2.6,6.29,2.6,2.1,0,3.91-.51,5.57-1.52,1.66-1.01,2.97-2.46,3.91-4.27.94-1.81,1.37-3.83,1.37-6.15,0-2.82-.8-5.14-2.32-6.87-1.59-1.74-3.69-2.6-6.29-2.6h0ZM1422.8,317.42c-3.55,0-7.02-.65-10.42-2.02-3.4-1.37-6.22-3.18-8.32-5.43l4.7-6.87c1.81,1.81,3.98,3.25,6.51,4.34,2.53,1.16,4.85,1.74,6.94,1.74,1.52,0,2.75-.29,3.69-.94.94-.65,1.37-1.45,1.37-2.53,0-.94-.51-1.74-1.52-2.39s-2.53-1.37-4.63-2.17c-2.24-.94-4.12-1.81-5.57-2.6-1.52-.8-2.75-1.88-3.83-3.33-1.09-1.37-1.59-3.18-1.59-5.28,0-2.39.65-4.56,1.88-6.44s3.04-3.33,5.28-4.41c2.24-1.01,4.85-1.52,7.81-1.52s6.08.51,9.19,1.59c3.11,1.09,5.71,2.6,7.96,4.48l-5.06,6.94c-2.02-1.52-4.12-2.68-6.22-3.55-2.17-.87-4.05-1.3-5.71-1.3-1.23,0-2.32.29-3.18.94-.87.65-1.3,1.37-1.3,2.32s.51,1.66,1.52,2.32c1.01.65,2.53,1.37,4.63,2.17,2.32.94,4.2,1.88,5.71,2.68,1.52.8,2.82,1.95,3.91,3.4,1.09,1.52,1.66,3.33,1.66,5.43,0,2.39-.65,4.56-1.95,6.44-1.3,1.88-3.11,3.33-5.43,4.41-2.39,1.09-5.06,1.59-8.03,1.59h0ZM1476.48,317.1c-3.01,0-5.65-.72-7.94-2.15-2.36-1.43-4.15-3.43-5.44-6.01-1.29-2.58-1.93-5.51-1.93-8.87,0-4.15.93-7.94,2.72-11.38,1.79-3.36,4.22-6.08,7.37-8.02,3.15-1.93,6.65-2.93,10.45-2.93,3.08,0,5.65.64,7.73,1.86,2.08,1.29,3.72,3.15,4.79,5.58l1.36-7.01h10.95l-7.66,38.5h-10.95l1.07-4.87c-3.51,3.51-7.73,5.3-12.52,5.3h0ZM1480.6,308.6c2.02,0,3.91-.58,5.64-1.66,1.74-1.09,3.11-2.6,4.12-4.56,1.01-1.88,1.52-3.98,1.52-6.22,0-2.75-.8-4.92-2.32-6.58-1.52-1.66-3.62-2.46-6.15-2.46-2.02,0-3.91.58-5.64,1.66-1.74,1.09-3.11,2.6-4.12,4.48-1.01,1.95-1.52,3.98-1.52,6.22,0,2.82.8,4.99,2.32,6.66,1.52,1.66,3.62,2.46,6.15,2.46h0ZM1565.35,316.67l-2.47-10.5h-25.01l-5.94,10.5h-10.8l30.45-50.75h11.74l13.34,50.75h-11.31ZM1543.82,297.42h16.06l-4.7-20.04-11.36,20.04ZM1599.28,284.61c1.72-2.22,3.72-3.94,6.08-5.08,2.36-1.14,4.87-1.72,7.66-1.79l-1.29,10.3c-.36-.07-.79-.07-1.43-.07-3.36,0-6.37.93-8.87,2.86-2.51,1.93-4.15,4.44-4.87,7.37l-3.65,18.46h-11.02l7.66-38.5h11.02l-1.29,6.44h0ZM1651.75,277.7c3.69,0,6.94.72,9.69,2.1,2.68,1.45,4.77,3.47,6.29,6,1.45,2.6,2.17,5.64,2.17,9.04,0,1.95-.22,3.98-.72,6.08h-28.57c.22,2.53,1.16,4.41,2.82,5.79,1.66,1.37,3.83,2.1,6.66,2.1,1.66,0,3.4-.29,5.06-.87,1.66-.58,3.11-1.37,4.48-2.46l5.43,6.37c-4.12,3.69-9.26,5.57-15.34,5.57-4.05,0-7.6-.72-10.56-2.17-3.04-1.45-5.35-3.55-7.02-6.22-1.66-2.68-2.46-5.71-2.46-9.26,0-4.12.94-7.88,2.89-11.28,1.88-3.4,4.48-6,7.88-7.96,3.33-1.88,7.09-2.82,11.28-2.82h0ZM1659.56,293.92c.22-2.53-.36-4.56-1.66-6.08-1.3-1.52-3.18-2.24-5.71-2.24-2.39,0-4.56.72-6.51,2.24-1.95,1.52-3.33,3.55-4.2,6.08h18.09ZM1731.01,277.67c4.22,0,7.51,1.14,9.95,3.36,2.43,2.29,3.65,5.29,3.65,9.09,0,1.22-.14,2.51-.43,3.86l-4.51,22.68h-11.02l4.22-21.11c.14-.72.22-1.43.22-2.08,0-1.93-.57-3.43-1.79-4.58-1.22-1.07-2.79-1.65-4.87-1.65-2.43,0-4.58.86-6.44,2.58-1.93,1.79-3.15,4.08-3.72,6.87l-4.08,19.96h-10.95l4.15-21.11c.14-.72.22-1.43.22-2.08,0-1.93-.57-3.43-1.72-4.58-1.22-1.07-2.86-1.65-4.94-1.65-2.43,0-4.58.86-6.44,2.58-1.93,1.79-3.15,4.08-3.72,6.87l-4.01,19.96h-11.02l7.58-38.5h11.09l-1.07,5.29c3.15-3.86,7.23-5.8,12.24-5.8,3.36,0,6.23.72,8.52,2.22,2.22,1.5,3.72,3.65,4.51,6.3,3.72-5.65,8.52-8.52,14.38-8.52h0ZM1780.8,331.56c-6.15,0-11.72-1.81-16.78-5.35l4.77-7.38c1.59,1.23,3.4,2.1,5.5,2.75,2.02.65,4.12.94,6.22.94,3.33,0,6-.72,8.1-2.1,2.1-1.37,3.4-3.4,4.05-6.08l.94-3.98c-3.4,3.11-7.31,4.7-11.72,4.7-2.82,0-5.35-.65-7.59-2.02s-3.91-3.25-5.14-5.64c-1.23-2.39-1.81-5.21-1.81-8.32,0-3.98.87-7.59,2.6-10.85,1.66-3.25,4.05-5.79,7.02-7.67,2.97-1.88,6.29-2.82,9.91-2.82,2.82,0,5.28.58,7.31,1.74,1.95,1.16,3.47,2.82,4.48,5.06l1.3-6.37h11.07l-7.52,37.18c-1.09,5.21-3.55,9.19-7.52,12.01s-9.04,4.2-15.19,4.2h0ZM1786.15,306.07c1.81,0,3.55-.51,5.14-1.45,1.52-.94,2.75-2.32,3.69-3.98.94-1.66,1.37-3.47,1.37-5.43,0-2.46-.72-4.41-2.1-5.93-1.37-1.45-3.25-2.17-5.57-2.17-1.81,0-3.55.51-5.06,1.45-1.52,1.01-2.75,2.39-3.69,4.05-.94,1.74-1.37,3.62-1.37,5.64,0,2.39.72,4.34,2.1,5.71,1.37,1.37,3.18,2.1,5.5,2.1h0ZM1836.21,277.7c3.69,0,6.94.72,9.69,2.1,2.68,1.45,4.77,3.47,6.29,6,1.45,2.6,2.17,5.64,2.17,9.04,0,1.95-.22,3.98-.72,6.08h-28.57c.22,2.53,1.16,4.41,2.82,5.79,1.66,1.37,3.83,2.1,6.66,2.1,1.66,0,3.4-.29,5.06-.87,1.66-.58,3.11-1.37,4.48-2.46l5.43,6.37c-4.12,3.69-9.26,5.57-15.34,5.57-4.05,0-7.6-.72-10.56-2.17-3.04-1.45-5.35-3.55-7.02-6.22-1.66-2.68-2.46-5.71-2.46-9.26,0-4.12.94-7.88,2.89-11.28,1.88-3.4,4.48-6,7.89-7.96,3.33-1.88,7.09-2.82,11.28-2.82h0ZM1844.02,293.92c.22-2.53-.36-4.56-1.66-6.08-1.3-1.52-3.18-2.24-5.71-2.24-2.39,0-4.56.72-6.51,2.24-1.95,1.52-3.33,3.55-4.2,6.08h18.09,0ZM1875.33,284.61c1.72-2.22,3.72-3.94,6.08-5.08,2.36-1.14,4.87-1.72,7.66-1.79l-1.29,10.3c-.36-.07-.79-.07-1.43-.07-3.36,0-6.37.93-8.87,2.86-2.51,1.93-4.15,4.44-4.87,7.37l-3.65,18.46h-11.02l7.66-38.5h11.02l-1.29,6.44h0ZM1904.29,317.1c-3.01,0-5.65-.72-7.94-2.15-2.36-1.43-4.15-3.43-5.44-6.01-1.29-2.58-1.93-5.51-1.93-8.87,0-4.15.93-7.94,2.72-11.38,1.79-3.36,4.22-6.08,7.37-8.02,3.15-1.93,6.65-2.93,10.45-2.93,3.08,0,5.65.64,7.73,1.86,2.08,1.29,3.72,3.15,4.79,5.58l1.36-7.01h10.95l-7.66,38.5h-10.95l1.07-4.87c-3.51,3.51-7.73,5.3-12.52,5.3h0ZM1908.41,308.6c2.02,0,3.91-.58,5.64-1.66,1.74-1.09,3.11-2.6,4.12-4.56,1.01-1.88,1.52-3.98,1.52-6.22,0-2.75-.8-4.92-2.32-6.58-1.52-1.66-3.62-2.46-6.15-2.46-2.02,0-3.91.58-5.64,1.66-1.74,1.09-3.11,2.6-4.12,4.48-1.01,1.95-1.52,3.98-1.52,6.22,0,2.82.8,4.99,2.32,6.66,1.52,1.66,3.62,2.46,6.15,2.46h0ZM1960.03,262.42l-10.82,54.25h-11.26l10.82-54.25h11.26Z"/>
    </g>
    <g>
      <g>
        <path class="cls-2" d="M323.97,106.41v28.78c0,2.63-2.13,4.76-4.76,4.76h-12.21v5.24h88.3l13.85-38.78h-85.17Z"/>
        <path class="cls-2" d="M314.43,152.25v38.45h59.9l13.85-38.78h-73.78c0,.11.03.22.03.33Z"/>
        <path class="cls-2" d="M314.43,200.87l5.57.04c1.33,0,2.6.58,3.5,1.57.9.99,1.34,2.31,1.21,3.63l-2.97,32.07h30.03l13.85-38.78h-51.19v1.47Z"/>
        <path class="cls-2" d="M89.59,135.19v-28.78H0l13.85,38.78h91.62v-5.24h-11.11c-2.63,0-4.76-2.13-4.76-4.76Z"/>
        <path class="cls-2" d="M34.82,190.69h63.21v-38.45c0-.11.03-.22.03-.33H20.97l13.85,38.78Z"/>
        <path class="cls-2" d="M57.38,238.18h34.01l-2.97-32.07c-.12-1.33.32-2.65,1.21-3.63.9-.99,2.17-1.56,3.5-1.57l4.91-.03v-1.47h-54.51l13.85,38.78Z"/>
      </g>
      <path class="cls-7" d="M304.65,137.57c-1.32,0-2.38-1.06-2.38-2.38v-31.28c0-1.31,1.06-2.38,2.38-2.38h14.56c1.32,0,2.38,1.07,2.38,2.38v31.28c0,1.32-1.06,2.38-2.38,2.38h-14.56Z"/>
      <polygon class="cls-1" points="110.22 172.67 136.21 172.67 136.21 3.2 110.22 3.2 110.22 172.67"/>
      <polygon class="cls-4" points="110.22 172.67 136.21 172.67 136.21 3.2 110.22 3.2 110.22 172.67"/>
      <polygon class="cls-2" points="131.7 6.38 113.4 6.38 113.4 184.6 124.54 184.6 125.07 14.07 131.7 6.38"/>
      <polygon class="cls-1" points="102.79 213.78 124.81 213.78 124.81 152.25 102.79 152.25 102.79 213.78"/>
      <polygon class="cls-6" points="102.79 213.78 124.81 213.78 124.81 152.25 102.79 152.25 102.79 213.78"/>
      <polygon class="cls-2" points="122.73 213.68 122.73 155.6 106.22 155.6 105.89 213.35 122.73 213.68"/>
      <polygon class="cls-1" points="276.24 172.67 302.23 172.67 302.23 3.2 276.24 3.2 276.24 172.67"/>
      <polygon class="cls-4" points="276.24 172.67 302.23 172.67 302.23 3.2 276.24 3.2 276.24 172.67"/>
      <polygon class="cls-2" points="280.75 6.38 299.05 6.38 299.05 184.6 287.91 184.6 287.38 14.07 280.75 6.38"/>
      <polygon class="cls-1" points="287.65 213.78 309.66 213.78 309.66 152.25 287.65 152.25 287.65 213.78"/>
      <polygon class="cls-6" points="287.65 213.78 309.66 213.78 309.66 152.25 287.65 152.25 287.65 213.78"/>
      <polygon class="cls-2" points="289.73 213.68 289.73 155.6 306.24 155.6 306.57 213.35 289.73 213.68"/>
      <polygon class="cls-7" points="241.76 56.34 257.27 56.34 257.27 41.7 241.76 41.7 241.76 56.34"/>
      <polygon class="cls-6" points="241.76 56.34 257.27 56.34 257.27 41.7 241.76 41.7 241.76 56.34"/>
      <polygon class="cls-4" points="245.42 44.44 254.41 44.44 254.41 53.69 248.03 53.69 245.42 44.44"/>
      <polygon class="cls-8" points="154.24 56.34 169.75 56.34 169.75 41.7 154.24 41.7 154.24 56.34"/>
      <polygon class="cls-6" points="154.24 56.34 169.75 56.34 169.75 41.7 154.24 41.7 154.24 56.34"/>
      <polygon class="cls-2" points="169.75 42.74 155.41 42.74 155.41 53.69 165.59 53.69 169.75 42.74"/>
      <path class="cls-1" d="M267.21,51.33l-60.85-1.36v-.03h-.61s-.61,0-.61,0v.03l-60.85,1.36s-12.93,34.21-12.33,34.01c.56-.19,66.78.69,73.79.29,7,.4,73.22-.47,73.79-.29.6.2-12.33-34.01-12.33-34.01Z"/>
      <path class="cls-4" d="M267.21,51.33l-60.85-1.36v-.03h-.61s-.61,0-.61,0v.03l-60.85,1.36s-12.93,34.21-12.33,34.01c.56-.19,66.78.69,73.79.29,7,.4,73.22-.47,73.79-.29.6.2-12.33-34.01-12.33-34.01h0Z"/>
      <path class="cls-2" d="M140.32,78.18v-5.97l7.76-17.1s27.85-3.58,56.09,22.68c0,0-64.15.1-63.85.4h0Z"/>
      <path class="cls-2" d="M270.71,78.18v-5.97l-7.76-17.1s-27.85-3.58-56.09,22.68c0,0,64.15.1,63.85.4h0Z"/>
      <path class="cls-1" d="M186.45,60.88c0,2.07-5.58,3.74-12.47,3.74s-12.47-1.68-12.47-3.74,5.58-3.74,12.47-3.74,12.47,1.67,12.47,3.74Z"/>
      <path class="cls-2" d="M127.58,328.68h-27.04c-4.25,0-7.69-3.44-7.69-7.69v-28.35h42.42v28.35c0,4.25-3.44,7.69-7.69,7.69Z"/>
      <path class="cls-8" d="M96.87,293.6v25.56s-.1,7.36,6.07,7.36h21.38l-21.29-1.19s-5.07-1.69-5.17-6.46l-1-25.26h0Z"/>
      <path class="cls-2" d="M308.59,328.68h-27.03c-4.25,0-7.69-3.44-7.69-7.69v-28.35h42.42v28.35c0,4.25-3.44,7.69-7.7,7.69h0Z"/>
      <path class="cls-1" d="M277.89,293.6v25.56s-.1,7.36,6.07,7.36h21.38l-21.28-1.19s-5.07-1.69-5.17-6.46l-.99-25.26h0Z"/>
      <polygon class="cls-1" points="121.62 219.87 291.36 219.87 291.36 81.7 121.62 81.7 121.62 219.87"/>
      <polygon class="cls-3" points="121.62 219.88 291.36 219.88 291.36 81.7 121.62 81.7 121.62 219.88"/>
      <path class="cls-1" d="M132.5,209.27v-74.66h148.12v74.13l-148.12.53Z"/>
      <path class="cls-5" d="M132.5,209.27v-74.66h148.12v74.13l-148.12.53Z"/>
      <polygon class="cls-1" points="146.51 254.88 97.71 254.88 93.16 205.67 146.51 205.29 146.51 254.88"/>
      <polygon class="cls-3" points="146.51 254.88 97.71 254.88 93.16 205.67 146.51 205.29 146.51 254.88"/>
      <polygon class="cls-2" points="142 250.66 141.74 223.72 96.88 208.6 146.77 208.6 142 250.66"/>
      <polygon class="cls-6" points="102.55 249.45 141.67 249.45 141.67 224.65 102.55 224.65 102.55 249.45"/>
      <polygon class="cls-2" points="126.09 227.17 125.82 227.17 136.36 229.49 138.75 246.2 138.75 227.17 126.09 227.17"/>
      <polygon class="cls-2" points="106.26 227.17 106 227.17 116.54 229.49 118.93 246.2 118.93 227.17 106.26 227.17"/>
      <polygon class="cls-2" points="102.55 224.65 107.92 245.47 121.05 249.58 102.55 249.58 102.55 224.65"/>
      <polygon class="cls-2" points="122.54 224.65 127.91 245.47 141.04 249.58 122.54 249.58 122.54 224.65"/>
      <polygon class="cls-1" points="266.61 254.88 315.41 254.88 319.96 205.67 266.61 205.29 266.61 254.88"/>
      <polygon class="cls-3" points="266.61 254.88 315.41 254.88 319.96 205.67 266.61 205.29 266.61 254.88"/>
      <polygon class="cls-2" points="271.11 250.66 271.38 223.72 316.24 208.6 266.34 208.6 271.11 250.66"/>
      <polygon class="cls-6" points="271.45 249.45 310.57 249.45 310.57 224.65 271.45 224.65 271.45 249.45"/>
      <polygon class="cls-2" points="287.03 227.17 287.3 227.17 276.75 229.49 274.36 246.2 274.36 227.17 287.03 227.17"/>
      <polygon class="cls-2" points="306.86 227.17 307.12 227.17 296.58 229.49 294.19 246.2 294.19 227.17 306.86 227.17"/>
      <polygon class="cls-2" points="310.57 224.65 305.2 245.47 292.07 249.58 310.57 249.58 310.57 224.65"/>
      <polygon class="cls-2" points="290.58 224.65 285.21 245.47 272.08 249.58 290.58 249.58 290.58 224.65"/>
      <polygon class="cls-2" points="203.77 126.72 126.6 126.72 126.6 94.16 203.77 89.39 203.77 126.72"/>
      <polygon class="cls-1" points="179.97 92.51 189.65 91.98 170.03 124.86 156.9 124.86 179.97 92.51"/>
      <polygon class="cls-1" points="162.47 93.34 172.15 92.8 149.94 124.86 136.81 124.86 162.47 93.34"/>
      <polygon class="cls-1" points="129.38 115.12 129.38 96.95 154.31 94.29 132.83 99.93 129.38 115.12"/>
      <polygon class="cls-2" points="209.34 126.72 286.52 126.72 286.52 94.16 209.34 89.39 209.34 126.72"/>
      <polygon class="cls-1" points="265.57 94.36 274.45 94.83 256.88 124.86 243.76 124.86 265.57 94.36"/>
      <polygon class="cls-1" points="249.19 93.57 258.08 93.96 236.79 124.86 223.67 124.86 249.19 93.57"/>
      <polygon class="cls-1" points="212.82 110.54 212.82 92.37 237.99 94.4 216.27 95.36 212.82 110.54"/>
      <polygon class="cls-2" points="126.6 126.72 286.52 126.72 278.76 134.28 134.36 134.28 126.6 126.72"/>
      <polygon class="cls-1" points="79.45 302.36 329.69 302.36 329.69 250.64 79.45 250.64 79.45 302.36"/>
      <polygon class="cls-4" points="79.45 302.36 329.69 302.36 329.69 250.64 79.45 250.64 79.45 302.36"/>
      <polygon class="cls-2" points="84.04 256.27 84.04 297.06 176.97 297.06 92.88 280.44 84.04 256.27"/>
      <polygon class="cls-2" points="324.56 256.27 324.56 297.06 231.64 297.06 315.73 280.44 324.56 256.27"/>
      <polygon class="cls-2" points="84.04 253.95 321.2 253.95 204.93 271.82 84.04 253.95"/>
      <polygon class="cls-2" points="105.51 270.93 132.77 270.93 132.77 256.81 105.51 256.81 105.51 270.93"/>
      <polygon class="cls-2" points="273.59 270.93 300.84 270.93 300.84 256.81 273.59 256.81 273.59 270.93"/>
      <polygon class="cls-2" points="173.74 280.81 235.4 280.81 235.4 265.03 173.74 265.03 173.74 280.81"/>
      <polygon class="cls-1" points="178.18 267.99 232.11 267.99 232.11 278.18 227.84 270.12 178.18 267.99"/>
      <polygon class="cls-1" points="102.55 299.15 93.55 299.15 106.55 274.77 115.56 274.77 102.55 299.15"/>
      <polygon class="cls-1" points="114.56 299.15 105.55 299.15 118.56 274.77 127.56 274.77 114.56 299.15"/>
      <path class="cls-1" d="M276.08,269.23h22.99v-11.83l-5.2,9.56-17.79,2.27Z"/>
      <path class="cls-1" d="M131.19,269.23h-22.99v-11.83l5.2,9.56,17.79,2.27Z"/>
      <polygon class="cls-2" points="126.13 84.66 287.78 84.66 287.74 90.5 205.65 86.57 126.2 89.44 126.13 84.66"/>
      <polygon class="cls-2" points="136.04 145.02 147.38 162.82 143.2 202.4 136.44 202.4 136.04 145.02"/>
      <polygon class="cls-2" points="276.87 145.02 265.54 162.82 269.71 202.4 276.48 202.4 276.87 145.02"/>
      <path class="cls-1" d="M143.44,252.5l9.63-89.96,4.24-1.34,4-1.23c1.58-.48,3.16-.96,4.75-1.44,1.77-.53,3.55-1.06,5.33-1.58,1.91-.55,3.82-1.11,5.74-1.65,1.98-.56,3.97-1.11,5.97-1.66,2.01-.54,4.02-1.08,6.03-1.6,1.97-.51,3.94-1,5.91-1.47,1.87-.45,3.74-.88,5.62-1.28,1.71-.37,3.42-.72,5.14-1.03.28-.05.57-.09.86-.09,0,0,.24.02.24.02l1.21.22c.86.16,1.71.33,2.55.5,1.83.37,3.65.78,5.47,1.2,1.95.45,3.89.93,5.83,1.42,2,.5,4.01,1.03,6,1.56,2,.54,4.01,1.09,6,1.65,1.95.54,3.89,1.1,5.84,1.66,1.83.53,3.66,1.06,5.49,1.61,1.66.49,3.31.99,4.96,1.49l4.27,1.31,5.54,1.74,9.63,89.96h-126.24,0Z"/>
      <path class="cls-2" d="M206.65,145.78c-.43,0-.87.06-1.28.13-1.75.31-3.49.67-5.22,1.04-1.9.41-3.79.84-5.67,1.29-1.99.48-3.97.97-5.95,1.48-2.02.52-4.05,1.06-6.06,1.61-2,.55-4,1.1-6,1.66-1.92.54-3.84,1.1-5.76,1.65-1.78.52-3.56,1.05-5.34,1.58-1.59.48-3.18.96-4.76,1.44-1.34.41-2.67.82-4.01,1.24-1.02.32-2.05.64-3.07.96-.66.21-1.31.42-1.97.63-.23.07-.46.15-.69.22l-10.08,94.15h131.55l-10.08-94.15s-.06-.02-.09-.03c-.39-.13-.77-.25-1.16-.37-.79-.25-1.58-.5-2.37-.75-1.14-.36-2.27-.71-3.41-1.06-1.43-.44-2.86-.88-4.28-1.31-1.66-.5-3.32-1-4.98-1.5-1.83-.55-3.66-1.08-5.5-1.61-1.95-.56-3.9-1.12-5.85-1.66-2.01-.56-4.02-1.11-6.03-1.65-2.01-.54-4.02-1.06-6.04-1.57-1.95-.49-3.91-.97-5.87-1.42-1.84-.43-3.68-.84-5.53-1.21-.86-.18-1.72-.35-2.59-.51-.41-.08-.82-.15-1.24-.23-.21-.04-.43-.05-.65-.05h0ZM206.59,150.56l1.07.2c.84.16,1.67.32,2.5.49,1.81.37,3.61.77,5.41,1.19,1.93.45,3.86.92,5.79,1.4,1.99.5,3.98,1.02,5.97,1.55,2,.53,3.99,1.08,5.98,1.64,1.94.54,3.88,1.09,5.81,1.65,1.83.53,3.65,1.06,5.47,1.6,1.65.49,3.3.99,4.95,1.49,1.42.43,2.84.87,4.26,1.31,1.13.35,2.26.7,3.39,1.06l.64.2,9.18,85.77h-120.92l9.18-85.77c.91-.29,1.83-.57,2.74-.86,1.33-.41,2.65-.82,3.98-1.23,1.58-.48,3.15-.96,4.74-1.43,1.77-.53,3.54-1.05,5.31-1.57,1.9-.56,3.81-1.1,5.72-1.65,1.98-.56,3.96-1.11,5.95-1.65,1.99-.54,4-1.07,6-1.59,1.95-.5,3.91-.99,5.87-1.46,1.85-.44,3.7-.87,5.56-1.27,1.85-.4,3.5-.73,5.06-1.01.2-.04.32-.05.38-.06h0Z"/>
      <path class="cls-2" d="M206.49,165.91l7.85-2.69s4.83-9.2,6.8-14.26c-1.6-.4-3.21-.8-4.83-1.17-1.84-.43-3.68-.84-5.53-1.21-.86-.18-1.72-.35-2.59-.51-.41-.08-.82-.15-1.24-.23-.63-.11-1.31-.03-1.94.08-1.75.31-3.49.67-5.22,1.04-1.9.41-3.79.84-5.67,1.29-.42.1-.84.21-1.26.31l5.05,14.36,8.55,2.99h0Z"/>
      <polygon class="cls-6" points="158.55 174.66 206.59 169.97 256.62 174.66 260.4 246.07 153.58 246.07 158.55 174.66"/>
      <polygon class="cls-1" points="207.09 163.12 212.66 161.13 217.43 153.31 206.96 151.19 207.09 163.12"/>
      <polygon class="cls-2" points="153.58 246.07 207.75 238.81 259.78 246.04 153.58 246.07"/>
      <polygon class="cls-2" points="159.75 184.73 207.09 174.26 254.56 184.47 207.62 181.02 159.75 184.73"/>
      <polygon class="cls-2" points="159.75 194.68 207.09 184.2 254.56 194.41 207.62 190.97 159.75 194.68"/>
      <polygon class="cls-2" points="159.75 204.62 207.09 194.15 254.56 204.36 207.62 200.91 159.75 204.62"/>
      <polygon class="cls-2" points="159.75 214.57 207.09 204.1 254.56 214.31 207.62 210.86 159.75 214.57"/>
      <polygon class="cls-2" points="159.75 224.52 207.09 214.04 254.56 224.25 207.62 220.8 159.75 224.52"/>
      <polygon class="cls-2" points="159.75 234.46 207.09 223.99 254.56 234.2 207.62 230.75 159.75 234.46"/>
      <polygon class="cls-2" points="254.83 165.52 218.67 153.46 213.2 162.95 206.49 165.91 254.83 165.52"/>
      <polygon class="cls-2" points="158.61 165.52 194.78 153.46 200.24 162.95 206.96 165.91 158.61 165.52"/>
      <polygon class="cls-2" points="271.57 137.52 141.19 137.52 151.79 154.8 204.64 142.14 257.02 155.15 271.57 137.52"/>
      <path class="cls-1" d="M206.66,138.21c0,1.07-11.16,1.93-24.93,1.93s-24.93-.86-24.93-1.93,11.16-1.93,24.93-1.93,24.93.86,24.93,1.93Z"/>
      <polygon class="cls-1" points="94.35 135.19 108.9 135.19 108.9 103.91 94.35 103.91 94.35 135.19"/>
      <polygon class="cls-6" points="94.35 135.19 108.9 135.19 108.9 103.91 94.35 103.91 94.35 135.19"/>
      <polygon class="cls-2" points="98.02 106.76 105.71 106.76 105.71 131.16 98.02 106.76"/>
      <polyline class="cls-6" points="291.27 100.8 311.29 105.31 312.48 134.21 292.73 145.75 280.62 134.61 259.87 162.72 291.01 224.55 291.01 249.55 122.11 249.55 122.11 224.55 154.73 234.86 207.62 230.75 259.07 234.59 258.54 224.65 206.86 220.96 155.8 224.8 156.25 215.11 207.62 210.86 258.01 214.7 258.01 204.76 207.62 200.91 157.1 204.76 157.56 194.81 207.62 190.97 257.55 194.81 256.55 184.87 207.62 181.02 158.55 184.87 152.45 162.13 132.5 134.61 120.83 145.75 101.07 134.21 102.26 105.31 122.28 100.8"/>
      <polygon class="cls-1" points="304.65 135.19 319.21 135.19 319.21 103.91 304.65 103.91 304.65 135.19"/>
      <polygon class="cls-6" points="304.65 135.19 319.21 135.19 319.21 103.91 304.65 103.91 304.65 135.19"/>
      <polygon class="cls-2" points="315.53 106.76 307.84 106.76 307.84 131.16 315.53 106.76"/>
      <path class="cls-2" d="M384.33,328.36c0,1.77-80.48,3.2-179.76,3.2s-179.76-1.43-179.76-3.2,80.48-4.24,179.76-4.24,179.76,2.47,179.76,4.24Z"/>
    </g>
  </g>
</svg>