<?xml version="1.0" encoding="UTF-8"?>
<svg id="Camada_1" xmlns="http://www.w3.org/2000/svg" xmlns:xodm="http://www.corel.com/coreldraw/odm/2003" version="1.1" viewBox="0 0 1080 1080">
  <!-- Generator: Adobe Illustrator 29.0.1, SVG Export Plug-In . SVG Version: 2.1.0 Build 192)  -->
  <defs>
    <style>
      .st0 {
        fill: #002c69;
      }

      .st1 {
        fill: #fff;
      }

      .st2 {
        stroke-width: 5.7px;
      }

      .st2, .st3, .st4, .st5 {
        fill: none;
        stroke: #fff;
        stroke-linecap: round;
        stroke-linejoin: round;
      }

      .st3 {
        stroke-width: 6.4px;
      }

      .st4 {
        stroke-width: 4.4px;
      }

      .st5 {
        stroke-width: 4.5px;
      }

      .st6 {
        fill: #fefefe;
      }

      .st7 {
        fill: #6b6b6b;
      }
    </style>
  </defs>
  <g>
    <path class="st1" d="M-1515.5,468.4l-24.1-49h-28.5v49h-54.2v-183.7h85.3c24.5,0,43.6,5.8,57.1,17,13.3,11.3,20.1,27.5,20.1,48.2s-2.6,25.2-7.8,34.9c-5.5,10-13,17.8-23,23.6l37,60h-61.9s0,0,0,0ZM-1568.1,377.4h31.5c8.2,0,14.8-2.1,19.3-6.6s6.6-10.8,6.6-19-2.1-14.3-6.6-18.8c-4.5-4.2-11.1-6.3-19.3-6.3h-31.5v50.7Z"/>
    <path class="st1" d="M-1314.4,408.3c0,20-6.1,35.6-18.1,46.7-12.3,11.3-28.8,16.9-49.9,16.9s-50.1-10.3-69.1-30.8l25.3-36.1c6.7,6.9,13.6,12.1,20.8,15.6,6.9,3.4,13.1,5.3,18.4,5.3s9.3-1.6,12.3-4.7c2.9-3.2,4.3-7.9,4.3-14v-78.6h-63v-43.7h119v123.7h0Z"/>
    <path class="st1" d="M-1156.7,470.2l-10.9-29.7h-75.2l-11.2,29.7h-56.4l79.1-185.5h56.6l76.5,185.5h-58.6ZM-1227.2,400.2h44.8l-22.1-60.4-22.7,60.4Z"/>
    <polygon class="st1" points="-1029.2 284.7 -885.7 284.7 -885.7 326.7 -974.9 326.7 -974.9 363.4 -892.7 363.4 -892.7 405.4 -974.9 405.4 -974.9 470.2 -1029.2 470.2 -1029.2 284.7"/>
    <path class="st1" d="M-759.5,468.4l-24.1-49h-28.5v49h-54.2v-183.7h85.3c24.5,0,43.6,5.8,57.1,17,13.3,11.3,20.1,27.5,20.1,48.2s-2.6,25.2-7.8,34.9c-5.5,10-13,17.8-23,23.6l37,60h-61.9s0,0,0,0ZM-812.2,377.4h31.5c8.2,0,14.8-2.1,19.3-6.6,4.5-4.5,6.6-10.8,6.6-19s-2.1-14.3-6.6-18.8c-4.5-4.2-11.1-6.3-19.3-6.3h-31.5v50.7Z"/>
    <polygon class="st1" points="-675.7 284.7 -523.4 284.7 -523.4 326.7 -619.7 326.7 -619.7 356.4 -532.2 356.4 -532.2 398.4 -619.7 398.4 -619.7 428.2 -521.7 428.2 -521.7 470.2 -675.7 470.2 -675.7 284.7"/>
    <polygon class="st1" points="-495.4 284.7 -441.2 284.7 -441.2 470.2 -495.4 470.2 -495.4 284.7"/>
    <path class="st1" d="M-64.8,344.4c-9.8-5.8-20.6-10.8-32.4-14.8-11.9-4-21.4-6.1-29-6.1s-8.4.8-11.1,2.6c-2.9,1.8-4.2,4.7-4.2,8.2,0,5,2.6,8.7,7.9,11.3,5.3,2.9,13.7,5.8,25,9,12.9,3.7,23.7,7.4,32.2,11.1,8.4,4,15.8,9.8,22.1,17.4,6.1,7.6,9.2,17.9,9.2,30.6s-3.4,23.7-10,32.4c-6.9,9-16.1,15.6-27.4,20-11.6,4.5-24.5,6.6-38.8,6.6s-31.6-2.6-47.5-8.2c-16.1-5.3-29.8-12.7-41.4-21.9l20.6-41.7c9.2,8.2,20.8,14.8,34.3,20.3,13.4,5.5,24.8,8.4,34.5,8.4s10.5-1.1,14-3.4c3.4-2.4,5-5.5,5-9.8s-2.6-9-8.2-11.9c-5.5-2.6-14-5.5-25.3-8.4-12.9-3.4-23.5-6.9-31.9-10.5-8.4-3.4-15.8-9-21.9-16.6-6.1-7.6-9.2-17.4-9.2-29.8s3.2-22.4,9.5-31.4c6.3-8.7,15.3-15.6,26.9-20.3,11.3-4.7,24.8-7.1,40.1-7.1s27.7,1.8,41.4,5.8,25.6,9.2,35.9,15.8l-20.3,42.2h0Z"/>
    <path class="st1" d="M-226.3,344.5c-1.8-8.3-4.5-16.4-7.9-23.9l4.5-14.7-16.9-25.2-12.2,4.9c-6.4-6.2-13.6-11.6-21.6-15.9l-6.5-20.4-33-10.2-6,19c-51.8.5-98.1,45.8-94.9,112.8,0,2,.2,3.9.4,5.9-.3-70.4,56.4-113.4,112-101.2,43.6,9.6,73.8,52,75.9,96.5,2.1,44.5-23.8,89.7-66.3,103.8-5.3,1.7-10.6,2.9-16,3.6l7.1,17.1,31.9-12.1,4.5-20.8c7.5-4.8,14.2-10.6,20-17.2l12.6,4.1,14.4-26.1-5.9-14.4c2.7-7.7,4.6-15.9,5.6-24.3l10.3-6.5-1.4-28.8-10.9-5.9h0Z"/>
    <path class="st1" d="M-338.8,343c4.3-3.1,9.4-5,15-5.2,16.5-.5,30.6,14.3,31.5,33,.8,16.2-8.6,30-21.8,33.7,8.5-6.2,13.9-17.1,13.3-29.5-.9-18.7-15-33.5-31.5-33-2.2,0-4.4.4-6.5,1h0ZM-284.4,370.6c-1.2-25.2-20.2-45.1-42.5-44.5-22.3.6-39.3,21.6-38.1,46.8,1.2,25.2,20.2,45.1,42.5,44.5,22.3-.6,39.3-21.6,38.1-46.8h0Z"/>
    <path class="st1" d="M-321.6,438.2c-32.4.9-60-28-61.8-64.7s23.1-67.1,55.4-68.1c32.4-.9,60,28,61.8,64.7,1.8,36.6-23.1,67.1-55.4,68.1ZM-328.8,287.9c-40.9,1.2-72.3,39.7-70,86,2.2,46.3,37.2,82.9,78.1,81.7,40.9-1.2,72.3-39.7,70.1-86-2.2-46.3-37.2-82.9-78.1-81.7h0Z"/>
    <path class="st1" d="M-1485.8,510.4h-27.2l-2.2,12.2h24.5l-1.9,10.5h-24.5l-2.1,10.5h27.7l-1.7,8.7h-39.4l10.1-50.7h38.5l-1.7,8.7ZM-1468.5,553.2c-3.5,0-7-.7-10.4-2-3.4-1.4-6.2-3.2-8.3-5.4l4.7-6.9c1.8,1.8,4,3.3,6.5,4.3,2.5,1.2,4.8,1.7,6.9,1.7s2.7-.3,3.7-.9c.9-.7,1.4-1.4,1.4-2.5s-.5-1.7-1.5-2.4-2.5-1.4-4.6-2.2c-2.2-.9-4.1-1.8-5.6-2.6-1.5-.8-2.7-1.9-3.8-3.3-1.1-1.4-1.6-3.2-1.6-5.3s.7-4.6,1.9-6.4c1.2-1.9,3-3.3,5.3-4.4,2.2-1,4.8-1.5,7.8-1.5s6.1.5,9.2,1.6c3.1,1.1,5.7,2.6,8,4.5l-5.1,6.9c-2-1.5-4.1-2.7-6.2-3.5-2.2-.9-4.1-1.3-5.7-1.3s-2.3.3-3.2.9c-.9.7-1.3,1.4-1.3,2.3s.5,1.7,1.5,2.3c1,.7,2.5,1.4,4.6,2.2,2.3.9,4.2,1.9,5.7,2.7,1.5.8,2.8,2,3.9,3.4,1.1,1.5,1.7,3.3,1.7,5.4s-.7,4.6-2,6.4c-1.3,1.9-3.1,3.3-5.4,4.4-2.4,1.1-5.1,1.6-8,1.6h0ZM-1417.1,513.5c3,0,5.7.7,8,2.2,2.3,1.4,4.1,3.4,5.4,6,1.3,2.6,1.9,5.5,1.9,8.9s-.9,8-2.7,11.3c-1.8,3.4-4.3,6.2-7.4,8.1-3.2,1.9-6.7,2.9-10.5,2.9s-5.7-.6-7.7-1.9c-2.2-1.2-3.7-3.1-4.8-5.4l-4.2,20.9h-11l10.5-52.5h11l-1,4.9c1.7-1.7,3.6-3.1,5.7-4,2.2-.9,4.4-1.4,6.8-1.4h0ZM-1421.2,522.1c-2.1,0-4,.6-5.6,1.7-1.7,1.1-3.1,2.6-4.1,4.5s-1.5,4-1.5,6.2.8,4.9,2.3,6.6,3.6,2.5,6.1,2.5,3.9-.6,5.6-1.7c1.7-1.1,3.1-2.6,4.1-4.6,1-1.9,1.5-4,1.5-6.2s-.8-4.9-2.3-6.6c-1.5-1.7-3.6-2.5-6.1-2.5ZM-1375.4,513.5c3.7,0,6.9.7,9.7,2.1,2.7,1.4,4.8,3.5,6.3,6,1.4,2.6,2.2,5.6,2.2,9s-.2,4-.7,6.1h-28.6c.2,2.5,1.2,4.4,2.8,5.8,1.7,1.4,3.8,2.1,6.7,2.1s3.4-.3,5.1-.9c1.7-.6,3.1-1.4,4.5-2.5l5.4,6.4c-4.1,3.7-9.3,5.6-15.3,5.6s-7.6-.7-10.6-2.2c-3-1.4-5.4-3.5-7-6.2-1.7-2.7-2.5-5.7-2.5-9.3s.9-7.9,2.9-11.3c1.9-3.4,4.5-6,7.9-8,3.3-1.9,7.1-2.8,11.3-2.8h0ZM-1367.5,529.7c.2-2.5-.4-4.6-1.7-6.1s-3.2-2.2-5.7-2.2-4.6.7-6.5,2.2c-2,1.5-3.3,3.5-4.2,6.1h18.1ZM-1335.2,553.1c-3.6,0-6.8-.7-9.5-2.2-2.7-1.4-4.8-3.5-6.3-6.2-1.5-2.7-2.2-5.8-2.2-9.3s.9-8,2.8-11.4c1.9-3.3,4.5-5.9,7.9-7.8,3.3-1.8,7.1-2.7,11.4-2.7s6.9.7,9.7,2.1c2.7,1.4,4.8,3.5,6.4,6.1l-8,5.4c-.9-1.4-2.1-2.4-3.5-3.1-1.4-.7-3.1-1.1-4.9-1.1s-3.8.5-5.3,1.4c-1.6,1-2.8,2.4-3.8,4.2-.9,1.8-1.4,3.8-1.4,6.1s.7,5.1,2.2,6.7c1.5,1.7,3.5,2.6,6,2.6,4.1,0,7.2-1.5,9.5-4.6l7.2,5.2c-1.9,2.7-4.3,4.8-7.5,6.4-3.1,1.5-6.7,2.2-10.6,2.2h0ZM-1293,513.9l-7.7,38.5h-10.9l7.7-38.5h10.9ZM-1295.1,496.5c1.5,0,2.7.4,3.7,1.4.9.9,1.4,2.2,1.4,3.7s-.7,3.8-2.2,5.2c-1.4,1.4-3.2,2.2-5.2,2.2s-2.7-.5-3.6-1.4c-.9-.9-1.4-2.2-1.4-3.7s.7-3.8,2.2-5.2c1.4-1.4,3.1-2.1,5.1-2.1h0ZM-1273.8,552.9c-3,0-5.7-.7-7.9-2.1-2.4-1.4-4.2-3.4-5.4-6-1.3-2.6-1.9-5.5-1.9-8.9s.9-7.9,2.7-11.4c1.8-3.4,4.2-6.1,7.4-8,3.1-1.9,6.7-2.9,10.4-2.9s5.7.6,7.7,1.9c2.1,1.3,3.7,3.1,4.8,5.6l1.4-7h10.9l-7.7,38.5h-10.9l1.1-4.9c-3.5,3.5-7.7,5.3-12.5,5.3h0ZM-1269.7,544.4c2,0,3.9-.6,5.6-1.7,1.7-1.1,3.1-2.6,4.1-4.6,1-1.9,1.5-4,1.5-6.2s-.8-4.9-2.3-6.6c-1.5-1.7-3.6-2.5-6.1-2.5s-3.9.6-5.6,1.7c-1.7,1.1-3.1,2.6-4.1,4.5-1,2-1.5,4-1.5,6.2s.8,5,2.3,6.7c1.5,1.7,3.6,2.5,6.1,2.5h0ZM-1218,498.2l-10.8,54.2h-11.3l10.8-54.2h11.3ZM-1199,513.9l-7.7,38.5h-10.9l7.7-38.5h10.9ZM-1201.2,496.5c1.5,0,2.7.4,3.7,1.4.9.9,1.4,2.2,1.4,3.7s-.7,3.8-2.2,5.2c-1.4,1.4-3.2,2.2-5.2,2.2s-2.7-.5-3.6-1.4c-.9-.9-1.4-2.2-1.4-3.7s.7-3.8,2.2-5.2c1.4-1.4,3.1-2.1,5.1-2.1h0ZM-1156.9,513.9l-1.2,6.9-24.5,22.8h20.5l-1.7,8.7h-34.4c0,0,1.2-7,1.2-7l24.5-22.8h-19.1l1.6-10.5,33.3,1.7h-.2Z"/>
    <path class="st1" d="M-1140.4,552.9c-3,0-5.7-.7-7.9-2.1-2.4-1.4-4.2-3.4-5.4-6-1.3-2.6-1.9-5.5-1.9-8.9s.9-7.9,2.7-11.4c1.8-3.4,4.2-6.1,7.4-8,3.1-1.9,6.7-2.9,10.4-2.9s5.7.6,7.7,1.9c2.1,1.3,3.7,3.1,4.8,5.6l1.4-7h10.9l-7.7,38.5h-10.9l1.1-4.9c-3.5,3.5-7.7,5.3-12.5,5.3h0ZM-1136.3,544.4c2,0,3.9-.6,5.6-1.7,1.7-1.1,3.1-2.6,4.1-4.6,1-1.9,1.5-4,1.5-6.2s-.8-4.9-2.3-6.6c-1.5-1.7-3.6-2.5-6.1-2.5s-3.9.6-5.6,1.7c-1.7,1.1-3.1,2.6-4.1,4.5-1,2-1.5,4-1.5,6.2s.8,5,2.3,6.7c1.5,1.7,3.6,2.5,6.1,2.5h0ZM-1091.1,552.9c-3.1,0-5.8-.7-8.1-2.2-2.4-1.5-4.2-3.5-5.6-6.1-1.3-2.6-2-5.6-2-9.1s.9-8.1,2.8-11.6c1.8-3.4,4.3-6.2,7.5-8.2,3.2-2,6.8-3,10.7-3s5.8.7,7.9,1.9c2.1,1.3,3.8,3.2,4.9,5.7l4.4-22.1h11.2l-10.8,54.2h-11.2l1.1-5c-3.6,3.6-7.9,5.4-12.8,5.4h0ZM-1086.8,544.4c2,0,3.9-.6,5.6-1.7,1.7-1.1,3.1-2.6,4.1-4.6,1-1.9,1.5-4,1.5-6.2s-.8-4.9-2.3-6.6c-1.5-1.7-3.6-2.5-6.1-2.5s-3.9.6-5.6,1.7c-1.7,1.1-3.1,2.6-4.1,4.5-1,2-1.5,4-1.5,6.2s.8,5,2.3,6.7c1.5,1.7,3.6,2.5,6.1,2.5h0ZM-1033.6,513.4c3.8,0,7.2.7,10.1,2.2,2.8,1.5,5.1,3.5,6.6,6.2,1.5,2.7,2.3,5.9,2.3,9.4s-1,8-3,11.4c-2,3.3-4.7,5.9-8.2,7.7-3.5,1.8-7.5,2.7-11.9,2.7s-7.2-.7-10.1-2.2c-2.9-1.5-5.1-3.6-6.7-6.3-1.5-2.7-2.3-5.9-2.3-9.4s1-8,3-11.4c2-3.3,4.7-5.9,8.2-7.7,3.5-1.8,7.5-2.7,11.9-2.7h0ZM-1034.4,522.6c-2.1,0-3.9.5-5.6,1.5-1.7,1-2.9,2.4-3.8,4.2-.9,1.8-1.4,3.9-1.4,6.2s.8,5.1,2.3,6.9c1.5,1.7,3.6,2.6,6.3,2.6s3.9-.5,5.6-1.5c1.7-1,3-2.5,3.9-4.3.9-1.8,1.4-3.8,1.4-6.1s-.8-5.1-2.3-6.9c-1.6-1.7-3.7-2.6-6.3-2.6h0ZM-971.3,513.5c3.7,0,6.9.7,9.7,2.1,2.7,1.4,4.8,3.5,6.3,6,1.4,2.6,2.2,5.6,2.2,9s-.2,4-.7,6.1h-28.6c.2,2.5,1.2,4.4,2.8,5.8,1.7,1.4,3.8,2.1,6.7,2.1s3.4-.3,5.1-.9c1.7-.6,3.1-1.4,4.5-2.5l5.4,6.4c-4.1,3.7-9.3,5.6-15.3,5.6s-7.6-.7-10.6-2.2c-3-1.4-5.4-3.5-7-6.2-1.7-2.7-2.5-5.7-2.5-9.3s.9-7.9,2.9-11.3c1.9-3.4,4.5-6,7.9-8,3.3-1.9,7.1-2.8,11.3-2.8h0ZM-963.5,529.7c.2-2.5-.4-4.6-1.7-6.1s-3.2-2.2-5.7-2.2-4.6.7-6.5,2.2-3.3,3.5-4.2,6.1h18.1ZM-892.1,513.4c4.2,0,7.5,1.1,9.9,3.4,2.4,2.3,3.6,5.3,3.6,9.1s-.1,2.5-.4,3.9l-4.5,22.7h-11l4.2-21.1c.1-.7.2-1.4.2-2.1,0-1.9-.6-3.4-1.8-4.6-1.2-1.1-2.8-1.6-4.9-1.6s-4.6.9-6.4,2.6c-1.9,1.8-3.1,4.1-3.7,6.9l-4.1,20h-10.9l4.2-21.1c.1-.7.2-1.4.2-2.1,0-1.9-.6-3.4-1.7-4.6-1.2-1.1-2.9-1.6-4.9-1.6s-4.6.9-6.4,2.6c-1.9,1.8-3.1,4.1-3.7,6.9l-4,20h-11l7.6-38.5h11.1l-1.1,5.3c3.1-3.9,7.2-5.8,12.2-5.8s6.2.7,8.5,2.2c2.2,1.5,3.7,3.6,4.5,6.3,3.7-5.7,8.5-8.5,14.4-8.5h0ZM-829.8,508.6c-1.4,0-2.6.4-3.7,1.2-1.1.9-1.8,1.9-2.1,3.3l-.5,2.6h8.3l-1.3,7h-8.2l-6,29.7h-11.2l6-29.7h-3.6l1.3-7h4.8l.7-3.7c.7-3.8,2.5-6.7,5.2-8.7,2.7-2,5.8-2.9,9.4-2.9s5,.5,7.2,1.6l-2.7,7.7c-.5-.3-1.1-.5-1.8-.7-.7-.2-1.4-.3-1.8-.3h0ZM-812.2,520.4c1.7-2.2,3.7-3.9,6.1-5.1,2.4-1.1,4.9-1.7,7.7-1.8l-1.3,10.3c-.4,0-.8,0-1.4,0-3.4,0-6.4.9-8.9,2.9-2.5,1.9-4.2,4.4-4.9,7.4l-3.6,18.5h-11l7.7-38.5h11l-1.3,6.4h0ZM-776.6,513.5c3.7,0,6.9.7,9.7,2.1,2.7,1.4,4.8,3.5,6.3,6,1.4,2.6,2.2,5.6,2.2,9s-.2,4-.7,6.1h-28.6c.2,2.5,1.2,4.4,2.8,5.8,1.7,1.4,3.8,2.1,6.7,2.1s3.4-.3,5.1-.9c1.7-.6,3.1-1.4,4.5-2.5l5.4,6.4c-4.1,3.7-9.3,5.6-15.3,5.6s-7.6-.7-10.6-2.2c-3-1.4-5.4-3.5-7-6.2-1.7-2.7-2.5-5.7-2.5-9.3s.9-7.9,2.9-11.3c1.9-3.4,4.5-6,7.9-8,3.3-1.9,7.1-2.8,11.3-2.8h0ZM-768.8,529.7c.2-2.5-.4-4.6-1.7-6.1s-3.2-2.2-5.7-2.2-4.6.7-6.5,2.2-3.3,3.5-4.2,6.1h18.1ZM-736.3,513.9l-7.7,38.5h-10.9l7.7-38.5h10.9ZM-738.5,496.5c1.5,0,2.7.4,3.7,1.4.9.9,1.4,2.2,1.4,3.7s-.7,3.8-2.2,5.2c-1.4,1.4-3.2,2.2-5.2,2.2s-2.7-.5-3.6-1.4c-.9-.9-1.4-2.2-1.4-3.7s.7-3.8,2.2-5.2c1.4-1.4,3.1-2.1,5.1-2.1h0ZM-709.6,513.4c3.8,0,7.2.7,10.1,2.2,2.8,1.5,5.1,3.5,6.6,6.2,1.5,2.7,2.3,5.9,2.3,9.4s-1,8-3,11.4-4.7,5.9-8.2,7.7c-3.5,1.8-7.5,2.7-11.9,2.7s-7.2-.7-10.1-2.2c-2.9-1.5-5.1-3.6-6.7-6.3-1.5-2.7-2.3-5.9-2.3-9.4s1-8,3-11.4c2-3.3,4.7-5.9,8.2-7.7,3.5-1.8,7.5-2.7,11.9-2.7h0ZM-710.5,522.6c-2.1,0-3.9.5-5.6,1.5-1.7,1-2.9,2.4-3.8,4.2-.9,1.8-1.4,3.9-1.4,6.2s.8,5.1,2.3,6.9c1.5,1.7,3.6,2.6,6.3,2.6s3.9-.5,5.6-1.5c1.7-1,3-2.5,3.9-4.3.9-1.8,1.4-3.8,1.4-6.1s-.8-5.1-2.3-6.9c-1.6-1.7-3.7-2.6-6.3-2.6h0ZM-671,553.2c-3.5,0-7-.7-10.4-2-3.4-1.4-6.2-3.2-8.3-5.4l4.7-6.9c1.8,1.8,4,3.3,6.5,4.3,2.5,1.2,4.8,1.7,6.9,1.7s2.7-.3,3.7-.9c.9-.7,1.4-1.4,1.4-2.5s-.5-1.7-1.5-2.4-2.5-1.4-4.6-2.2c-2.2-.9-4.1-1.8-5.6-2.6-1.5-.8-2.7-1.9-3.8-3.3-1.1-1.4-1.6-3.2-1.6-5.3s.7-4.6,1.9-6.4,3-3.3,5.3-4.4c2.2-1,4.8-1.5,7.8-1.5s6.1.5,9.2,1.6c3.1,1.1,5.7,2.6,8,4.5l-5.1,6.9c-2-1.5-4.1-2.7-6.2-3.5-2.2-.9-4.1-1.3-5.7-1.3s-2.3.3-3.2.9c-.9.7-1.3,1.4-1.3,2.3s.5,1.7,1.5,2.3c1,.7,2.5,1.4,4.6,2.2,2.3.9,4.2,1.9,5.7,2.7,1.5.8,2.8,2,3.9,3.4,1.1,1.5,1.7,3.3,1.7,5.4s-.7,4.6-2,6.4c-1.3,1.9-3.1,3.3-5.4,4.4-2.4,1.1-5.1,1.6-8,1.6h0ZM-617.3,552.9c-3,0-5.7-.7-7.9-2.1-2.4-1.4-4.2-3.4-5.4-6-1.3-2.6-1.9-5.5-1.9-8.9s.9-7.9,2.7-11.4c1.8-3.4,4.2-6.1,7.4-8,3.1-1.9,6.7-2.9,10.4-2.9s5.7.6,7.7,1.9c2.1,1.3,3.7,3.1,4.8,5.6l1.4-7h10.9l-7.7,38.5h-10.9l1.1-4.9c-3.5,3.5-7.7,5.3-12.5,5.3h0ZM-613.2,544.4c2,0,3.9-.6,5.6-1.7,1.7-1.1,3.1-2.6,4.1-4.6,1-1.9,1.5-4,1.5-6.2s-.8-4.9-2.3-6.6c-1.5-1.7-3.6-2.5-6.1-2.5s-3.9.6-5.6,1.7c-1.7,1.1-3.1,2.6-4.1,4.5-1,2-1.5,4-1.5,6.2s.8,5,2.3,6.7c1.5,1.7,3.6,2.5,6.1,2.5h0ZM-528.5,552.4l-2.5-10.5h-25l-5.9,10.5h-10.8l30.4-50.7h11.7l13.3,50.7h-11.3ZM-550,533.2h16.1l-4.7-20-11.4,20ZM-494.5,520.4c1.7-2.2,3.7-3.9,6.1-5.1,2.4-1.1,4.9-1.7,7.7-1.8l-1.3,10.3c-.4,0-.8,0-1.4,0-3.4,0-6.4.9-8.9,2.9-2.5,1.9-4.2,4.4-4.9,7.4l-3.6,18.5h-11l7.7-38.5h11l-1.3,6.4h0ZM-442.1,513.5c3.7,0,6.9.7,9.7,2.1,2.7,1.4,4.8,3.5,6.3,6,1.4,2.6,2.2,5.6,2.2,9s-.2,4-.7,6.1h-28.6c.2,2.5,1.2,4.4,2.8,5.8,1.7,1.4,3.8,2.1,6.7,2.1s3.4-.3,5.1-.9c1.7-.6,3.1-1.4,4.5-2.5l5.4,6.4c-4.1,3.7-9.3,5.6-15.3,5.6s-7.6-.7-10.6-2.2c-3-1.4-5.4-3.5-7-6.2-1.7-2.7-2.5-5.7-2.5-9.3s.9-7.9,2.9-11.3c1.9-3.4,4.5-6,7.9-8,3.3-1.9,7.1-2.8,11.3-2.8h0ZM-434.2,529.7c.2-2.5-.4-4.6-1.7-6.1-1.3-1.5-3.2-2.2-5.7-2.2s-4.6.7-6.5,2.2c-2,1.5-3.3,3.5-4.2,6.1h18.1ZM-362.8,513.4c4.2,0,7.5,1.1,9.9,3.4,2.4,2.3,3.6,5.3,3.6,9.1s-.1,2.5-.4,3.9l-4.5,22.7h-11l4.2-21.1c.1-.7.2-1.4.2-2.1,0-1.9-.6-3.4-1.8-4.6-1.2-1.1-2.8-1.6-4.9-1.6s-4.6.9-6.4,2.6c-1.9,1.8-3.1,4.1-3.7,6.9l-4.1,20h-10.9l4.2-21.1c.1-.7.2-1.4.2-2.1,0-1.9-.6-3.4-1.7-4.6-1.2-1.1-2.9-1.6-4.9-1.6s-4.6.9-6.4,2.6c-1.9,1.8-3.1,4.1-3.7,6.9l-4,20h-11l7.6-38.5h11.1l-1.1,5.3c3.1-3.9,7.2-5.8,12.2-5.8s6.2.7,8.5,2.2c2.2,1.5,3.7,3.6,4.5,6.3,3.7-5.7,8.5-8.5,14.4-8.5h0ZM-313,567.3c-6.1,0-11.7-1.8-16.8-5.4l4.8-7.4c1.6,1.2,3.4,2.1,5.5,2.7,2,.7,4.1.9,6.2.9,3.3,0,6-.7,8.1-2.1,2.1-1.4,3.4-3.4,4.1-6.1l.9-4c-3.4,3.1-7.3,4.7-11.7,4.7s-5.4-.7-7.6-2-3.9-3.3-5.1-5.6c-1.2-2.4-1.8-5.2-1.8-8.3s.9-7.6,2.6-10.9c1.7-3.3,4.1-5.8,7-7.7,3-1.9,6.3-2.8,9.9-2.8s5.3.6,7.3,1.7c2,1.2,3.5,2.8,4.5,5.1l1.3-6.4h11.1l-7.5,37.2c-1.1,5.2-3.5,9.2-7.5,12s-9,4.2-15.2,4.2h0ZM-307.6,541.8c1.8,0,3.5-.5,5.1-1.4,1.5-.9,2.7-2.3,3.7-4,.9-1.7,1.4-3.5,1.4-5.4s-.7-4.4-2.1-5.9c-1.4-1.4-3.3-2.2-5.6-2.2s-3.5.5-5.1,1.4c-1.5,1-2.7,2.4-3.7,4.1-.9,1.7-1.4,3.6-1.4,5.6s.7,4.3,2.1,5.7c1.4,1.4,3.2,2.1,5.5,2.1h0ZM-257.6,513.5c3.7,0,6.9.7,9.7,2.1,2.7,1.4,4.8,3.5,6.3,6,1.4,2.6,2.2,5.6,2.2,9s-.2,4-.7,6.1h-28.6c.2,2.5,1.2,4.4,2.8,5.8,1.7,1.4,3.8,2.1,6.7,2.1s3.4-.3,5.1-.9c1.7-.6,3.1-1.4,4.5-2.5l5.4,6.4c-4.1,3.7-9.3,5.6-15.3,5.6s-7.6-.7-10.6-2.2c-3-1.4-5.4-3.5-7-6.2-1.7-2.7-2.5-5.7-2.5-9.3s.9-7.9,2.9-11.3c1.9-3.4,4.5-6,7.9-8,3.3-1.9,7.1-2.8,11.3-2.8h0ZM-249.8,529.7c.2-2.5-.4-4.6-1.7-6.1-1.3-1.5-3.2-2.2-5.7-2.2s-4.6.7-6.5,2.2c-2,1.5-3.3,3.5-4.2,6.1h18.1,0ZM-218.5,520.4c1.7-2.2,3.7-3.9,6.1-5.1,2.4-1.1,4.9-1.7,7.7-1.8l-1.3,10.3c-.4,0-.8,0-1.4,0-3.4,0-6.4.9-8.9,2.9-2.5,1.9-4.2,4.4-4.9,7.4l-3.6,18.5h-11l7.7-38.5h11l-1.3,6.4h0ZM-189.5,552.9c-3,0-5.7-.7-7.9-2.1-2.4-1.4-4.2-3.4-5.4-6-1.3-2.6-1.9-5.5-1.9-8.9s.9-7.9,2.7-11.4c1.8-3.4,4.2-6.1,7.4-8,3.1-1.9,6.7-2.9,10.4-2.9s5.7.6,7.7,1.9c2.1,1.3,3.7,3.1,4.8,5.6l1.4-7h10.9l-7.7,38.5h-10.9l1.1-4.9c-3.5,3.5-7.7,5.3-12.5,5.3h0ZM-185.4,544.4c2,0,3.9-.6,5.6-1.7,1.7-1.1,3.1-2.6,4.1-4.6,1-1.9,1.5-4,1.5-6.2s-.8-4.9-2.3-6.6c-1.5-1.7-3.6-2.5-6.1-2.5s-3.9.6-5.6,1.7c-1.7,1.1-3.1,2.6-4.1,4.5-1,2-1.5,4-1.5,6.2s.8,5,2.3,6.7c1.5,1.7,3.6,2.5,6.1,2.5h0ZM-133.8,498.2l-10.8,54.2h-11.3l10.8-54.2h11.3Z"/>
  </g>
  <g>
    <g>
      <path class="st1" d="M-1769.8,342.2v28.8c0,2.6-2.1,4.8-4.8,4.8h-12.2v5.2h88.3l13.9-38.8h-85.2Z"/>
      <path class="st1" d="M-1779.4,388v38.4h59.9l13.8-38.8h-73.8c0,.1,0,.2,0,.3Z"/>
      <path class="st1" d="M-1779.4,436.6h5.6c1.3,0,2.6.6,3.5,1.6.9,1,1.3,2.3,1.2,3.6l-3,32.1h30l13.9-38.8h-51.2v1.5Z"/>
      <path class="st1" d="M-2004.2,370.9v-28.8h-89.6l13.8,38.8h91.6v-5.2h-11.1c-2.6,0-4.8-2.1-4.8-4.8Z"/>
      <path class="st1" d="M-2059,426.4h63.2v-38.4c0-.1,0-.2,0-.3h-77.1l13.9,38.8Z"/>
      <path class="st1" d="M-2036.4,473.9h34l-3-32.1c-.1-1.3.3-2.6,1.2-3.6.9-1,2.2-1.6,3.5-1.6h4.9v-1.5h-54.5l13.9,38.8Z"/>
    </g>
    <path class="st6" d="M-1789.1,373.3c-1.3,0-2.4-1.1-2.4-2.4v-31.3c0-1.3,1.1-2.4,2.4-2.4h14.6c1.3,0,2.4,1.1,2.4,2.4v31.3c0,1.3-1.1,2.4-2.4,2.4h-14.6Z"/>
    <polygon class="st0" points="-1983.6 408.4 -1957.6 408.4 -1957.6 238.9 -1983.6 238.9 -1983.6 408.4"/>
    <polygon class="st3" points="-1983.6 408.4 -1957.6 408.4 -1957.6 238.9 -1983.6 238.9 -1983.6 408.4"/>
    <polygon class="st1" points="-1962.1 242.1 -1980.4 242.1 -1980.4 420.4 -1969.3 420.4 -1968.7 249.8 -1962.1 242.1"/>
    <polygon class="st0" points="-1991 449.5 -1969 449.5 -1969 388 -1991 388 -1991 449.5"/>
    <polygon class="st5" points="-1991 449.5 -1969 449.5 -1969 388 -1991 388 -1991 449.5"/>
    <polygon class="st1" points="-1971.1 449.4 -1971.1 391.4 -1987.6 391.4 -1987.9 449.1 -1971.1 449.4"/>
    <polygon class="st0" points="-1817.6 408.4 -1791.6 408.4 -1791.6 238.9 -1817.6 238.9 -1817.6 408.4"/>
    <polygon class="st3" points="-1817.6 408.4 -1791.6 408.4 -1791.6 238.9 -1817.6 238.9 -1817.6 408.4"/>
    <polygon class="st1" points="-1813 242.1 -1794.7 242.1 -1794.7 420.4 -1805.9 420.4 -1806.4 249.8 -1813 242.1"/>
    <polygon class="st0" points="-1806.2 449.5 -1784.1 449.5 -1784.1 388 -1806.2 388 -1806.2 449.5"/>
    <polygon class="st5" points="-1806.2 449.5 -1784.1 449.5 -1784.1 388 -1806.2 388 -1806.2 449.5"/>
    <polygon class="st1" points="-1804.1 449.4 -1804.1 391.4 -1787.6 391.4 -1787.2 449.1 -1804.1 449.4"/>
    <polygon class="st6" points="-1852 292.1 -1836.5 292.1 -1836.5 277.5 -1852 277.5 -1852 292.1"/>
    <polygon class="st5" points="-1852 292.1 -1836.5 292.1 -1836.5 277.5 -1852 277.5 -1852 292.1"/>
    <polygon class="st3" points="-1848.4 280.2 -1839.4 280.2 -1839.4 289.4 -1845.8 289.4 -1848.4 280.2"/>
    <polygon class="st7" points="-1939.6 292.1 -1924 292.1 -1924 277.5 -1939.6 277.5 -1939.6 292.1"/>
    <polygon class="st5" points="-1939.6 292.1 -1924.1 292.1 -1924.1 277.5 -1939.6 277.5 -1939.6 292.1"/>
    <polygon class="st1" points="-1924.1 278.5 -1938.4 278.5 -1938.4 289.4 -1928.2 289.4 -1924.1 278.5"/>
    <path class="st0" d="M-1826.6,287.1l-60.8-1.4h0s-.6,0-.6,0h-.6s0,0,0,0l-60.9,1.4s-12.9,34.2-12.3,34c.6-.2,66.8.7,73.8.3,7,.4,73.2-.5,73.8-.3.6.2-12.3-34-12.3-34Z"/>
    <path class="st3" d="M-1826.6,287.1l-60.8-1.4h0s-.6,0-.6,0h-.6s0,0,0,0l-60.9,1.4s-12.9,34.2-12.3,34c.6-.2,66.8.7,73.8.3,7,.4,73.2-.5,73.8-.3.6.2-12.3-34-12.3-34h0Z"/>
    <path class="st1" d="M-1953.5,313.9v-6l7.8-17.1s27.8-3.6,56.1,22.7c0,0-64.2.1-63.9.4h0Z"/>
    <path class="st1" d="M-1823.1,313.9v-6l-7.8-17.1s-27.8-3.6-56.1,22.7c0,0,64.1.1,63.8.4h0Z"/>
    <path class="st0" d="M-1907.4,296.6c0,2.1-5.6,3.7-12.5,3.7s-12.5-1.7-12.5-3.7,5.6-3.7,12.5-3.7,12.5,1.7,12.5,3.7Z"/>
    <path class="st1" d="M-1966.2,564.4h-27c-4.2,0-7.7-3.4-7.7-7.7v-28.4h42.4v28.4c0,4.3-3.4,7.7-7.7,7.7Z"/>
    <path class="st7" d="M-1996.9,529.4v25.6s0,7.4,6.1,7.4h21.4l-21.3-1.2s-5.1-1.7-5.2-6.5l-1-25.3h0Z"/>
    <path class="st1" d="M-1785.2,564.4h-27c-4.2,0-7.7-3.4-7.7-7.7v-28.4h42.4v28.4c0,4.3-3.4,7.7-7.7,7.7h0Z"/>
    <path class="st0" d="M-1815.9,529.4v25.6s-.1,7.4,6.1,7.4h21.4l-21.3-1.2s-5.1-1.7-5.2-6.5l-1-25.3h0Z"/>
    <polygon class="st0" points="-1972.2 455.6 -1802.4 455.6 -1802.4 317.5 -1972.2 317.5 -1972.2 455.6"/>
    <polygon class="st2" points="-1972.2 455.6 -1802.4 455.6 -1802.4 317.5 -1972.2 317.5 -1972.2 455.6"/>
    <path class="st0" d="M-1961.3,445v-74.7h148.1v74.1l-148.1.5Z"/>
    <path class="st4" d="M-1961.3,445v-74.7h148.1v74.1l-148.1.5Z"/>
    <polygon class="st0" points="-1947.3 490.6 -1996.1 490.6 -2000.6 441.4 -1947.3 441 -1947.3 490.6"/>
    <polygon class="st2" points="-1947.3 490.6 -1996.1 490.6 -2000.6 441.4 -1947.3 441 -1947.3 490.6"/>
    <polygon class="st1" points="-1951.8 486.4 -1952.1 459.5 -1996.9 444.4 -1947 444.4 -1951.8 486.4"/>
    <polygon class="st5" points="-1991.3 485.2 -1952.1 485.2 -1952.1 460.4 -1991.3 460.4 -1991.3 485.2"/>
    <polygon class="st1" points="-1967.7 462.9 -1968 462.9 -1957.4 465.2 -1955 481.9 -1955 462.9 -1967.7 462.9"/>
    <polygon class="st1" points="-1987.5 462.9 -1987.8 462.9 -1977.3 465.2 -1974.9 481.9 -1974.9 462.9 -1987.5 462.9"/>
    <polygon class="st1" points="-1991.3 460.4 -1985.9 481.2 -1972.8 485.3 -1991.3 485.3 -1991.3 460.4"/>
    <polygon class="st1" points="-1971.3 460.4 -1965.9 481.2 -1952.8 485.3 -1971.3 485.3 -1971.3 460.4"/>
    <polygon class="st0" points="-1827.2 490.6 -1778.4 490.6 -1773.8 441.4 -1827.2 441 -1827.2 490.6"/>
    <polygon class="st2" points="-1827.2 490.6 -1778.4 490.6 -1773.8 441.4 -1827.2 441 -1827.2 490.6"/>
    <polygon class="st1" points="-1822.7 486.4 -1822.4 459.5 -1777.6 444.4 -1827.5 444.4 -1822.7 486.4"/>
    <polygon class="st5" points="-1822.4 485.2 -1783.2 485.2 -1783.2 460.4 -1822.4 460.4 -1822.4 485.2"/>
    <polygon class="st1" points="-1806.8 462.9 -1806.5 462.9 -1817 465.2 -1819.4 481.9 -1819.4 462.9 -1806.8 462.9"/>
    <polygon class="st1" points="-1786.9 462.9 -1786.7 462.9 -1797.2 465.2 -1799.6 481.9 -1799.6 462.9 -1786.9 462.9"/>
    <polygon class="st1" points="-1783.2 460.4 -1788.6 481.2 -1801.7 485.3 -1783.2 485.3 -1783.2 460.4"/>
    <polygon class="st1" points="-1803.2 460.4 -1808.6 481.2 -1821.7 485.3 -1803.2 485.3 -1803.2 460.4"/>
    <polygon class="st1" points="-1890 362.5 -1967.2 362.5 -1967.2 329.9 -1890 325.1 -1890 362.5"/>
    <polygon class="st0" points="-1913.8 328.3 -1904.1 327.7 -1923.8 360.6 -1936.9 360.6 -1913.8 328.3"/>
    <polygon class="st0" points="-1931.3 329.1 -1921.7 328.6 -1943.9 360.6 -1957 360.6 -1931.3 329.1"/>
    <polygon class="st0" points="-1964.4 350.9 -1964.4 332.7 -1939.5 330 -1961 335.7 -1964.4 350.9"/>
    <polygon class="st1" points="-1884.5 362.5 -1807.3 362.5 -1807.3 329.9 -1884.5 325.1 -1884.5 362.5"/>
    <polygon class="st0" points="-1828.2 330.1 -1819.3 330.6 -1836.9 360.6 -1850 360.6 -1828.2 330.1"/>
    <polygon class="st0" points="-1844.6 329.3 -1835.7 329.7 -1857 360.6 -1870.1 360.6 -1844.6 329.3"/>
    <polygon class="st0" points="-1881 346.3 -1881 328.1 -1855.8 330.1 -1877.5 331.1 -1881 346.3"/>
    <polygon class="st1" points="-1967.2 362.5 -1807.3 362.5 -1815 370 -1959.4 370 -1967.2 362.5"/>
    <polygon class="st0" points="-2014.3 538.1 -1764.1 538.1 -1764.1 486.4 -2014.3 486.4 -2014.3 538.1"/>
    <polygon class="st3" points="-2014.3 538.1 -1764.1 538.1 -1764.1 486.4 -2014.3 486.4 -2014.3 538.1"/>
    <polygon class="st1" points="-2009.8 492 -2009.8 532.8 -1916.8 532.8 -2000.9 516.2 -2009.8 492"/>
    <polygon class="st1" points="-1769.2 492 -1769.2 532.8 -1862.2 532.8 -1778.1 516.2 -1769.2 492"/>
    <polygon class="st1" points="-2009.8 489.7 -1772.6 489.7 -1888.9 507.6 -2009.8 489.7"/>
    <polygon class="st1" points="-1988.3 506.7 -1961 506.7 -1961 492.6 -1988.3 492.6 -1988.3 506.7"/>
    <polygon class="st1" points="-1820.2 506.7 -1793 506.7 -1793 492.6 -1820.2 492.6 -1820.2 506.7"/>
    <polygon class="st1" points="-1920.1 516.6 -1858.4 516.6 -1858.4 500.8 -1920.1 500.8 -1920.1 516.6"/>
    <polygon class="st0" points="-1915.6 503.7 -1861.7 503.7 -1861.7 513.9 -1866 505.9 -1915.6 503.7"/>
    <polygon class="st0" points="-1991.2 534.9 -2000.3 534.9 -1987.2 510.5 -1978.2 510.5 -1991.2 534.9"/>
    <polygon class="st0" points="-1979.2 534.9 -1988.2 534.9 -1975.2 510.5 -1966.2 510.5 -1979.2 534.9"/>
    <path class="st0" d="M-1817.7,505h23v-11.8l-5.2,9.6-17.8,2.3Z"/>
    <path class="st0" d="M-1962.6,505h-23v-11.8l5.2,9.6,17.8,2.3Z"/>
    <polygon class="st1" points="-1967.7 320.4 -1806 320.4 -1806.1 326.3 -1888.1 322.3 -1967.6 325.2 -1967.7 320.4"/>
    <polygon class="st1" points="-1957.8 380.8 -1946.4 398.6 -1950.6 438.2 -1957.4 438.2 -1957.8 380.8"/>
    <polygon class="st1" points="-1816.9 380.8 -1828.3 398.6 -1824.1 438.2 -1817.3 438.2 -1816.9 380.8"/>
    <path class="st0" d="M-1950.4,488.2l9.6-90,4.2-1.3,4-1.2c1.6-.5,3.2-1,4.7-1.4,1.8-.5,3.5-1.1,5.3-1.6,1.9-.6,3.8-1.1,5.7-1.7,2-.6,4-1.1,6-1.7,2-.5,4-1.1,6-1.6,2-.5,3.9-1,5.9-1.5,1.9-.4,3.7-.9,5.6-1.3,1.7-.4,3.4-.7,5.1-1,.3,0,.6,0,.9,0,0,0,.2,0,.2,0l1.2.2c.9.2,1.7.3,2.6.5,1.8.4,3.6.8,5.5,1.2,2,.5,3.9.9,5.8,1.4,2,.5,4,1,6,1.6,2,.5,4,1.1,6,1.6,2,.5,3.9,1.1,5.8,1.7,1.8.5,3.7,1.1,5.5,1.6,1.7.5,3.3,1,5,1.5l4.3,1.3,5.5,1.7,9.6,90h-126.2,0Z"/>
    <path class="st1" d="M-1887.2,381.5c-.4,0-.9,0-1.3.1-1.7.3-3.5.7-5.2,1-1.9.4-3.8.8-5.7,1.3-2,.5-4,1-6,1.5-2,.5-4,1.1-6.1,1.6-2,.5-4,1.1-6,1.7-1.9.5-3.8,1.1-5.8,1.7-1.8.5-3.6,1-5.3,1.6-1.6.5-3.2,1-4.8,1.4-1.3.4-2.7.8-4,1.2-1,.3-2.1.6-3.1,1-.7.2-1.3.4-2,.6-.2,0-.5.1-.7.2l-10.1,94.2h131.5l-10.1-94.2s0,0,0,0c-.4-.1-.8-.2-1.2-.4-.8-.3-1.6-.5-2.4-.8-1.1-.4-2.3-.7-3.4-1.1-1.4-.4-2.9-.9-4.3-1.3-1.7-.5-3.3-1-5-1.5-1.8-.5-3.7-1.1-5.5-1.6-1.9-.6-3.9-1.1-5.9-1.7-2-.6-4-1.1-6-1.7-2-.5-4-1.1-6-1.6-2-.5-3.9-1-5.9-1.4-1.8-.4-3.7-.8-5.5-1.2-.9-.2-1.7-.3-2.6-.5-.4,0-.8-.2-1.2-.2-.2,0-.4,0-.7,0h0ZM-1887.2,386.3l1.1.2c.8.2,1.7.3,2.5.5,1.8.4,3.6.8,5.4,1.2,1.9.4,3.9.9,5.8,1.4,2,.5,4,1,6,1.6,2,.5,4,1.1,6,1.6,1.9.5,3.9,1.1,5.8,1.7,1.8.5,3.6,1.1,5.5,1.6,1.7.5,3.3,1,5,1.5,1.4.4,2.8.9,4.3,1.3,1.1.3,2.3.7,3.4,1.1l.6.2,9.2,85.8h-120.9l9.2-85.8c.9-.3,1.8-.6,2.7-.9,1.3-.4,2.7-.8,4-1.2,1.6-.5,3.2-1,4.7-1.4,1.8-.5,3.5-1.1,5.3-1.6,1.9-.6,3.8-1.1,5.7-1.6,2-.6,4-1.1,5.9-1.6,2-.5,4-1.1,6-1.6,2-.5,3.9-1,5.9-1.5,1.9-.4,3.7-.9,5.6-1.3,1.8-.4,3.5-.7,5.1-1,.2,0,.3,0,.4,0h0Z"/>
    <path class="st1" d="M-1887.3,401.7l7.9-2.7s4.8-9.2,6.8-14.3c-1.6-.4-3.2-.8-4.8-1.2-1.8-.4-3.7-.8-5.5-1.2-.9-.2-1.7-.3-2.6-.5-.4,0-.8-.2-1.2-.2-.6-.1-1.3,0-1.9,0-1.7.3-3.5.7-5.2,1-1.9.4-3.8.8-5.7,1.3-.4.1-.8.2-1.3.3l5,14.4,8.6,3h0Z"/>
    <polygon class="st5" points="-1935.2 410.4 -1887.2 405.7 -1837.2 410.4 -1833.4 481.8 -1940.2 481.8 -1935.2 410.4"/>
    <polygon class="st0" points="-1886.7 398.9 -1881.1 396.9 -1876.4 389.1 -1886.8 386.9 -1886.7 398.9"/>
    <polygon class="st1" points="-1940.2 481.8 -1886 474.6 -1834 481.8 -1940.2 481.8"/>
    <polygon class="st1" points="-1934 420.5 -1886.7 410 -1839.2 420.2 -1886.2 416.8 -1934 420.5"/>
    <polygon class="st1" points="-1934 430.4 -1886.7 420 -1839.2 430.2 -1886.2 426.7 -1934 430.4"/>
    <polygon class="st1" points="-1934 440.4 -1886.7 429.9 -1839.2 440.1 -1886.2 436.7 -1934 440.4"/>
    <polygon class="st1" points="-1934 450.3 -1886.7 439.8 -1839.2 450.1 -1886.2 446.6 -1934 450.3"/>
    <polygon class="st1" points="-1934 460.3 -1886.7 449.8 -1839.2 460 -1886.2 456.6 -1934 460.3"/>
    <polygon class="st1" points="-1934 470.2 -1886.7 459.7 -1839.2 469.9 -1886.2 466.5 -1934 470.2"/>
    <polygon class="st1" points="-1839 401.3 -1875.1 389.2 -1880.6 398.7 -1887.3 401.7 -1839 401.3"/>
    <polygon class="st1" points="-1935.2 401.3 -1899 389.2 -1893.6 398.7 -1886.8 401.7 -1935.2 401.3"/>
    <polygon class="st1" points="-1822.2 373.3 -1952.6 373.3 -1942 390.6 -1889.2 377.9 -1836.8 390.9 -1822.2 373.3"/>
    <path class="st0" d="M-1887.1,374c0,1.1-11.2,1.9-24.9,1.9s-24.9-.9-24.9-1.9,11.2-1.9,24.9-1.9,24.9.9,24.9,1.9Z"/>
    <polygon class="st0" points="-1999.5 370.9 -1984.9 370.9 -1984.9 339.7 -1999.5 339.7 -1999.5 370.9"/>
    <polygon class="st5" points="-1999.5 370.9 -1984.9 370.9 -1984.9 339.7 -1999.5 339.7 -1999.5 370.9"/>
    <polygon class="st1" points="-1995.8 342.5 -1988.1 342.5 -1988.1 366.9 -1995.8 342.5"/>
    <polyline class="st5" points="-1802.5 336.5 -1782.5 341.1 -1781.3 370 -1801.1 381.5 -1813.2 370.4 -1833.9 398.5 -1802.8 460.3 -1802.8 485.3 -1971.7 485.3 -1971.7 460.3 -1939.1 470.6 -1886.2 466.5 -1834.7 470.3 -1835.3 460.4 -1886.9 456.7 -1938 460.6 -1937.6 450.9 -1886.2 446.6 -1835.8 450.5 -1835.8 440.5 -1886.2 436.7 -1936.7 440.5 -1936.2 430.6 -1886.2 426.7 -1836.3 430.6 -1837.2 420.6 -1886.2 416.8 -1935.2 420.6 -1941.3 397.9 -1961.3 370.4 -1973 381.5 -1992.7 370 -1991.5 341.1 -1971.5 336.5"/>
    <polygon class="st0" points="-1789.1 370.9 -1774.6 370.9 -1774.6 339.7 -1789.1 339.7 -1789.1 370.9"/>
    <polygon class="st5" points="-1789.2 370.9 -1774.6 370.9 -1774.6 339.7 -1789.2 339.7 -1789.2 370.9"/>
    <polygon class="st1" points="-1778.3 342.5 -1786 342.5 -1786 366.9 -1778.3 342.5"/>
    <path class="st1" d="M-1709.5,564.1c0,1.8-80.5,3.2-179.8,3.2s-179.8-1.4-179.8-3.2,80.5-4.2,179.8-4.2,179.8,2.5,179.8,4.2Z"/>
  </g>
</svg>