<?xml version="1.0" encoding="UTF-8"?>
<svg xmlns="http://www.w3.org/2000/svg" xmlns:xodm="http://www.corel.com/coreldraw/odm/2003" version="1.1" viewBox="0 0 1586.4 919.4">
  <defs>
    <style>
      .cls-1 {
        fill: #002c69;
      }

      .cls-2 {
        stroke-width: 5.7px;
      }

      .cls-2, .cls-3, .cls-4, .cls-5, .cls-6, .cls-7 {
        stroke: #002c69;
      }

      .cls-2, .cls-3, .cls-4, .cls-5, .cls-6, .cls-7, .cls-8, .cls-9, .cls-10, .cls-11 {
        fill: none;
        stroke-linecap: round;
        stroke-linejoin: round;
      }

      .cls-3 {
        stroke-width: 6.4px;
      }

      .cls-4 {
        stroke-width: 4.4px;
      }

      .cls-5 {
        stroke-width: 4.5px;
      }

      .cls-6, .cls-10 {
        stroke-width: 4.5px;
      }

      .cls-7, .cls-8 {
        stroke-width: 4.5px;
      }

      .cls-12 {
        fill: #fff;
      }

      .cls-13 {
        fill: #fefefe;
      }

      .cls-14 {
        fill: #6b6b6b;
      }

      .cls-8, .cls-9, .cls-10, .cls-11 {
        stroke: #262c3a;
      }

      .cls-9 {
        stroke-width: 4.6px;
      }

      .cls-11 {
        stroke-width: 4.6px;
      }
    </style>
  </defs>
  <!-- Generator: Adobe Illustrator 28.6.0, SVG Export Plug-In . SVG Version: 1.2.0 Build 709)  -->
  <g>
    <g id="Camada_1">
      <g id="Layer_x5F_1">
        <path class="cls-12" d="M109,821.3l-24.7-50.1h-29.2v50.1H0v-185.8h86.7c24.9,0,44.3,5.8,58.1,17.2,13.5,11.4,20.4,27.8,20.4,48.8s-2.7,25.4-8,35.3c-5.6,10.1-13.3,18-23.3,23.9l37.6,60.7h-62.6,0ZM55.1,728.8h31.5c8.2,0,14.8-2.1,19.4-6.6s6.6-10.9,6.6-19.1-2.1-14.3-6.6-18.8c-4.5-4.2-11.1-6.4-19.4-6.4h-31.5v50.9Z"/>
        <path class="cls-12" d="M308.8,759.8c0,20.1-6.1,35.8-18,46.9-12.2,11.4-28.6,17-49.6,17s-49.8-10.3-68.7-31l25.2-36.3c6.6,6.9,13.5,12.2,20.7,15.6,6.9,3.4,13,5.3,18.3,5.3s9.3-1.6,12.2-4.8c2.9-3.2,4.2-8,4.2-14.1v-79h-63.1v-44h118.8v124.3h0Z"/>
        <path class="cls-12" d="M467.6,821.3l-10.9-29.7h-75l-11.1,29.7h-56.7l79.3-185.8h56.7l76.6,185.8h-58.9ZM397.1,751.3h45.1l-22.3-60.7-22.8,60.7Z"/>
        <polygon class="cls-12" points="595.9 635.5 740.2 635.5 740.2 677.9 651.1 677.9 651.1 715 733.8 715 733.8 757.4 651.1 757.4 651.1 821.3 595.9 821.3 595.9 635.5"/>
        <path class="cls-12" d="M869,821.3l-24.7-50.1h-29.2v50.1h-55.1v-185.8h86.7c24.9,0,44.3,5.8,58.1,17.2,13.5,11.4,20.4,27.8,20.4,48.8s-2.7,25.4-8,35.3c-5.6,10.1-13.3,18-23.3,23.9l37.6,60.7h-62.6,0ZM815.2,728.8h31.5c8.2,0,14.8-2.1,19.4-6.6s6.6-10.9,6.6-19.1-2.1-14.3-6.6-18.8c-4.5-4.2-11.1-6.4-19.4-6.4h-31.5v50.9Z"/>
        <polygon class="cls-12" points="952.2 635.5 1104.1 635.5 1104.1 677.9 1007.4 677.9 1007.4 707.1 1095.1 707.1 1095.1 749.5 1007.4 749.5 1007.4 778.9 1106.8 778.9 1106.8 821.3 952.2 821.3 952.2 635.5"/>
        <polygon class="cls-12" points="1133.3 635.5 1188.4 635.5 1188.4 821.3 1133.3 821.3 1133.3 635.5"/>
        <path class="cls-12" d="M1565.9,695.4c-9.8-5.8-20.7-10.9-32.6-14.8-11.9-4-21.5-6.1-29.2-6.1s-8.5.8-11.1,2.7c-2.9,1.9-4.2,4.8-4.2,8.2,0,5,2.7,8.7,8,11.4,5.3,2.9,13.8,5.8,25.2,9,13,3.7,23.9,7.4,32.3,11.1,8.5,4,15.9,9.8,22.3,17.5,6.1,7.7,9.3,18,9.3,30.8s-3.4,23.9-10.1,32.6c-6.9,9-16.2,15.6-27.6,20.1-11.7,4.5-24.7,6.6-39,6.6s-31.8-2.7-47.7-8.2c-16.2-5.3-30-12.7-41.6-22l20.7-41.9c9.3,8.2,20.9,14.8,34.5,20.4,13.5,5.6,24.9,8.5,34.7,8.5s10.6-1.1,14.1-3.4,5-5.6,5-9.8-2.7-9-8.2-11.9c-5.6-2.7-14.1-5.6-25.4-8.5-13-3.4-23.6-6.9-32.1-10.6-8.5-3.4-15.9-9-22-16.7-6.1-7.7-9.3-17.5-9.3-30s3.2-22.5,9.5-31.5c6.4-8.7,15.4-15.6,27-20.4,11.4-4.8,24.9-7.2,40.3-7.2s27.8,1.9,41.6,5.8,25.7,9.3,36.1,15.9l-20.4,42.4h0Z"/>
        <path class="cls-12" d="M1403.5,695.5c-1.8-8.4-4.5-16.5-8-24.1l4.5-14.8-17-25.3-12.2,4.9c-6.4-6.2-13.7-11.6-21.7-16l-6.6-20.6-33.2-10.3-6,19.1c-52.1.5-98.6,46.1-95.4,113.5,0,2,.2,3.9.4,5.9-.3-70.8,56.7-114.1,112.7-101.7,43.9,9.7,74.2,52.3,76.4,97s-24,90.2-66.7,104.4c-5.3,1.8-10.7,3-16.1,3.7l7.2,17.2,32.1-12.2,4.6-20.9c7.5-4.8,14.3-10.7,20.1-17.2l12.7,4.2,14.5-26.2-5.9-14.5c2.7-7.8,4.6-16,5.7-24.4l10.4-6.6-1.4-28.9-11-6h0Z"/>
        <path class="cls-12" d="M1290.4,694c4.3-3.2,9.5-5.1,15.1-5.2,16.6-.5,30.8,14.4,31.7,33.2.8,16.3-8.6,30.1-21.9,33.9,8.5-6.2,13.9-17.2,13.3-29.7-.9-18.8-15.1-33.7-31.7-33.2-2.2,0-4.4.4-6.5,1h0ZM1345,721.8c-1.2-25.3-20.3-45.4-42.7-44.7-22.4.7-39.5,21.7-38.3,47.1s20.3,45.4,42.7,44.7c22.4-.7,39.5-21.7,38.3-47.1h0Z"/>
        <path class="cls-12" d="M1307.7,789.7c-32.5.9-60.3-28.2-62.1-65s23.2-67.5,55.7-68.4c32.5-.9,60.4,28.2,62.1,65,1.8,36.9-23.2,67.5-55.7,68.4ZM1300.5,638.6c-41.1,1.2-72.7,39.9-70.4,86.5,2.2,46.6,37.4,83.4,78.5,82.2,41.1-1.2,72.7-39.9,70.4-86.5-2.2-46.6-37.4-83.4-78.5-82.2h0Z"/>
        <path class="cls-12" d="M137,863.4h-27.3l-2.3,11.1h24.6l-1.9,9.5h-24.6l-2.3,11.2h28l-1.8,9.6h-39.6l10.2-50.9h38.8l-1.9,9.5ZM154.5,905.3c-3.6,0-7.1-.7-10.5-2-3.4-1.4-6.3-3.2-8.4-5.5l4.7-6.9c1.8,1.8,4,3.3,6.5,4.4,2.5,1.2,4.9,1.7,7,1.7s2.8-.3,3.7-.9c.9-.7,1.4-1.5,1.4-2.5s-.5-1.7-1.5-2.4-2.5-1.4-4.7-2.2c-2.3-.9-4.1-1.8-5.6-2.6-1.5-.8-2.8-1.9-3.9-3.3-1.1-1.4-1.6-3.2-1.6-5.3s.7-4.6,1.9-6.5,3.1-3.3,5.3-4.4c2.3-1,4.9-1.5,7.9-1.5s6.1.5,9.2,1.6,5.7,2.6,8,4.5l-5.1,7c-2-1.5-4.1-2.7-6.3-3.6-2.2-.9-4.1-1.3-5.7-1.3s-2.3.3-3.2.9c-.9.7-1.3,1.4-1.3,2.3s.5,1.7,1.5,2.3c1,.7,2.5,1.4,4.7,2.2,2.3.9,4.2,1.9,5.7,2.7,1.5.8,2.8,2,3.9,3.4,1.1,1.5,1.7,3.3,1.7,5.5s-.7,4.6-2,6.5c-1.3,1.9-3.1,3.3-5.5,4.4-2.4,1.1-5.1,1.6-8.1,1.6h0ZM206.2,865.3c3.1,0,5.7.7,8.1,2.2,2.3,1.5,4.1,3.5,5.5,6.1,1.3,2.6,2,5.6,2,9s-.9,8.1-2.8,11.5c-1.8,3.5-4.4,6.3-7.5,8.2-3.2,2-6.8,3-10.6,3s-5.7-.7-7.9-2c-2.2-1.2-3.8-3.1-4.9-5.5l-4.3,21.2h-11.1l10.6-53.2h11.1l-1,5c1.7-1.7,3.6-3.1,5.8-4.1s4.5-1.4,6.9-1.4h0ZM202,874.1c-2.1,0-4,.6-5.7,1.7-1.7,1.1-3.1,2.6-4.1,4.5s-1.5,4-1.5,6.3.8,4.9,2.3,6.6,3.6,2.5,6.2,2.5,3.9-.6,5.7-1.7c1.7-1.1,3.1-2.6,4.1-4.6,1-1.9,1.5-4,1.5-6.3s-.8-4.9-2.3-6.6c-1.5-1.7-3.6-2.5-6.2-2.5ZM248.1,865.3c3.7,0,7,.7,9.7,2.1,2.7,1.5,4.8,3.5,6.3,6,1.5,2.6,2.2,5.7,2.2,9.1s-.2,4-.7,6.1h-28.7c.2,2.5,1.2,4.4,2.8,5.8,1.7,1.4,3.9,2.1,6.7,2.1s3.4-.3,5.1-.9c1.7-.6,3.1-1.4,4.5-2.5l5.5,6.4c-4.1,3.7-9.3,5.6-15.4,5.6s-7.6-.7-10.6-2.2c-3.1-1.5-5.4-3.6-7.1-6.3-1.7-2.7-2.5-5.7-2.5-9.3s.9-7.9,2.9-11.3c1.9-3.4,4.5-6,7.9-8,3.3-1.9,7.1-2.8,11.3-2.8h0ZM256,882.1c.2-2.5-.4-4.6-1.7-6.1s-3.2-2.3-5.7-2.3-4.6.7-6.5,2.3c-2,1.5-3.3,3.6-4.2,6.1h18.2ZM288.5,905.3c-3.6,0-6.8-.7-9.5-2.3-2.8-1.5-4.9-3.6-6.3-6.3-1.5-2.7-2.3-5.8-2.3-9.4s.9-8.1,2.8-11.4,4.5-6,7.9-7.9c3.3-1.8,7.1-2.8,11.4-2.8s7,.7,9.7,2.1c2.8,1.5,4.9,3.5,6.4,6.1l-8.1,5.5c-.9-1.4-2.1-2.4-3.6-3.1-1.5-.7-3.1-1.1-4.9-1.1s-3.8.5-5.3,1.5c-1.6,1-2.8,2.4-3.8,4.2-.9,1.8-1.4,3.9-1.4,6.1s.7,5.1,2.3,6.8c1.5,1.7,3.5,2.6,6,2.6,4.1,0,7.3-1.5,9.5-4.6l7.2,5.2c-1.9,2.8-4.4,4.9-7.5,6.4-3.1,1.5-6.7,2.3-10.7,2.3h0ZM331.1,865.7l-7.8,39.1h-11.1l7.8-39.1h11.1ZM328.8,848.3c1.5,0,2.8.4,3.7,1.4.9.9,1.4,2.2,1.4,3.7s-.7,3.9-2.2,5.2c-1.5,1.5-3.2,2.2-5.2,2.2s-2.7-.5-3.6-1.5c-.9-.9-1.4-2.2-1.4-3.7s.7-3.9,2.2-5.2c1.4-1.4,3.1-2.1,5.2-2.1h0ZM350.2,905.3c-3.1,0-5.7-.7-8.1-2.2-2.4-1.5-4.2-3.5-5.5-6.1-1.3-2.6-2-5.6-2-9s.9-8.1,2.8-11.6c1.8-3.4,4.3-6.2,7.5-8.1,3.2-2,6.8-3,10.6-3s5.7.7,7.9,1.9c2.1,1.3,3.8,3.2,4.9,5.7l1.4-7.1h11.1l-7.8,39.1h-11.1l1.1-4.9c-3.6,3.6-7.9,5.4-12.7,5.4h0ZM354.4,896.5c2,0,3.9-.6,5.7-1.7,1.7-1.1,3.1-2.6,4.1-4.6,1-1.9,1.5-4,1.5-6.3s-.8-4.9-2.3-6.6c-1.5-1.7-3.6-2.5-6.2-2.5s-3.9.6-5.7,1.7c-1.7,1.1-3.1,2.6-4.1,4.5-1,2-1.5,4-1.5,6.3s.8,5,2.3,6.7c1.5,1.7,3.6,2.5,6.2,2.5h0ZM406.2,850.9l-10.8,54h-11.2l10.8-54h11.2ZM425.5,865.7l-7.8,39.1h-11.1l7.8-39.1h11.1ZM423.3,848.3c1.5,0,2.8.4,3.7,1.4.9.9,1.4,2.2,1.4,3.7s-.7,3.9-2.2,5.2c-1.5,1.5-3.2,2.2-5.2,2.2s-2.7-.5-3.6-1.5c-.9-.9-1.4-2.2-1.4-3.7s.7-3.9,2.2-5.2c1.4-1.4,3.1-2.1,5.2-2.1h0ZM467.9,865.8l-1.2,7.1-24.9,23.2h20.8l-1.7,8.9h-34.8c0,0,1.2-7.1,1.2-7.1l24.9-23.2h-19.3c0,0,1.6-8.9,1.6-8.9h33.5c0,0,0,0,0,0Z"/>
        <path class="cls-12" d="M484.3,905.3c-3.1,0-5.7-.7-8.1-2.2-2.4-1.5-4.2-3.5-5.5-6.1-1.3-2.6-2-5.6-2-9s.9-8.1,2.8-11.6c1.8-3.4,4.3-6.2,7.5-8.1,3.2-2,6.8-3,10.6-3s5.7.7,7.9,1.9c2.1,1.3,3.8,3.2,4.9,5.7l1.4-7.1h11.1l-7.8,39.1h-11.1l1.1-4.9c-3.6,3.6-7.9,5.4-12.7,5.4h0ZM488.5,896.5c2,0,3.9-.6,5.7-1.7,1.7-1.1,3.1-2.6,4.1-4.6,1-1.9,1.5-4,1.5-6.3s-.8-4.9-2.3-6.6c-1.5-1.7-3.6-2.5-6.2-2.5s-3.9.6-5.7,1.7c-1.7,1.1-3.1,2.6-4.1,4.5-1,2-1.5,4-1.5,6.3s.8,5,2.3,6.7c1.5,1.7,3.6,2.5,6.2,2.5h0ZM534.1,905.3c-3.1,0-5.7-.7-8.1-2.2-2.4-1.5-4.2-3.5-5.5-6.1-1.3-2.6-2-5.6-2-9s.9-8.1,2.8-11.6c1.8-3.4,4.3-6.2,7.5-8.1,3.2-2,6.8-3,10.6-3s5.7.7,7.9,1.9c2.1,1.3,3.8,3.2,4.9,5.7l4.4-22h11.1l-10.8,54h-11.1l1.1-4.9c-3.6,3.6-7.9,5.4-12.7,5.4h0ZM538.3,896.5c2,0,3.9-.6,5.7-1.7,1.7-1.1,3.1-2.6,4.1-4.6,1-1.9,1.5-4,1.5-6.3s-.8-4.9-2.3-6.6c-1.5-1.7-3.6-2.5-6.2-2.5s-3.9.6-5.7,1.7c-1.7,1.1-3.1,2.6-4.1,4.5-1,2-1.5,4-1.5,6.3s.8,5,2.3,6.7c1.5,1.7,3.6,2.5,6.2,2.5h0ZM591.8,865.3c3.9,0,7.3.7,10.2,2.3,2.8,1.5,5.1,3.6,6.6,6.3,1.5,2.7,2.3,5.9,2.3,9.5s-1,8.1-3,11.4-4.7,6-8.2,7.8c-3.5,1.8-7.5,2.8-11.9,2.8s-7.2-.7-10.1-2.3-5.2-3.6-6.7-6.3c-1.5-2.7-2.3-5.9-2.3-9.5s1-8.1,3-11.4c2-3.3,4.7-5.9,8.2-7.7,3.5-1.8,7.5-2.8,11.9-2.8h0ZM590.9,874.6c-2.1,0-3.9.5-5.6,1.5-1.7,1-2.9,2.4-3.9,4.2-.9,1.8-1.5,3.9-1.5,6.3s.8,5.2,2.3,6.9c1.5,1.7,3.6,2.6,6.3,2.6s3.9-.5,5.6-1.5c1.7-1,3-2.5,3.9-4.3.9-1.8,1.4-3.9,1.4-6.2s-.8-5.2-2.3-6.9c-1.6-1.7-3.7-2.6-6.3-2.6h0ZM654.4,865.3c3.7,0,7,.7,9.7,2.1,2.7,1.5,4.8,3.5,6.3,6,1.5,2.6,2.2,5.7,2.2,9.1s-.2,4-.7,6.1h-28.7c.2,2.5,1.2,4.4,2.8,5.8,1.7,1.4,3.9,2.1,6.7,2.1s3.4-.3,5.1-.9c1.7-.6,3.1-1.4,4.5-2.5l5.5,6.4c-4.1,3.7-9.3,5.6-15.4,5.6s-7.6-.7-10.6-2.2c-3.1-1.5-5.4-3.6-7.1-6.3-1.7-2.7-2.5-5.7-2.5-9.3s.9-7.9,2.9-11.3c1.9-3.4,4.5-6,7.9-8,3.3-1.9,7.1-2.8,11.3-2.8h0ZM662.2,882.1c.2-2.5-.4-4.6-1.7-6.1s-3.2-2.3-5.7-2.3-4.6.7-6.5,2.3-3.3,3.6-4.2,6.1h18.2ZM734.3,865.2c4.3,0,7.6,1.2,10.1,3.4,2.5,2.3,3.7,5.4,3.7,9.2s-.1,2.5-.4,3.9l-4.6,23.1h-11.2l4.3-21.5c.1-.7.2-1.5.2-2.1,0-2-.6-3.5-1.8-4.7-1.2-1.1-2.8-1.7-4.9-1.7s-4.7.9-6.5,2.6c-2,1.8-3.2,4.1-3.8,7l-4.1,20.3h-11.1l4.2-21.5c.1-.7.2-1.5.2-2.1,0-2-.6-3.5-1.7-4.7-1.2-1.1-2.9-1.7-5-1.7s-4.7.9-6.5,2.6c-2,1.8-3.2,4.1-3.8,7l-4.1,20.3h-11.2l7.7-39.1h11.3l-1.1,5.4c3.2-3.9,7.3-5.9,12.4-5.9s6.3.7,8.7,2.3c2.3,1.5,3.8,3.7,4.6,6.4,3.8-5.7,8.7-8.7,14.6-8.7h0ZM797.5,859.6c-1.5,0-2.8.4-4.1,1.4-1.2.9-2,2.1-2.3,3.6l-.6,2.8h9.2l-1.5,7.8h-9.3l-6,29.6h-11.1l6-29.6h-5.2l1.5-7.8h5.3l.8-4.1c.8-4.2,2.8-7.4,5.8-9.7,3-2.2,6.5-3.3,10.5-3.3s5.6.6,8,1.7l-3,8.5c-.6-.3-1.2-.5-2-.7-.8-.2-1.5-.3-2-.3h0ZM814.5,872.2c1.7-2.3,3.8-4,6.2-5.2,2.4-1.2,4.9-1.7,7.8-1.8l-1.3,10.5c-.4,0-.8,0-1.5,0-3.4,0-6.5.9-9,2.9-2.5,2-4.2,4.5-4.9,7.5l-3.7,18.8h-11.2l7.8-39.1h11.2l-1.3,6.5h0ZM850.2,865.3c3.7,0,7,.7,9.7,2.1,2.7,1.5,4.8,3.5,6.3,6,1.5,2.6,2.2,5.7,2.2,9.1s-.2,4-.7,6.1h-28.7c.2,2.5,1.2,4.4,2.8,5.8,1.7,1.4,3.9,2.1,6.7,2.1s3.4-.3,5.1-.9c1.7-.6,3.1-1.4,4.5-2.5l5.5,6.4c-4.1,3.7-9.3,5.6-15.4,5.6s-7.6-.7-10.6-2.2c-3.1-1.5-5.4-3.6-7.1-6.3-1.7-2.7-2.5-5.7-2.5-9.3s.9-7.9,2.9-11.3c1.9-3.4,4.5-6,7.9-8,3.3-1.9,7.1-2.8,11.3-2.8h0ZM858,882.1c.2-2.5-.4-4.6-1.7-6.1s-3.2-2.3-5.7-2.3-4.6.7-6.5,2.3-3.3,3.6-4.2,6.1h18.2ZM890.8,865.7l-7.8,39.1h-11.1l7.8-39.1h11.1ZM888.5,848.3c1.5,0,2.8.4,3.7,1.4.9.9,1.4,2.2,1.4,3.7s-.7,3.9-2.2,5.2c-1.5,1.5-3.2,2.2-5.2,2.2s-2.7-.5-3.6-1.5c-.9-.9-1.4-2.2-1.4-3.7s.7-3.9,2.2-5.2c1.4-1.4,3.1-2.1,5.2-2.1h0ZM917.5,865.3c3.9,0,7.3.7,10.2,2.3,2.8,1.5,5.1,3.6,6.6,6.3,1.5,2.7,2.3,5.9,2.3,9.5s-1,8.1-3,11.4-4.7,6-8.2,7.8c-3.5,1.8-7.5,2.8-11.9,2.8s-7.2-.7-10.1-2.3-5.2-3.6-6.7-6.3c-1.5-2.7-2.3-5.9-2.3-9.5s1-8.1,3-11.4c2-3.3,4.7-5.9,8.2-7.7,3.5-1.8,7.5-2.8,11.9-2.8h0ZM916.6,874.6c-2.1,0-3.9.5-5.6,1.5-1.7,1-2.9,2.4-3.9,4.2-.9,1.8-1.5,3.9-1.5,6.3s.8,5.2,2.3,6.9c1.5,1.7,3.6,2.6,6.3,2.6s3.9-.5,5.6-1.5c1.7-1,3-2.5,3.9-4.3.9-1.8,1.4-3.9,1.4-6.2s-.8-5.2-2.3-6.9c-1.6-1.7-3.7-2.6-6.3-2.6h0ZM956.4,905.3c-3.6,0-7.1-.7-10.5-2-3.4-1.4-6.3-3.2-8.4-5.5l4.7-6.9c1.8,1.8,4,3.3,6.5,4.4,2.5,1.2,4.9,1.7,7,1.7s2.8-.3,3.7-.9c.9-.7,1.4-1.5,1.4-2.5s-.5-1.7-1.5-2.4-2.5-1.4-4.7-2.2c-2.3-.9-4.1-1.8-5.6-2.6-1.5-.8-2.8-1.9-3.9-3.3-1.1-1.4-1.6-3.2-1.6-5.3s.7-4.6,1.9-6.5,3.1-3.3,5.3-4.4c2.3-1,4.9-1.5,7.9-1.5s6.1.5,9.2,1.6c3.1,1.1,5.7,2.6,8,4.5l-5.1,7c-2-1.5-4.1-2.7-6.3-3.6-2.2-.9-4.1-1.3-5.7-1.3s-2.3.3-3.2.9c-.9.7-1.3,1.4-1.3,2.3s.5,1.7,1.5,2.3c1,.7,2.5,1.4,4.7,2.2,2.3.9,4.2,1.9,5.7,2.7,1.5.8,2.8,2,3.9,3.4,1.1,1.5,1.7,3.3,1.7,5.5s-.7,4.6-2,6.5c-1.3,1.9-3.1,3.3-5.5,4.4-2.4,1.1-5.1,1.6-8.1,1.6h0ZM1010.3,905.3c-3.1,0-5.7-.7-8.1-2.2-2.4-1.5-4.2-3.5-5.5-6.1-1.3-2.6-2-5.6-2-9s.9-8.1,2.8-11.6c1.8-3.4,4.3-6.2,7.5-8.1,3.2-2,6.8-3,10.6-3s5.7.7,7.9,1.9c2.1,1.3,3.8,3.2,4.9,5.7l1.4-7.1h11.1l-7.8,39.1h-11.1l1.1-4.9c-3.6,3.6-7.9,5.4-12.7,5.4h0ZM1014.5,896.5c2,0,3.9-.6,5.7-1.7,1.7-1.1,3.1-2.6,4.1-4.6,1-1.9,1.5-4,1.5-6.3s-.8-4.9-2.3-6.6c-1.5-1.7-3.6-2.5-6.2-2.5s-3.9.6-5.7,1.7c-1.7,1.1-3.1,2.6-4.1,4.5-1,2-1.5,4-1.5,6.3s.8,5,2.3,6.7c1.5,1.7,3.6,2.5,6.2,2.5h0ZM1098.6,904.8l-2.3-9.9h-23.6l-5.6,9.9h-11.9l30.5-50.9h11.8l13.4,50.9h-12.4ZM1078,885.7h16.1l-4.7-20.1-11.4,20.1ZM1133.8,872.2c1.7-2.3,3.8-4,6.2-5.2,2.4-1.2,4.9-1.7,7.8-1.8l-1.3,10.5c-.4,0-.8,0-1.5,0-3.4,0-6.5.9-9,2.9-2.5,2-4.2,4.5-4.9,7.5l-3.7,18.8h-11.2l7.8-39.1h11.2l-1.3,6.5h0ZM1186.6,865.3c3.7,0,7,.7,9.7,2.1,2.7,1.5,4.8,3.5,6.3,6,1.5,2.6,2.2,5.7,2.2,9.1s-.2,4-.7,6.1h-28.7c.2,2.5,1.2,4.4,2.8,5.8,1.7,1.4,3.9,2.1,6.7,2.1s3.4-.3,5.1-.9c1.7-.6,3.1-1.4,4.5-2.5l5.5,6.4c-4.1,3.7-9.3,5.6-15.4,5.6s-7.6-.7-10.6-2.2c-3.1-1.5-5.4-3.6-7.1-6.3-1.7-2.7-2.5-5.7-2.5-9.3s.9-7.9,2.9-11.3c1.9-3.4,4.5-6,7.9-8,3.3-1.9,7.1-2.8,11.3-2.8h0ZM1194.4,882.1c.2-2.5-.4-4.6-1.7-6.1s-3.2-2.3-5.7-2.3-4.6.7-6.5,2.3-3.3,3.6-4.2,6.1h18.2ZM1266.5,865.2c4.3,0,7.6,1.2,10.1,3.4,2.5,2.3,3.7,5.4,3.7,9.2s-.1,2.5-.4,3.9l-4.6,23.1h-11.2l4.3-21.5c.1-.7.2-1.5.2-2.1,0-2-.6-3.5-1.8-4.7-1.2-1.1-2.8-1.7-4.9-1.7s-4.7.9-6.5,2.6c-2,1.8-3.2,4.1-3.8,7l-4.1,20.3h-11.1l4.2-21.5c.1-.7.2-1.5.2-2.1,0-2-.6-3.5-1.7-4.7-1.2-1.1-2.9-1.7-5-1.7s-4.7.9-6.5,2.6c-2,1.8-3.2,4.1-3.8,7l-4.1,20.3h-11.2l7.7-39.1h11.3l-1.1,5.4c3.2-3.9,7.3-5.9,12.4-5.9s6.3.7,8.7,2.3c2.3,1.5,3.8,3.7,4.6,6.4,3.8-5.7,8.7-8.7,14.6-8.7h0ZM1316.3,919.4c-6.2,0-11.8-1.8-16.9-5.4l4.8-7.4c1.6,1.2,3.4,2.1,5.5,2.8,2,.7,4.1.9,6.3.9,3.3,0,6-.7,8.1-2.1,2.1-1.4,3.4-3.4,4.1-6.1l.9-4c-3.4,3.1-7.3,4.7-11.8,4.7s-5.4-.7-7.6-2-3.9-3.3-5.2-5.7c-1.2-2.4-1.8-5.2-1.8-8.4s.9-7.6,2.6-10.9c1.7-3.3,4.1-5.8,7.1-7.7,3-1.9,6.3-2.8,10-2.8s5.3.6,7.3,1.7c2,1.2,3.5,2.8,4.5,5.1l1.3-6.4h11.1l-7.6,37.4c-1.1,5.2-3.6,9.2-7.6,12.1s-9.1,4.2-15.3,4.2h0ZM1321.7,893.9c1.8,0,3.6-.5,5.2-1.5,1.5-.9,2.8-2.3,3.7-4,.9-1.7,1.4-3.5,1.4-5.5s-.7-4.4-2.1-6c-1.4-1.5-3.3-2.2-5.6-2.2s-3.6.5-5.1,1.5c-1.5,1-2.8,2.4-3.7,4.1-.9,1.7-1.4,3.6-1.4,5.7s.7,4.4,2.1,5.7c1.4,1.4,3.2,2.1,5.5,2.1h0ZM1372,865.3c3.7,0,7,.7,9.7,2.1,2.7,1.5,4.8,3.5,6.3,6,1.5,2.6,2.2,5.7,2.2,9.1s-.2,4-.7,6.1h-28.7c.2,2.5,1.2,4.4,2.8,5.8,1.7,1.4,3.9,2.1,6.7,2.1s3.4-.3,5.1-.9c1.7-.6,3.1-1.4,4.5-2.5l5.5,6.4c-4.1,3.7-9.3,5.6-15.4,5.6s-7.6-.7-10.6-2.2c-3.1-1.5-5.4-3.6-7.1-6.3-1.7-2.7-2.5-5.7-2.5-9.3s.9-7.9,2.9-11.3c1.9-3.4,4.5-6,7.9-8,3.3-1.9,7.1-2.8,11.3-2.8h0ZM1379.9,882.1c.2-2.5-.4-4.6-1.7-6.1s-3.2-2.3-5.7-2.3-4.6.7-6.5,2.3-3.3,3.6-4.2,6.1h18.2,0ZM1411.4,872.2c1.7-2.3,3.8-4,6.2-5.2,2.4-1.2,4.9-1.7,7.8-1.8l-1.3,10.5c-.4,0-.8,0-1.5,0-3.4,0-6.5.9-9,2.9-2.5,2-4.2,4.5-4.9,7.5l-3.7,18.8h-11.2l7.8-39.1h11.2l-1.3,6.5h0ZM1440.4,905.3c-3.1,0-5.7-.7-8.1-2.2-2.4-1.5-4.2-3.5-5.5-6.1-1.3-2.6-2-5.6-2-9s.9-8.1,2.8-11.6c1.8-3.4,4.3-6.2,7.5-8.1,3.2-2,6.8-3,10.6-3s5.7.7,7.9,1.9c2.1,1.3,3.8,3.2,4.9,5.7l1.4-7.1h11.1l-7.8,39.1h-11.1l1.1-4.9c-3.6,3.6-7.9,5.4-12.7,5.4h0ZM1444.6,896.5c2,0,3.9-.6,5.7-1.7,1.7-1.1,3.1-2.6,4.1-4.6,1-1.9,1.5-4,1.5-6.3s-.8-4.9-2.3-6.6c-1.5-1.7-3.6-2.5-6.2-2.5s-3.9.6-5.7,1.7-3.1,2.6-4.1,4.5c-1,2-1.5,4-1.5,6.3s.8,5,2.3,6.7c1.5,1.7,3.6,2.5,6.2,2.5h0ZM1496.4,850.9l-10.8,54h-11.2l10.8-54h11.2Z"/>
        <polygon class="cls-12" points="1128.8 258.2 902.5 258.2 902.5 190 1153.1 190 1128.8 258.2"/>
        <polygon class="cls-12" points="1091.9 338.3 865.6 338.3 865.6 270.1 1116.2 270.1 1091.9 338.3"/>
        <polygon class="cls-12" points="1052.2 421.8 825.9 421.8 825.9 353.6 1076.6 353.6 1052.2 421.8"/>
        <polygon class="cls-12" points="457.6 258.2 683.9 258.2 683.9 190 433.2 190 457.6 258.2"/>
        <polygon class="cls-12" points="494.5 338.3 720.8 338.3 720.8 270.1 470.1 270.1 494.5 338.3"/>
        <polygon class="cls-12" points="534.2 421.8 760.5 421.8 760.5 353.6 509.8 353.6 534.2 421.8"/>
        <path class="cls-13" d="M599.2,244.8c-2.3,0-4.2-1.9-4.2-4.2v-55c0-2.3,1.9-4.2,4.2-4.2h25.6c2.3,0,4.2,1.9,4.2,4.2v55c0,2.3-1.9,4.2-4.2,4.2h-25.6Z"/>
        <path class="cls-13" d="M624.8,177.2h-25.6c-4.6,0-8.4,3.8-8.4,8.4v55c0,4.6,3.7,8.4,8.4,8.4h25.6c4.6,0,8.4-3.7,8.4-8.4v-55c0-4.6-3.7-8.4-8.4-8.4h0ZM624.8,185.6v55h-25.6v-55h25.6Z"/>
        <path class="cls-13" d="M969.3,244.8c-2.3,0-4.2-1.9-4.2-4.2v-55c0-2.3,1.9-4.2,4.2-4.2h25.6c2.3,0,4.2,1.9,4.2,4.2v55c0,2.3-1.9,4.2-4.2,4.2h-25.6Z"/>
        <path class="cls-13" d="M994.9,177.2h-25.6c-4.6,0-8.4,3.8-8.4,8.4v55c0,4.6,3.8,8.4,8.4,8.4h25.6c4.6,0,8.4-3.7,8.4-8.4v-55c0-4.6-3.7-8.4-8.4-8.4h0ZM994.9,185.6v55h-25.6v-55h25.6Z"/>
        <path class="cls-13" d="M793.2,568.9c39.8,0,79.4.2,117.9.7,0-.7-.1-1.3-.1-2v-28.6h-235.5v28.6c0,.7,0,1.3-.1,2,38.4-.4,78-.7,117.9-.7h0ZM793.2,590.3c-84.5,0-164-.6-223.7-1.7-96.8-1.7-96.8-2.8-96.8-8.2s0-7.1,120.1-9.6c-.2-1.1-.3-2.2-.3-3.3v-28.6h-19.4c-2.3,0-4.2-1.9-4.2-4.2v-91c0-2.3,1.9-4.2,4.2-4.2h26.8l-6.9-74.6c-.1-1.2.3-2.3,1.1-3.2.8-.9,1.9-1.4,3.1-1.4h12.8v-89.8c0-2.3,1.9-4.2,4.2-4.2h8.9V8.4c0-2.3,1.9-4.2,4.2-4.2h45.7c2.3,0,4.2,1.9,4.2,4.2v99.5c3.5-9.3,6.1-16.3,6.1-16.3.6-1.6,2.1-2.7,3.8-2.7l13.4-.3v-12.5c0-2.3,1.9-4.2,4.2-4.2h27.3c2.3,0,4.2,1.9,4.2,4.2v11.7l57.4-1.3c.2,0,.5,0,.7,0s1.1,0,1.1,0c0,0,.9,0,1,0,.2,0,.5,0,.7,0l57.4,1.3v-11.7c0-2.3,1.9-4.2,4.2-4.2h27.3c2.3,0,4.2,1.9,4.2,4.2v12.5l13.4.3c1.7,0,3.2,1.1,3.8,2.7,0,.2,3.6,9.5,7.8,20.8V8.4c0-2.3,1.9-4.2,4.2-4.2h45.7c2.3,0,4.2,1.9,4.2,4.2v258.1h8.9c2.3,0,4.2,1.9,4.2,4.2v89.7h14c1.2.1,2.3.6,3.1,1.5s1.2,2,1.1,3.2l-6.9,74.6h19.8c2.3,0,4.2,1.9,4.2,4.2v91c0,2.3-1.9,4.2-4.2,4.2h-19.4v28.6c0,1.1-.1,2.2-.3,3.3,120.1,2.6,120.1,4.5,120.1,9.6s0,6.5-96.8,8.2c-59.8,1.1-139.2,1.7-223.7,1.7h0Z"/>
        <path class="cls-13" d="M679.6,543.2h227.1v22.1c-37.1-.4-75.2-.6-113.5-.6s-76.5.2-113.6.6v-22.1ZM965,0h-45.7c-4.6,0-8.4,3.8-8.4,8.4v81c-1.4-2.8-4.2-4.6-7.3-4.7l-9.3-.2v-8.4c0-4.6-3.8-8.4-8.4-8.4h-27.3c-4.6,0-8.4,3.8-8.4,8.4v7.4l-52.9-1.2c-.4,0-.7,0-1.1,0h-1.1s-.9,0-.9,0h-.2c-.4,0-.7,0-1.1,0l-52.8,1.2v-7.4c0-4.6-3.8-8.4-8.4-8.4h-27.3c-4.6,0-8.4,3.8-8.4,8.4v8.4l-9.3.2c-2.2,0-4.2.9-5.7,2.4V8.4C681.3,3.8,677.5,0,672.9,0h-45.7c-4.6,0-8.4,3.8-8.4,8.4v253.9h-4.7c-4.6,0-8.4,3.8-8.4,8.4v85.6h-8.6c-2.3,0-4.6,1.1-6.2,2.8-1.6,1.7-2.3,4.1-2.1,6.4l6.5,70h-22.2c-4.6,0-8.4,3.8-8.4,8.4v91c0,4.6,3.8,8.4,8.4,8.4h15.2v23.6c-31.8.7-58.8,1.6-78.6,2.5-10.8.5-19.1,1-24.9,1.5-8,.7-16.3,1.4-16.3,9.8s8.5,9,14.1,9.5c4.3.4,10.6.7,18.8,1.1,16,.7,38.9,1.3,68,1.8,59.8,1.1,139.3,1.7,223.8,1.7s164-.6,223.8-1.7c29.1-.5,52-1.1,68-1.8,8.2-.3,14.5-.7,18.8-1.1,5.6-.5,14.1-1.2,14.1-9.5s-8.3-9.1-16.3-9.8c-5.7-.5-14.1-1-24.9-1.5-19.8-.9-46.8-1.8-78.6-2.5v-23.6h15.2c4.6,0,8.4-3.8,8.4-8.4v-91c0-4.6-3.8-8.4-8.4-8.4h-15.2l6.5-70c.2-2.3-.6-4.7-2.1-6.4-1.6-1.7-3.8-2.7-6.2-2.8h-9.8v-85.6c0-4.6-3.8-8.4-8.4-8.4h-4.7V8.4c0-4.6-3.8-8.4-8.4-8.4h0ZM669.7,573.8c38-.5,79.7-.7,123.5-.7s85.6.3,123.5.7c-1-1.9-1.6-4-1.6-6.2v-32.8h-243.9v32.8c0,2.3-.6,4.4-1.6,6.2ZM965,8.4v262.3h13.1v93.9h18.1c0,.1-7.3,79.3-7.3,79.3h24.4v91h-23.6v32.8c0,2.7-.8,5.3-2.2,7.4,74.2,1.5,122,3.8,122,5.6,0,3.1-141.6,5.6-316.3,5.6s-316.3-2.5-316.3-5.6,47.8-4,122-5.6c-1.4-2.1-2.2-4.7-2.2-7.4v-32.8h-23.6v-91h31.4l-7.3-79.1h17v-94h13.1V8.4h45.7v122.9c6.3-17.1,14.2-38.2,14.2-38.2l17.5-.4v-16.6h27.3v15.9l62.3-1.4h0s1.1,0,1.1,0h1.1s0,0,0,0l62.3,1.4v-15.9h27.3v16.6l17.5.4s9.5,25,15.9,42.7V8.4h45.7Z"/>
        <polygon class="cls-13" points="627.2 306.6 672.9 306.6 672.9 8.4 627.2 8.4 627.2 306.6"/>
        <polygon class="cls-3" points="627.2 306.6 672.9 306.6 672.9 8.4 627.2 8.4 627.2 306.6"/>
        <polygon class="cls-1" points="665 14 632.8 14 632.8 327.6 652.4 327.6 653.3 27.5 665 14"/>
        <polygon class="cls-13" points="614.1 378.9 652.8 378.9 652.8 270.6 614.1 270.6 614.1 378.9"/>
        <polygon class="cls-7" points="614.1 378.9 652.8 378.9 652.8 270.6 614.1 270.6 614.1 378.9"/>
        <polygon class="cls-1" points="649.2 378.7 649.2 276.5 620.1 276.5 619.5 378.2 649.2 378.7"/>
        <polygon class="cls-13" points="919.3 306.6 965 306.6 965 8.4 919.3 8.4 919.3 306.6"/>
        <polygon class="cls-3" points="919.3 306.6 965 306.6 965 8.4 919.3 8.4 919.3 306.6"/>
        <polygon class="cls-1" points="927.2 14 959.4 14 959.4 327.6 939.8 327.6 938.9 27.5 927.2 14"/>
        <polygon class="cls-13" points="939.4 378.9 978.1 378.9 978.1 270.6 939.4 270.6 939.4 378.9"/>
        <polygon class="cls-7" points="939.4 378.9 978.1 378.9 978.1 270.6 939.4 270.6 939.4 378.9"/>
        <polygon class="cls-1" points="943 378.7 943 276.5 972.1 276.5 972.7 378.2 943 378.7"/>
        <polygon class="cls-13" points="858.6 101.9 885.9 101.9 885.9 76.1 858.6 76.1 858.6 101.9"/>
        <polygon class="cls-7" points="858.6 101.9 885.9 101.9 885.9 76.1 858.6 76.1 858.6 101.9"/>
        <polygon class="cls-1" points="865.1 81 880.9 81 880.9 97.2 869.6 97.2 865.1 81"/>
        <polygon class="cls-13" points="704.6 101.9 731.9 101.9 731.9 76.1 704.6 76.1 704.6 101.9"/>
        <polygon class="cls-7" points="704.6 101.9 731.9 101.9 731.9 76.1 704.6 76.1 704.6 101.9"/>
        <polygon class="cls-1" points="725.5 81 709.6 81 709.6 97.2 720.9 97.2 725.5 81"/>
        <path class="cls-13" d="M903.4,93.1l-107.1-2.4h0s-1.1,0-1.1,0h-1.1s0,0,0,0l-107.1,2.4s-22.8,60.2-21.7,59.9c1-.3,117.5,1.2,129.8.5,12.3.7,128.8-.8,129.8-.5,1.1.4-21.7-59.9-21.7-59.9Z"/>
        <path class="cls-3" d="M903.4,93.1l-107.1-2.4h0s-1.1,0-1.1,0h-1.1s0,0,0,0l-107.1,2.4s-22.8,60.2-21.7,59.9c1-.3,117.5,1.2,129.8.5,12.3.7,128.8-.8,129.8-.5,1.1.4-21.7-59.9-21.7-59.9h0Z"/>
        <path class="cls-1" d="M680.1,140.3v-10.5l13.7-30.1s49-6.3,98.7,39.9c0,0-112.9.2-112.4.7h0Z"/>
        <path class="cls-1" d="M909.6,140.3v-10.5l-13.7-30.1s-49-6.3-98.7,39.9c0,0,112.9.2,112.3.7h0Z"/>
        <path class="cls-13" d="M761.3,109.9c0,3.6-9.8,6.6-21.9,6.6s-21.9-2.9-21.9-6.6,9.8-6.6,21.9-6.6,21.9,2.9,21.9,6.6Z"/>
        <path class="cls-1" d="M657.7,581.1h-47.6c-7.5,0-13.5-6.1-13.5-13.5v-49.9h74.6v49.9c0,7.5-6.1,13.5-13.5,13.5Z"/>
        <path class="cls-13" d="M603.7,519.4v45s-.2,12.9,10.7,12.9h37.6l-37.5-2.1s-8.9-3-9.1-11.4l-1.8-44.5h0Z"/>
        <path class="cls-1" d="M976.2,581.1h-47.6c-7.5,0-13.5-6.1-13.5-13.5v-49.9h74.6v49.9c0,7.5-6.1,13.5-13.5,13.5h0Z"/>
        <path class="cls-13" d="M922.2,519.4v45s-.2,12.9,10.7,12.9h37.6l-37.4-2.1s-8.9-3-9.1-11.4l-1.7-44.5h0Z"/>
        <polygon class="cls-13" points="647.2 389.6 945.9 389.6 945.9 146.5 647.2 146.5 647.2 389.6"/>
        <polygon class="cls-2" points="647.2 389.6 945.9 389.6 945.9 146.5 647.2 146.5 647.2 389.6"/>
        <path class="cls-13" d="M666.4,371v-131.4h260.6v130.4l-260.6.9Z"/>
        <path class="cls-4" d="M666.4,371v-131.4h260.6v130.4l-260.6.9Z"/>
        <polygon class="cls-13" points="691 451.2 605.2 451.2 597.1 364.6 691 364 691 451.2"/>
        <polygon class="cls-2" points="691 451.2 605.1 451.2 597.1 364.6 691 364 691 451.2"/>
        <polygon class="cls-1" points="683.1 443.8 682.6 396.4 603.7 369.8 691.5 369.8 683.1 443.8"/>
        <polygon class="cls-7" points="613.7 441.7 682.5 441.7 682.5 398 613.7 398 613.7 441.7"/>
        <line class="cls-7" x1="648.1" y1="397.9" x2="648.1" y2="441.9"/>
        <polygon class="cls-1" points="655.1 402.5 654.6 402.5 673.2 406.6 677.4 436 677.4 402.5 655.1 402.5"/>
        <polygon class="cls-1" points="620.2 402.5 619.7 402.5 638.3 406.6 642.5 436 642.5 402.5 620.2 402.5"/>
        <polygon class="cls-1" points="613.7 398 623.1 434.7 646.2 441.9 613.7 441.9 613.7 398"/>
        <polygon class="cls-1" points="648.8 398 658.3 434.7 681.4 441.9 648.8 441.9 648.8 398"/>
        <polygon class="cls-13" points="902.3 451.2 988.2 451.2 996.2 364.6 902.3 364 902.3 451.2"/>
        <polygon class="cls-2" points="902.3 451.2 988.2 451.2 996.2 364.6 902.3 364 902.3 451.2"/>
        <polygon class="cls-1" points="910.3 443.8 910.7 396.4 989.7 369.8 901.9 369.8 910.3 443.8"/>
        <polygon class="cls-7" points="910.9 441.7 979.7 441.7 979.7 398 910.9 398 910.9 441.7"/>
        <line class="cls-7" x1="945.3" y1="397.9" x2="945.3" y2="441.9"/>
        <polygon class="cls-1" points="938.3 402.5 938.7 402.5 920.2 406.6 916 436 916 402.5 938.3 402.5"/>
        <polygon class="cls-1" points="973.2 402.5 973.6 402.5 955.1 406.6 950.9 436 950.9 402.5 973.2 402.5"/>
        <polygon class="cls-1" points="979.7 398 970.2 434.7 947.1 441.9 979.7 441.9 979.7 398"/>
        <polygon class="cls-1" points="944.5 398 935.1 434.7 912 441.9 944.5 441.9 944.5 398"/>
        <polygon class="cls-1" points="791.8 225.7 656 225.7 656 168.4 791.8 160 791.8 225.7"/>
        <polygon class="cls-13" points="749.9 165.5 766.9 164.6 732.4 222.5 709.3 222.5 749.9 165.5"/>
        <polygon class="cls-13" points="719.1 167 736.1 166.1 697 222.5 673.9 222.5 719.1 167"/>
        <polygon class="cls-13" points="660.9 205.3 660.9 173.3 704.7 168.7 666.9 178.6 660.9 205.3"/>
        <polygon class="cls-1" points="801.6 225.7 937.4 225.7 937.4 168.4 801.6 160 801.6 225.7"/>
        <polygon class="cls-13" points="900.5 168.8 916.1 169.6 885.2 222.5 862.1 222.5 900.5 168.8"/>
        <polygon class="cls-13" points="871.7 167.4 887.3 168.1 849.9 222.5 826.8 222.5 871.7 167.4"/>
        <polygon class="cls-13" points="807.7 197.3 807.7 165.3 852 168.9 813.8 170.5 807.7 197.3"/>
        <polygon class="cls-1" points="656 225.7 937.4 225.7 923.7 239 669.6 239 656 225.7"/>
        <polygon class="cls-13" points="573 534.8 1013.3 534.8 1013.3 443.8 573 443.8 573 534.8"/>
        <polygon class="cls-3" points="573 534.8 1013.3 534.8 1013.3 443.8 573 443.8 573 534.8"/>
        <polygon class="cls-1" points="581.1 453.7 581.1 525.5 744.6 525.5 596.6 496.2 581.1 453.7"/>
        <polygon class="cls-1" points="1004.3 453.7 1004.3 525.5 840.8 525.5 988.8 496.2 1004.3 453.7"/>
        <polygon class="cls-1" points="581.1 449.6 998.4 449.6 793.8 481.1 581.1 449.6"/>
        <polygon class="cls-1" points="618.9 479.5 666.8 479.5 666.8 454.6 618.9 454.6 618.9 479.5"/>
        <polygon class="cls-1" points="914.6 479.5 962.6 479.5 962.6 454.6 914.6 454.6 914.6 479.5"/>
        <polygon class="cls-1" points="738.9 496.9 847.4 496.9 847.4 469.1 738.9 469.1 738.9 496.9"/>
        <polygon class="cls-13" points="746.7 474.3 841.6 474.3 841.6 492.2 834.1 478.1 746.7 474.3"/>
        <polygon class="cls-13" points="613.7 529.1 597.8 529.1 620.7 486.2 636.6 486.2 613.7 529.1"/>
        <polygon class="cls-13" points="634.8 529.1 618.9 529.1 641.8 486.2 657.7 486.2 634.8 529.1"/>
        <path class="cls-13" d="M919,476.5h40.5v-20.8l-9.2,16.8-31.3,4Z"/>
        <path class="cls-13" d="M664.1,476.5h-40.5v-20.8l9.2,16.8,31.3,4Z"/>
        <polygon class="cls-1" points="655.2 151.7 939.6 151.7 939.5 162 795.1 155.1 655.3 160.1 655.2 151.7"/>
        <line class="cls-6" x1="666.4" y1="239.6" x2="701.5" y2="288"/>
        <line class="cls-6" x1="927" y1="239.6" x2="890.5" y2="289.1"/>
        <polygon class="cls-1" points="672.6 257.9 692.6 289.3 685.2 358.9 673.3 358.9 672.6 257.9"/>
        <polygon class="cls-1" points="920.4 257.9 900.5 289.3 907.8 358.9 919.7 358.9 920.4 257.9"/>
        <path class="cls-13" d="M685.6,447l16.9-158.3,7.5-2.3,7-2.2c2.8-.9,5.6-1.7,8.4-2.5,3.1-.9,6.2-1.9,9.4-2.8,3.4-1,6.7-1.9,10.1-2.9,3.5-1,7-2,10.5-2.9,3.5-1,7.1-1.9,10.6-2.8,3.5-.9,6.9-1.8,10.4-2.6,3.3-.8,6.6-1.5,9.9-2.3,3-.6,6-1.3,9-1.8.5,0,1-.2,1.5-.2,0,0,.4,0,.4,0l2.1.4c1.5.3,3,.6,4.5.9,3.2.7,6.4,1.4,9.6,2.1,3.4.8,6.8,1.6,10.3,2.5,3.5.9,7,1.8,10.6,2.7,3.5.9,7.1,1.9,10.6,2.9,3.4,1,6.8,1.9,10.3,2.9,3.2.9,6.4,1.9,9.7,2.8,2.9.9,5.8,1.7,8.7,2.6l7.5,2.3,9.7,3.1,16.9,158.3h-222.1,0Z"/>
        <path class="cls-1" d="M796.8,259.3c-.8,0-1.5.1-2.2.2-3.1.6-6.1,1.2-9.2,1.8-3.3.7-6.7,1.5-10,2.3-3.5.8-7,1.7-10.5,2.6-3.6.9-7.1,1.9-10.7,2.8-3.5,1-7,1.9-10.5,2.9-3.4,1-6.8,1.9-10.1,2.9-3.1.9-6.3,1.8-9.4,2.8-2.8.8-5.6,1.7-8.4,2.5-2.4.7-4.7,1.4-7,2.2-1.8.6-3.6,1.1-5.4,1.7-1.2.4-2.3.7-3.5,1.1-.4.1-.8.3-1.2.4l-17.7,165.7h231.5l-17.7-165.7s0,0-.2,0c-.7-.2-1.4-.4-2-.7-1.4-.4-2.8-.9-4.2-1.3-2-.6-4-1.3-6-1.9-2.5-.8-5-1.5-7.5-2.3-2.9-.9-5.8-1.8-8.8-2.6-3.2-1-6.4-1.9-9.7-2.8-3.4-1-6.9-2-10.3-2.9-3.5-1-7.1-2-10.6-2.9-3.5-.9-7.1-1.9-10.6-2.8-3.4-.9-6.9-1.7-10.3-2.5-3.2-.8-6.5-1.5-9.7-2.1-1.5-.3-3-.6-4.5-.9-.7-.1-1.4-.3-2.2-.4-.4,0-.8,0-1.2,0h0ZM796.7,267.7l1.9.3c1.5.3,2.9.6,4.4.9,3.2.7,6.4,1.4,9.5,2.1,3.4.8,6.8,1.6,10.2,2.5,3.5.9,7,1.8,10.5,2.7,3.5.9,7,1.9,10.5,2.9,3.4,1,6.8,1.9,10.2,2.9,3.2.9,6.4,1.9,9.6,2.8,2.9.9,5.8,1.7,8.7,2.6,2.5.8,5,1.5,7.5,2.3,2,.6,4,1.2,6,1.9l1.1.4,16.2,150.9h-212.8l16.2-150.9c1.6-.5,3.2-1,4.8-1.5,2.3-.7,4.7-1.4,7-2.2,2.8-.8,5.6-1.7,8.3-2.5,3.1-.9,6.2-1.9,9.4-2.8,3.3-1,6.7-1.9,10.1-2.9,3.5-1,7-2,10.5-2.9,3.5-1,7-1.9,10.6-2.8,3.4-.9,6.9-1.7,10.3-2.6,3.3-.8,6.5-1.5,9.8-2.2,3.2-.7,6.2-1.3,8.9-1.8.4,0,.6,0,.7,0h0Z"/>
        <path class="cls-1" d="M796.5,294.7l13.8-4.7s8.5-16.2,12-25.1c-2.8-.7-5.7-1.4-8.5-2.1-3.2-.8-6.5-1.5-9.7-2.1-1.5-.3-3-.6-4.5-.9-.7-.1-1.4-.3-2.2-.4-1.1-.2-2.3,0-3.4.1-3.1.6-6.1,1.2-9.2,1.8-3.3.7-6.7,1.5-10,2.3-.7.2-1.5.4-2.2.6l8.9,25.3,15,5.3h0Z"/>
        <polygon class="cls-7" points="712.2 310.1 796.7 301.8 884.8 310.1 891.4 435.7 703.5 435.7 712.2 310.1"/>
        <polyline class="cls-8" points="712.2 328 798.5 321.3 884.6 328"/>
        <polyline class="cls-10" points="710.5 345.5 798.5 338.8 886.4 345.5"/>
        <polyline class="cls-5" points="709.6 363 798.5 356.3 887.2 363"/>
        <polyline class="cls-5" points="708.2 381.3 798.5 373.8 887.2 380.5"/>
        <polyline class="cls-11" points="707.4 398.3 797.2 391.5 888.1 398"/>
        <polyline class="cls-9" points="705.5 416 798.5 408.8 889.1 415.5"/>
        <polygon class="cls-13" points="797.6 289.8 807.4 286.3 815.8 272.5 797.4 268.8 797.6 289.8"/>
        <polygon class="cls-1" points="703.5 435.7 798.8 423 890.3 435.7 703.5 435.7"/>
        <polygon class="cls-1" points="714.3 327.8 797.6 309.4 881.1 327.3 798.5 321.3 714.3 327.8"/>
        <polygon class="cls-1" points="714.3 345.3 797.6 326.9 881.1 344.8 798.5 338.8 714.3 345.3"/>
        <polygon class="cls-1" points="714.3 362.8 797.6 344.4 881.1 362.3 798.5 356.3 714.3 362.8"/>
        <polygon class="cls-1" points="714.3 380.3 797.6 361.9 881.1 379.8 798.5 373.8 714.3 380.3"/>
        <polygon class="cls-1" points="714.3 397.8 797.6 379.4 881.1 397.3 798.5 391.3 714.3 397.8"/>
        <polygon class="cls-1" points="714.3 415.3 797.6 396.9 881.1 414.8 798.5 408.8 714.3 415.3"/>
        <polygon class="cls-1" points="881.6 294 818 272.8 808.4 289.5 796.5 294.7 881.6 294"/>
        <polygon class="cls-1" points="712.3 294 775.9 272.8 785.6 289.5 797.4 294.7 712.3 294"/>
        <polygon class="cls-1" points="911.1 244.7 681.6 244.7 700.3 275.1 793.3 252.9 885.5 275.8 911.1 244.7"/>
        <path class="cls-13" d="M796.9,245.9c0,1.9-19.6,3.4-43.9,3.4s-43.9-1.5-43.9-3.4,19.6-3.4,43.9-3.4,43.9,1.5,43.9,3.4Z"/>
        <line class="cls-7" x1="613.2" y1="188.1" x2="648.4" y2="180.1"/>
        <line class="cls-7" x1="611.1" y1="238.9" x2="645.8" y2="259.2"/>
        <polygon class="cls-13" points="599.2 240.6 624.8 240.6 624.8 185.6 599.2 185.6 599.2 240.6"/>
        <polygon class="cls-7" points="599.2 240.6 624.8 240.6 624.8 185.6 599.2 185.6 599.2 240.6"/>
        <polygon class="cls-1" points="605.7 190.6 619.2 190.6 619.2 233.5 605.7 190.6"/>
        <line class="cls-7" x1="981" y1="188.1" x2="945.7" y2="180.1"/>
        <line class="cls-7" x1="983.1" y1="238.9" x2="948.3" y2="259.2"/>
        <polygon class="cls-13" points="969.3 240.6 994.9 240.6 994.9 185.6 969.3 185.6 969.3 240.6"/>
        <polygon class="cls-7" points="969.3 240.6 994.9 240.6 994.9 185.6 969.3 185.6 969.3 240.6"/>
        <polygon class="cls-1" points="988.4 190.6 974.9 190.6 974.9 233.5 988.4 190.6"/>
        <path class="cls-14" d="M1109.5,580.5c0,3.1-141.6,5.6-316.3,5.6s-316.3-2.5-316.3-5.6,141.6-7.5,316.3-7.5,316.3,4.3,316.3,7.5Z"/>
      </g>
    </g>
  </g>
</svg>