<?xml version="1.0" encoding="UTF-8"?>
<svg id="Camada_1" data-name="Camada 1" xmlns="http://www.w3.org/2000/svg" viewBox="0 0 1080 1080">
  <defs>
    <style>
      .cls-1 {
        fill: #002c69;
      }

      .cls-2 {
        fill: #fff;
      }

      .cls-3 {
        stroke-width: 5.66px;
      }

      .cls-3, .cls-4, .cls-5, .cls-6 {
        fill: none;
        stroke: #fff;
        stroke-linecap: round;
        stroke-linejoin: round;
      }

      .cls-4 {
        stroke-width: 6.39px;
      }

      .cls-5 {
        stroke-width: 4.41px;
      }

      .cls-6 {
        stroke-width: 4.48px;
      }

      .cls-7 {
        fill: #fefefe;
      }

      .cls-8 {
        fill: #6b6b6b;
      }
    </style>
  </defs>
  <rect class="cls-1" x="0" y="0" width="1080" height="1080" rx="540" ry="540"/>
  <g>
    <path class="cls-2" d="M151.14,743.14l-14.01-28.48h-16.57v28.48h-31.34v-105.61h49.27c14.16,0,25.16,3.31,32.99,9.79,7.68,6.48,11.6,15.82,11.6,27.72,0,7.68-1.51,14.46-4.52,20.04-3.16,5.73-7.53,10.25-13.26,13.56l21.39,34.5h-35.56,0ZM120.56,690.56h17.93c4.67,0,8.44-1.2,11-3.77s3.77-6.18,3.77-10.85-1.2-8.14-3.77-10.7c-2.56-2.41-6.33-3.62-11-3.62h-17.93v28.93Z"/>
    <path class="cls-2" d="M264.74,708.19c0,11.45-3.46,20.34-10.25,26.67-6.93,6.48-16.27,9.64-28.17,9.64-15.37,0-28.32-5.88-39.02-17.63l14.31-20.64c3.77,3.92,7.68,6.93,11.75,8.89,3.92,1.96,7.38,3.01,10.39,3.01s5.27-.9,6.93-2.71c1.66-1.81,2.41-4.52,2.41-7.99v-44.9h-35.86v-25.01h67.5v70.66h0Z"/>
    <path class="cls-2" d="M354.99,743.14l-6.18-16.87h-42.64l-6.33,16.87h-32.24l45.05-105.61h32.24l43.54,105.61h-33.45ZM314.91,703.37h25.61l-12.66-34.5-12.96,34.5Z"/>
    <polygon class="cls-2" points="427.91 637.53 509.87 637.53 509.87 661.63 459.25 661.63 459.25 682.73 506.25 682.73 506.25 706.83 459.25 706.83 459.25 743.14 427.91 743.14 427.91 637.53"/>
    <path class="cls-2" d="M583.09,743.14l-14.01-28.48h-16.57v28.48h-31.34v-105.61h49.27c14.16,0,25.16,3.31,32.99,9.79,7.68,6.48,11.6,15.82,11.6,27.72,0,7.68-1.51,14.46-4.52,20.04-3.16,5.73-7.53,10.25-13.26,13.56l21.39,34.5h-35.56,0ZM552.5,690.56h17.93c4.67,0,8.44-1.2,11-3.77s3.77-6.18,3.77-10.85-1.2-8.14-3.77-10.7c-2.56-2.41-6.33-3.62-11-3.62h-17.93v28.93Z"/>
    <polygon class="cls-2" points="630.39 637.53 716.72 637.53 716.72 661.63 661.73 661.63 661.73 678.21 711.6 678.21 711.6 702.31 661.73 702.31 661.73 719.04 718.23 719.04 718.23 743.14 630.39 743.14 630.39 637.53"/>
    <polygon class="cls-2" points="733.3 637.53 764.63 637.53 764.63 743.14 733.3 743.14 733.3 637.53"/>
    <path class="cls-2" d="M979.17,671.58c-5.57-3.31-11.75-6.18-18.53-8.44-6.78-2.26-12.2-3.46-16.57-3.46-2.71,0-4.82.45-6.33,1.51-1.66,1.05-2.41,2.71-2.41,4.67,0,2.86,1.51,4.97,4.52,6.48,3.01,1.66,7.83,3.31,14.31,5.12,7.38,2.11,13.56,4.22,18.38,6.33,4.82,2.26,9.04,5.57,12.66,9.94,3.46,4.37,5.27,10.25,5.27,17.48s-1.96,13.56-5.72,18.53c-3.92,5.12-9.19,8.89-15.67,11.45-6.63,2.56-14.01,3.77-22.15,3.77-9.04,0-18.08-1.51-27.12-4.67-9.19-3.01-17.02-7.23-23.65-12.51l11.75-23.8c5.27,4.67,11.9,8.44,19.59,11.6,7.68,3.16,14.16,4.82,19.74,4.82,3.46,0,6.03-.6,7.99-1.96s2.86-3.16,2.86-5.57c0-2.86-1.51-5.12-4.67-6.78-3.16-1.51-7.99-3.16-14.46-4.82-7.38-1.96-13.41-3.92-18.23-6.03-4.82-1.96-9.04-5.12-12.51-9.49-3.46-4.37-5.27-9.94-5.27-17.03s1.81-12.81,5.42-17.93c3.62-4.97,8.74-8.89,15.37-11.6,6.48-2.71,14.16-4.07,22.9-4.07,7.99,0,15.82,1.05,23.65,3.31s14.61,5.27,20.49,9.04l-11.6,24.11h0Z"/>
    <path class="cls-2" d="M886.86,671.65c-1.05-4.76-2.58-9.35-4.54-13.67l2.55-8.4-9.64-14.4-6.95,2.78c-3.66-3.53-7.79-6.62-12.33-9.11l-3.73-11.69-18.85-5.84-3.41,10.88c-29.59.31-56.06,26.17-54.22,64.48.05,1.12.14,2.24.24,3.35-.19-40.22,32.24-64.83,64.03-57.82,24.93,5.5,42.17,29.7,43.39,55.12s-13.63,51.28-37.9,59.32c-3.02,1-6.07,1.68-9.14,2.08l4.07,9.75,18.24-6.92,2.6-11.87c4.28-2.75,8.11-6.07,11.42-9.8l7.2,2.37,8.23-14.91-3.35-8.23c1.54-4.42,2.63-9.08,3.22-13.89l5.89-3.74-.79-16.45-6.24-3.39h0Z"/>
    <path class="cls-2" d="M822.56,670.76c2.47-1.79,5.39-2.88,8.57-2.97,9.43-.27,17.5,8.16,18.01,18.85.44,9.24-4.91,17.12-12.47,19.26,4.85-3.52,7.92-9.79,7.58-16.87-.51-10.69-8.58-19.12-18.01-18.85-1.28.04-2.51.24-3.69.58h0ZM853.63,686.58c-.69-14.4-11.56-25.77-24.27-25.4-12.72.37-22.46,12.34-21.77,26.74.69,14.4,11.56,25.77,24.27,25.4,12.72-.37,22.47-12.34,21.77-26.74h0Z"/>
    <path class="cls-2" d="M832.43,725.17c-18.49.54-34.3-16-35.3-36.95s13.17-38.36,31.66-38.89c18.49-.54,34.3,16,35.3,36.95,1,20.94-13.17,38.36-31.67,38.89ZM828.31,639.32c-23.38.68-41.3,22.69-40.03,49.17,1.27,26.47,21.25,47.39,44.62,46.71,23.38-.68,41.3-22.69,40.03-49.17-1.27-26.47-21.25-47.39-44.63-46.71h0Z"/>
    <path class="cls-2" d="M167.08,767.08h-15.5l-1.28,6.28h13.97l-1.07,5.42h-13.97l-1.28,6.37h15.92l-1.03,5.46h-22.49l5.79-28.94h22.03l-1.07,5.42ZM177,790.89c-2.03,0-4.01-.37-5.95-1.16-1.94-.79-3.55-1.82-4.75-3.1l2.69-3.93c1.03,1.03,2.27,1.86,3.72,2.48,1.45.66,2.77.99,3.97.99.87,0,1.57-.17,2.11-.54.54-.37.79-.83.79-1.45,0-.54-.29-.99-.87-1.36s-1.45-.79-2.65-1.24c-1.28-.54-2.36-1.03-3.18-1.49-.87-.46-1.57-1.07-2.19-1.9-.62-.79-.91-1.82-.91-3.02,0-1.36.37-2.6,1.07-3.68s1.74-1.9,3.02-2.52c1.28-.58,2.77-.87,4.46-.87s3.47.29,5.25.91,3.27,1.49,4.55,2.56l-2.89,3.97c-1.16-.87-2.36-1.53-3.55-2.03-1.24-.5-2.32-.74-3.27-.74-.7,0-1.32.17-1.82.54-.5.37-.74.79-.74,1.32s.29.95.87,1.32c.58.37,1.45.79,2.65,1.24,1.32.54,2.4,1.07,3.27,1.53.87.45,1.61,1.12,2.23,1.94.62.87.95,1.9.95,3.1,0,1.36-.37,2.6-1.12,3.68-.74,1.07-1.78,1.9-3.1,2.52-1.36.62-2.89.91-4.59.91h0ZM206.43,768.11c1.74,0,3.27.41,4.63,1.24,1.32.83,2.36,1.98,3.1,3.47.74,1.49,1.12,3.18,1.12,5.13,0,2.4-.54,4.59-1.57,6.53-1.03,1.98-2.48,3.55-4.26,4.67-1.82,1.12-3.84,1.69-6.04,1.69-1.78,0-3.27-.37-4.46-1.12-1.24-.7-2.15-1.78-2.77-3.14l-2.44,12.03h-6.32l6.04-30.26h6.32l-.58,2.85c.95-.99,2.07-1.78,3.31-2.32s2.56-.79,3.93-.79h0ZM204.03,773.15c-1.2,0-2.27.33-3.22.95-.99.62-1.78,1.49-2.36,2.56s-.87,2.27-.87,3.55c0,1.57.46,2.81,1.32,3.76s2.07,1.45,3.51,1.45c1.16,0,2.23-.33,3.22-.95.99-.62,1.78-1.49,2.36-2.6.58-1.07.87-2.27.87-3.55,0-1.57-.46-2.81-1.32-3.76-.87-.95-2.07-1.41-3.51-1.41ZM230.24,768.15c2.11,0,3.97.41,5.54,1.2,1.53.83,2.73,1.98,3.6,3.43.83,1.49,1.24,3.22,1.24,5.17,0,1.12-.12,2.27-.41,3.47h-16.33c.12,1.45.66,2.52,1.61,3.31.95.79,2.19,1.2,3.8,1.2.95,0,1.94-.17,2.89-.5.95-.33,1.78-.79,2.56-1.41l3.1,3.64c-2.36,2.11-5.29,3.18-8.76,3.18-2.32,0-4.34-.41-6.04-1.24-1.74-.83-3.06-2.03-4.01-3.56-.95-1.53-1.41-3.27-1.41-5.29,0-2.36.54-4.51,1.65-6.45,1.07-1.94,2.56-3.43,4.51-4.55,1.9-1.07,4.05-1.61,6.45-1.61h0ZM234.71,777.66c.12-1.45-.21-2.6-.95-3.47s-1.82-1.28-3.27-1.28c-1.36,0-2.6.41-3.72,1.28-1.12.87-1.9,2.03-2.4,3.47h10.33ZM253.18,790.85c-2.07,0-3.89-.41-5.42-1.28-1.57-.83-2.77-2.03-3.6-3.55-.87-1.53-1.28-3.31-1.28-5.33,0-2.44.54-4.59,1.61-6.49s2.56-3.39,4.51-4.46c1.9-1.03,4.05-1.57,6.49-1.57,2.11,0,3.97.41,5.54,1.2,1.57.83,2.77,1.98,3.64,3.47l-4.59,3.1c-.54-.79-1.2-1.36-2.03-1.78-.83-.41-1.78-.62-2.81-.62-1.12,0-2.15.29-3.02.83-.91.58-1.61,1.36-2.15,2.4-.54,1.03-.79,2.19-.79,3.47,0,1.61.41,2.89,1.28,3.84.87.99,1.98,1.49,3.43,1.49,2.32,0,4.13-.87,5.42-2.6l4.09,2.98c-1.07,1.57-2.48,2.77-4.26,3.64-1.78.87-3.8,1.28-6.08,1.28h0ZM277.37,768.36l-4.42,22.24h-6.32l4.42-22.24h6.32ZM276.09,758.48c.87,0,1.57.25,2.11.79.54.54.79,1.24.79,2.11,0,1.2-.41,2.19-1.24,2.98-.83.83-1.82,1.24-2.98,1.24-.87,0-1.53-.29-2.07-.83-.54-.54-.79-1.24-.79-2.11,0-1.2.41-2.19,1.24-2.98.79-.79,1.78-1.2,2.94-1.2h0ZM288.24,790.85c-1.74,0-3.27-.41-4.59-1.24-1.36-.83-2.4-1.98-3.14-3.47-.74-1.49-1.12-3.18-1.12-5.13,0-2.4.54-4.59,1.57-6.57,1.03-1.94,2.44-3.51,4.26-4.63,1.82-1.12,3.84-1.69,6.04-1.69,1.78,0,3.27.37,4.46,1.07,1.2.74,2.15,1.82,2.77,3.22l.79-4.05h6.32l-4.42,22.24h-6.32l.62-2.81c-2.03,2.03-4.46,3.06-7.23,3.06h0ZM290.64,785.85c1.16,0,2.23-.33,3.22-.95.99-.62,1.78-1.49,2.36-2.6.58-1.07.87-2.27.87-3.55,0-1.57-.46-2.81-1.32-3.76-.87-.95-2.07-1.41-3.51-1.41-1.16,0-2.23.33-3.22.95-.99.62-1.78,1.49-2.36,2.56-.58,1.12-.87,2.27-.87,3.55,0,1.61.46,2.85,1.32,3.8.87.95,2.07,1.41,3.51,1.41h0ZM320.07,759.93l-6.12,30.67h-6.37l6.12-30.67h6.37ZM331.06,768.36l-4.42,22.24h-6.32l4.42-22.24h6.32ZM329.78,758.48c.87,0,1.57.25,2.11.79.54.54.79,1.24.79,2.11,0,1.2-.41,2.19-1.24,2.98-.83.83-1.82,1.24-2.98,1.24-.87,0-1.53-.29-2.07-.83-.54-.54-.79-1.24-.79-2.11,0-1.2.41-2.19,1.24-2.98.79-.79,1.78-1.2,2.94-1.2h0ZM355.16,768.4l-.7,4.01-14.18,13.19h11.82l-.99,5.04-19.76-.04.7-4.01,14.18-13.19-11-.04.91-5,19.02.04h0Z"/>
    <path class="cls-2" d="M364.46,790.85c-1.74,0-3.27-.41-4.59-1.24-1.36-.83-2.4-1.98-3.14-3.47-.74-1.49-1.12-3.18-1.12-5.13,0-2.4.54-4.59,1.57-6.57,1.03-1.94,2.44-3.51,4.26-4.63,1.82-1.12,3.84-1.69,6.04-1.69,1.78,0,3.27.37,4.46,1.07,1.2.74,2.15,1.82,2.77,3.22l.79-4.05h6.32l-4.42,22.24h-6.32l.62-2.81c-2.03,2.03-4.46,3.06-7.23,3.06h0ZM366.86,785.85c1.16,0,2.23-.33,3.22-.95.99-.62,1.78-1.49,2.36-2.6.58-1.07.87-2.27.87-3.55,0-1.57-.46-2.81-1.32-3.76-.87-.95-2.07-1.41-3.51-1.41-1.16,0-2.23.33-3.22.95-.99.62-1.78,1.49-2.36,2.56-.58,1.12-.87,2.27-.87,3.55,0,1.61.46,2.85,1.32,3.8.87.95,2.07,1.41,3.51,1.41h0ZM392.74,790.85c-1.74,0-3.27-.41-4.59-1.24-1.36-.83-2.4-1.98-3.14-3.47-.74-1.49-1.12-3.18-1.12-5.13,0-2.4.54-4.59,1.57-6.57,1.03-1.94,2.44-3.51,4.26-4.63,1.82-1.12,3.84-1.69,6.04-1.69,1.78,0,3.27.37,4.46,1.07,1.2.74,2.15,1.82,2.77,3.22l2.48-12.48h6.32l-6.12,30.67h-6.32l.62-2.81c-2.03,2.03-4.46,3.06-7.23,3.06h0ZM395.13,785.85c1.16,0,2.23-.33,3.22-.95.99-.62,1.78-1.49,2.36-2.6.58-1.07.87-2.27.87-3.55,0-1.57-.46-2.81-1.32-3.76-.87-.95-2.07-1.41-3.51-1.41-1.16,0-2.23.33-3.22.95-.99.62-1.78,1.49-2.36,2.56-.58,1.12-.87,2.27-.87,3.55,0,1.61.46,2.85,1.32,3.8.87.95,2.07,1.41,3.51,1.41h0ZM425.56,768.15c2.19,0,4.13.41,5.79,1.28,1.61.87,2.89,2.03,3.76,3.55.87,1.53,1.32,3.35,1.32,5.37,0,2.44-.58,4.59-1.69,6.49s-2.69,3.39-4.67,4.42c-1.98,1.03-4.26,1.57-6.78,1.57-2.19,0-4.09-.41-5.75-1.28s-2.94-2.07-3.8-3.6c-.87-1.53-1.32-3.35-1.32-5.37,0-2.44.58-4.59,1.69-6.49,1.12-1.86,2.69-3.35,4.67-4.38,1.98-1.03,4.26-1.57,6.78-1.57h0ZM425.06,773.44c-1.2,0-2.23.29-3.18.87-.95.58-1.65,1.36-2.19,2.4-.54,1.03-.83,2.23-.83,3.55,0,1.61.46,2.94,1.32,3.93.87.99,2.07,1.49,3.6,1.49,1.2,0,2.23-.29,3.18-.87.95-.58,1.69-1.41,2.23-2.44.54-1.03.79-2.19.79-3.51,0-1.61-.46-2.94-1.32-3.93-.91-.99-2.11-1.49-3.6-1.49h0ZM461.11,768.15c2.11,0,3.97.41,5.54,1.2,1.53.83,2.73,1.98,3.6,3.43.83,1.49,1.24,3.22,1.24,5.17,0,1.12-.12,2.27-.41,3.47h-16.33c.12,1.45.66,2.52,1.61,3.31.95.79,2.19,1.2,3.8,1.2.95,0,1.94-.17,2.89-.5.95-.33,1.78-.79,2.56-1.41l3.1,3.64c-2.36,2.11-5.29,3.18-8.76,3.18-2.32,0-4.34-.41-6.04-1.24-1.74-.83-3.06-2.03-4.01-3.56-.95-1.53-1.41-3.27-1.41-5.29,0-2.36.54-4.51,1.65-6.45,1.07-1.94,2.56-3.43,4.51-4.55,1.9-1.07,4.05-1.61,6.45-1.61h0ZM465.57,777.66c.12-1.45-.21-2.6-.95-3.47s-1.82-1.28-3.27-1.28c-1.36,0-2.6.41-3.72,1.28s-1.9,2.03-2.4,3.47h10.33ZM506.54,768.07c2.44,0,4.34.66,5.75,1.94,1.41,1.32,2.11,3.06,2.11,5.25,0,.7-.08,1.45-.25,2.23l-2.6,13.1h-6.37l2.44-12.19c.08-.41.12-.83.12-1.2,0-1.12-.33-1.98-1.03-2.65-.7-.62-1.61-.95-2.81-.95-1.41,0-2.65.5-3.72,1.49-1.12,1.03-1.82,2.36-2.15,3.97l-2.36,11.53h-6.32l2.4-12.19c.08-.41.12-.83.12-1.2,0-1.12-.33-1.98-.99-2.65-.7-.62-1.65-.95-2.85-.95-1.41,0-2.65.5-3.72,1.49-1.12,1.03-1.82,2.36-2.15,3.97l-2.32,11.53h-6.37l4.38-22.24h6.41l-.62,3.06c1.82-2.23,4.17-3.35,7.07-3.35,1.94,0,3.6.41,4.92,1.28,1.28.87,2.15,2.11,2.6,3.64,2.15-3.27,4.92-4.92,8.31-4.92h0ZM542.46,764.89c-.87,0-1.61.25-2.32.79-.7.54-1.12,1.2-1.32,2.07l-.33,1.61h5.25l-.83,4.42h-5.29l-3.39,16.82h-6.32l3.39-16.82h-2.94l.83-4.42h3.02l.46-2.36c.45-2.4,1.57-4.22,3.31-5.5,1.69-1.24,3.68-1.86,5.95-1.86,1.65,0,3.18.33,4.55.99l-1.69,4.84c-.33-.17-.7-.29-1.16-.41-.46-.12-.87-.17-1.16-.17h0ZM552.09,772.08c.99-1.28,2.15-2.27,3.51-2.94,1.36-.66,2.81-.99,4.42-1.03l-.74,5.95c-.21-.04-.45-.04-.83-.04-1.94,0-3.68.54-5.13,1.65-1.45,1.12-2.4,2.56-2.81,4.26l-2.11,10.66h-6.37l4.42-22.24h6.37l-.74,3.72h0ZM572.39,768.15c2.11,0,3.97.41,5.54,1.2,1.53.83,2.73,1.98,3.6,3.43.83,1.49,1.24,3.22,1.24,5.17,0,1.12-.12,2.27-.41,3.47h-16.33c.12,1.45.66,2.52,1.61,3.31.95.79,2.19,1.2,3.8,1.2.95,0,1.94-.17,2.89-.5.95-.33,1.78-.79,2.56-1.41l3.1,3.64c-2.36,2.11-5.29,3.18-8.76,3.18-2.32,0-4.34-.41-6.04-1.24-1.74-.83-3.06-2.03-4.01-3.56-.95-1.53-1.41-3.27-1.41-5.29,0-2.36.54-4.51,1.65-6.45,1.07-1.94,2.56-3.43,4.51-4.55,1.9-1.07,4.05-1.61,6.45-1.61h0ZM576.85,777.66c.12-1.45-.21-2.6-.95-3.47s-1.82-1.28-3.27-1.28c-1.36,0-2.6.41-3.72,1.28s-1.9,2.03-2.4,3.47h10.33ZM595.45,768.36l-4.42,22.24h-6.32l4.42-22.24h6.32ZM594.17,758.48c.87,0,1.57.25,2.11.79.54.54.79,1.24.79,2.11,0,1.2-.41,2.19-1.24,2.98-.83.83-1.82,1.24-2.98,1.24-.87,0-1.53-.29-2.07-.83-.54-.54-.79-1.24-.79-2.11,0-1.2.41-2.19,1.24-2.98.79-.79,1.78-1.2,2.94-1.2h0ZM610.67,768.15c2.19,0,4.13.41,5.79,1.28,1.61.87,2.89,2.03,3.76,3.55.87,1.53,1.32,3.35,1.32,5.37,0,2.44-.58,4.59-1.69,6.49s-2.69,3.39-4.67,4.42c-1.98,1.03-4.26,1.57-6.78,1.57-2.19,0-4.09-.41-5.75-1.28s-2.94-2.07-3.8-3.6c-.87-1.53-1.32-3.35-1.32-5.37,0-2.44.58-4.59,1.69-6.49,1.12-1.86,2.69-3.35,4.67-4.38,1.98-1.03,4.26-1.57,6.78-1.57h0ZM610.17,773.44c-1.2,0-2.23.29-3.18.87-.95.58-1.65,1.36-2.19,2.4-.54,1.03-.83,2.23-.83,3.55,0,1.61.46,2.94,1.32,3.93.87.99,2.07,1.49,3.6,1.49,1.2,0,2.23-.29,3.18-.87.95-.58,1.69-1.41,2.23-2.44.54-1.03.79-2.19.79-3.51,0-1.61-.46-2.94-1.32-3.93-.91-.99-2.11-1.49-3.6-1.49h0ZM632.74,790.89c-2.03,0-4.01-.37-5.95-1.16-1.94-.79-3.55-1.82-4.75-3.1l2.69-3.93c1.03,1.03,2.27,1.86,3.72,2.48,1.45.66,2.77.99,3.97.99.87,0,1.57-.17,2.11-.54.54-.37.79-.83.79-1.45,0-.54-.29-.99-.87-1.36s-1.45-.79-2.65-1.24c-1.28-.54-2.36-1.03-3.18-1.49-.87-.46-1.57-1.07-2.19-1.9-.62-.79-.91-1.82-.91-3.02,0-1.36.37-2.6,1.07-3.68s1.74-1.9,3.02-2.52c1.28-.58,2.77-.87,4.46-.87s3.47.29,5.25.91c1.78.62,3.27,1.49,4.55,2.56l-2.89,3.97c-1.16-.87-2.36-1.53-3.55-2.03-1.24-.5-2.32-.74-3.27-.74-.7,0-1.32.17-1.82.54-.5.37-.74.79-.74,1.32s.29.95.87,1.32c.58.37,1.45.79,2.65,1.24,1.32.54,2.4,1.07,3.27,1.53.87.45,1.61,1.12,2.23,1.94.62.87.95,1.9.95,3.1,0,1.36-.37,2.6-1.12,3.68-.74,1.07-1.78,1.9-3.1,2.52-1.36.62-2.89.91-4.59.91h0ZM663.37,790.85c-1.74,0-3.27-.41-4.59-1.24-1.36-.83-2.4-1.98-3.14-3.47-.74-1.49-1.12-3.18-1.12-5.13,0-2.4.54-4.59,1.57-6.57,1.03-1.94,2.44-3.51,4.26-4.63,1.82-1.12,3.84-1.69,6.04-1.69,1.78,0,3.27.37,4.46,1.07,1.2.74,2.15,1.82,2.77,3.22l.79-4.05h6.32l-4.42,22.24h-6.32l.62-2.81c-2.03,2.03-4.46,3.06-7.23,3.06h0ZM665.77,785.85c1.16,0,2.23-.33,3.22-.95.99-.62,1.78-1.49,2.36-2.6.58-1.07.87-2.27.87-3.55,0-1.57-.46-2.81-1.32-3.76-.87-.95-2.07-1.41-3.51-1.41-1.16,0-2.23.33-3.22.95-.99.62-1.78,1.49-2.36,2.56-.58,1.12-.87,2.27-.87,3.55,0,1.61.46,2.85,1.32,3.8.87.95,2.07,1.41,3.51,1.41h0ZM713.59,790.6l-1.32-5.62h-13.39l-3.18,5.62h-6.74l17.36-28.94h6.7l7.61,28.94h-7.03ZM701.9,779.73h9.18l-2.69-11.45-6.49,11.45ZM733.6,772.08c.99-1.28,2.15-2.27,3.51-2.94,1.36-.66,2.81-.99,4.42-1.03l-.74,5.95c-.21-.04-.45-.04-.83-.04-1.94,0-3.68.54-5.13,1.65-1.45,1.12-2.4,2.56-2.81,4.26l-2.11,10.66h-6.37l4.42-22.24h6.37l-.74,3.72h0ZM763.57,768.15c2.11,0,3.97.41,5.54,1.2,1.53.83,2.73,1.98,3.6,3.43.83,1.49,1.24,3.22,1.24,5.17,0,1.12-.12,2.27-.41,3.47h-16.33c.12,1.45.66,2.52,1.61,3.31.95.79,2.19,1.2,3.8,1.2.95,0,1.94-.17,2.89-.5.95-.33,1.78-.79,2.56-1.41l3.1,3.64c-2.36,2.11-5.29,3.18-8.76,3.18-2.32,0-4.34-.41-6.04-1.24-1.74-.83-3.06-2.03-4.01-3.56-.95-1.53-1.41-3.27-1.41-5.29,0-2.36.54-4.51,1.65-6.45,1.07-1.94,2.56-3.43,4.51-4.55,1.9-1.07,4.05-1.61,6.45-1.61h0ZM768.03,777.66c.12-1.45-.21-2.6-.95-3.47s-1.82-1.28-3.27-1.28c-1.36,0-2.6.41-3.72,1.28s-1.9,2.03-2.4,3.47h10.33ZM809,768.07c2.44,0,4.34.66,5.75,1.94,1.41,1.32,2.11,3.06,2.11,5.25,0,.7-.08,1.45-.25,2.23l-2.6,13.1h-6.37l2.44-12.19c.08-.41.12-.83.12-1.2,0-1.12-.33-1.98-1.03-2.65-.7-.62-1.61-.95-2.81-.95-1.41,0-2.65.5-3.72,1.49-1.12,1.03-1.82,2.36-2.15,3.97l-2.36,11.53h-6.32l2.4-12.19c.08-.41.12-.83.12-1.2,0-1.12-.33-1.98-.99-2.65-.7-.62-1.65-.95-2.85-.95-1.41,0-2.65.5-3.72,1.49-1.12,1.03-1.82,2.36-2.15,3.97l-2.32,11.53h-6.37l4.38-22.24h6.41l-.62,3.06c1.82-2.23,4.17-3.35,7.07-3.35,1.94,0,3.6.41,4.92,1.28,1.28.87,2.15,2.11,2.6,3.64,2.15-3.27,4.92-4.92,8.31-4.92h0ZM837.32,798.87c-3.51,0-6.7-1.03-9.59-3.06l2.73-4.22c.91.7,1.94,1.2,3.14,1.57,1.16.37,2.36.54,3.55.54,1.9,0,3.43-.41,4.63-1.2,1.2-.79,1.94-1.94,2.32-3.47l.54-2.27c-1.94,1.78-4.17,2.69-6.7,2.69-1.61,0-3.06-.37-4.34-1.16s-2.23-1.86-2.94-3.22c-.7-1.36-1.03-2.98-1.03-4.75,0-2.27.5-4.34,1.49-6.2.95-1.86,2.32-3.31,4.01-4.38,1.69-1.07,3.6-1.61,5.66-1.61,1.61,0,3.02.33,4.17.99,1.12.66,1.98,1.61,2.56,2.89l.74-3.64h6.32l-4.3,21.25c-.62,2.98-2.03,5.25-4.3,6.86s-5.17,2.4-8.68,2.4h0ZM840.37,784.4c1.03,0,2.03-.29,2.94-.83.87-.54,1.57-1.32,2.11-2.27.54-.95.79-1.98.79-3.1,0-1.41-.41-2.52-1.2-3.39-.79-.83-1.86-1.24-3.18-1.24-1.03,0-2.03.29-2.89.83-.87.58-1.57,1.36-2.11,2.32-.54.99-.79,2.07-.79,3.22,0,1.36.41,2.48,1.2,3.27.79.79,1.82,1.2,3.14,1.2h0ZM868.98,768.15c2.11,0,3.97.41,5.54,1.2,1.53.83,2.73,1.98,3.6,3.43.83,1.49,1.24,3.22,1.24,5.17,0,1.12-.12,2.27-.41,3.47h-16.33c.12,1.45.66,2.52,1.61,3.31.95.79,2.19,1.2,3.8,1.2.95,0,1.94-.17,2.89-.5.95-.33,1.78-.79,2.56-1.41l3.1,3.64c-2.36,2.11-5.29,3.18-8.76,3.18-2.32,0-4.34-.41-6.04-1.24-1.74-.83-3.06-2.03-4.01-3.56-.95-1.53-1.41-3.27-1.41-5.29,0-2.36.54-4.51,1.65-6.45,1.07-1.94,2.56-3.43,4.51-4.55,1.9-1.07,4.05-1.61,6.45-1.61h0ZM873.44,777.66c.12-1.45-.21-2.6-.95-3.47s-1.82-1.28-3.27-1.28c-1.36,0-2.6.41-3.72,1.28s-1.9,2.03-2.4,3.47h10.33,0ZM891.34,772.08c.99-1.28,2.15-2.27,3.51-2.94,1.36-.66,2.81-.99,4.42-1.03l-.74,5.95c-.21-.04-.45-.04-.83-.04-1.94,0-3.68.54-5.13,1.65-1.45,1.12-2.4,2.56-2.81,4.26l-2.11,10.66h-6.37l4.42-22.24h6.37l-.74,3.72h0ZM907.84,790.85c-1.74,0-3.27-.41-4.59-1.24-1.36-.83-2.4-1.98-3.14-3.47-.74-1.49-1.12-3.18-1.12-5.13,0-2.4.54-4.59,1.57-6.57,1.03-1.94,2.44-3.51,4.26-4.63,1.82-1.12,3.84-1.69,6.04-1.69,1.78,0,3.27.37,4.46,1.07,1.2.74,2.15,1.82,2.77,3.22l.79-4.05h6.32l-4.42,22.24h-6.32l.62-2.81c-2.03,2.03-4.46,3.06-7.23,3.06h0ZM910.23,785.85c1.16,0,2.23-.33,3.22-.95.99-.62,1.78-1.49,2.36-2.6.58-1.07.87-2.27.87-3.55,0-1.57-.46-2.81-1.32-3.76-.87-.95-2.07-1.41-3.51-1.41-1.16,0-2.23.33-3.22.95s-1.78,1.49-2.36,2.56c-.58,1.12-.87,2.27-.87,3.55,0,1.61.46,2.85,1.32,3.8.87.95,2.07,1.41,3.51,1.41h0ZM939.67,759.93l-6.12,30.67h-6.37l6.12-30.67h6.37Z"/>
    <g>
      <path class="cls-2" d="M659.4,384.35v28.78c0,2.63-2.13,4.76-4.76,4.76h-12.21v5.24h88.3l13.85-38.78h-85.17Z"/>
      <path class="cls-2" d="M649.85,430.18v38.45h59.9l13.85-38.78h-73.78c0,.11.03.22.03.33Z"/>
      <path class="cls-2" d="M649.85,478.8l5.57.04c1.33,0,2.6.58,3.5,1.57.9.99,1.34,2.31,1.21,3.63l-2.97,32.07h30.03l13.85-38.78h-51.19v1.47Z"/>
      <path class="cls-2" d="M425.01,413.13v-28.78h-89.59l13.85,38.78h91.62v-5.24h-11.11c-2.63,0-4.76-2.13-4.76-4.76Z"/>
      <path class="cls-2" d="M370.25,468.63h63.21v-38.45c0-.11.03-.22.03-.33h-77.1l13.85,38.78Z"/>
      <path class="cls-2" d="M392.8,516.11h34.01l-2.97-32.07c-.12-1.33.32-2.65,1.21-3.63.9-.99,2.17-1.56,3.5-1.57l4.91-.03v-1.47h-54.51l13.85,38.78Z"/>
    </g>
    <path class="cls-7" d="M640.08,415.51c-1.32,0-2.38-1.06-2.38-2.38v-31.28c0-1.31,1.06-2.38,2.38-2.38h14.56c1.32,0,2.38,1.07,2.38,2.38v31.28c0,1.32-1.06,2.38-2.38,2.38h-14.56Z"/>
    <polygon class="cls-1" points="445.65 450.61 471.64 450.61 471.64 281.13 445.65 281.13 445.65 450.61"/>
    <polygon class="cls-4" points="445.65 450.61 471.64 450.61 471.64 281.13 445.65 281.13 445.65 450.61"/>
    <polygon class="cls-2" points="467.13 284.32 448.83 284.32 448.83 462.54 459.97 462.54 460.5 292.01 467.13 284.32"/>
    <polygon class="cls-1" points="438.22 491.71 460.23 491.71 460.23 430.18 438.22 430.18 438.22 491.71"/>
    <polygon class="cls-6" points="438.22 491.71 460.23 491.71 460.23 430.18 438.22 430.18 438.22 491.71"/>
    <polygon class="cls-2" points="458.16 491.62 458.16 433.54 441.65 433.54 441.32 491.29 458.16 491.62"/>
    <polygon class="cls-1" points="611.67 450.61 637.66 450.61 637.66 281.13 611.67 281.13 611.67 450.61"/>
    <polygon class="cls-4" points="611.67 450.61 637.66 450.61 637.66 281.13 611.67 281.13 611.67 450.61"/>
    <polygon class="cls-2" points="616.18 284.32 634.48 284.32 634.48 462.54 623.34 462.54 622.81 292.01 616.18 284.32"/>
    <polygon class="cls-1" points="623.07 491.71 645.09 491.71 645.09 430.18 623.07 430.18 623.07 491.71"/>
    <polygon class="cls-6" points="623.07 491.71 645.09 491.71 645.09 430.18 623.07 430.18 623.07 491.71"/>
    <polygon class="cls-2" points="625.15 491.62 625.15 433.54 641.66 433.54 642 491.29 625.15 491.62"/>
    <polygon class="cls-7" points="577.19 334.28 592.7 334.28 592.7 319.64 577.19 319.64 577.19 334.28"/>
    <polygon class="cls-6" points="577.19 334.28 592.69 334.28 592.69 319.64 577.19 319.64 577.19 334.28"/>
    <polygon class="cls-4" points="580.85 322.38 589.84 322.38 589.84 331.63 583.46 331.63 580.85 322.38"/>
    <polygon class="cls-8" points="489.67 334.28 505.18 334.28 505.18 319.64 489.67 319.64 489.67 334.28"/>
    <polygon class="cls-6" points="489.67 334.28 505.18 334.28 505.18 319.64 489.67 319.64 489.67 334.28"/>
    <polygon class="cls-2" points="505.18 320.68 490.84 320.68 490.84 331.63 501.02 331.63 505.18 320.68"/>
    <path class="cls-1" d="M602.64,329.27l-60.85-1.36v-.03h-.61s-.61,0-.61,0v.03l-60.85,1.36s-12.93,34.21-12.33,34.01c.56-.19,66.78.69,73.79.29,7,.4,73.22-.47,73.79-.29.6.2-12.33-34.01-12.33-34.01Z"/>
    <path class="cls-4" d="M602.64,329.27l-60.85-1.36v-.03h-.61s-.61,0-.61,0v.03l-60.85,1.36s-12.93,34.21-12.33,34.01c.56-.19,66.78.69,73.79.29,7,.4,73.22-.47,73.79-.29.6.2-12.33-34.01-12.33-34.01h0Z"/>
    <path class="cls-2" d="M475.75,356.12v-5.97l7.76-17.1s27.85-3.58,56.09,22.68c0,0-64.15.1-63.85.4h0Z"/>
    <path class="cls-2" d="M606.14,356.12v-5.97l-7.76-17.1s-27.85-3.58-56.09,22.68c0,0,64.15.1,63.85.4h0Z"/>
    <path class="cls-1" d="M521.87,338.82c0,2.07-5.58,3.74-12.47,3.74s-12.47-1.68-12.47-3.74,5.58-3.74,12.47-3.74,12.47,1.67,12.47,3.74Z"/>
    <path class="cls-2" d="M463.01,606.62h-27.04c-4.25,0-7.69-3.44-7.69-7.69v-28.35h42.42v28.35c0,4.25-3.44,7.69-7.69,7.69Z"/>
    <path class="cls-8" d="M432.3,571.54v25.56s-.1,7.36,6.07,7.36h21.38l-21.29-1.19s-5.07-1.69-5.17-6.46l-1-25.26h0Z"/>
    <path class="cls-2" d="M644.02,606.62h-27.03c-4.25,0-7.69-3.44-7.69-7.69v-28.35h42.42v28.35c0,4.25-3.44,7.69-7.7,7.69h0Z"/>
    <path class="cls-1" d="M613.31,571.54v25.56s-.1,7.36,6.07,7.36h21.38l-21.28-1.19s-5.07-1.69-5.17-6.46l-.99-25.26h0Z"/>
    <polygon class="cls-1" points="457.05 497.81 626.79 497.81 626.79 359.64 457.05 359.64 457.05 497.81"/>
    <polygon class="cls-3" points="457.05 497.81 626.79 497.81 626.79 359.64 457.05 359.64 457.05 497.81"/>
    <path class="cls-1" d="M467.92,487.21v-74.66h148.12v74.13l-148.12.53Z"/>
    <path class="cls-5" d="M467.92,487.21v-74.66h148.12v74.13l-148.12.53Z"/>
    <polygon class="cls-1" points="481.94 532.82 433.14 532.82 428.59 483.6 481.94 483.23 481.94 532.82"/>
    <polygon class="cls-3" points="481.94 532.82 433.14 532.82 428.59 483.6 481.94 483.23 481.94 532.82"/>
    <polygon class="cls-2" points="477.43 528.6 477.16 501.66 432.31 486.54 482.2 486.54 477.43 528.6"/>
    <polygon class="cls-6" points="437.98 527.39 477.1 527.39 477.1 502.59 437.98 502.59 437.98 527.39"/>
    <polygon class="cls-2" points="461.52 505.11 461.25 505.11 471.79 507.43 474.18 524.13 474.18 505.11 461.52 505.11"/>
    <polygon class="cls-2" points="441.69 505.11 441.42 505.11 451.97 507.43 454.36 524.13 454.36 505.11 441.69 505.11"/>
    <polygon class="cls-2" points="437.98 502.59 443.35 523.41 456.48 527.52 437.98 527.52 437.98 502.59"/>
    <polygon class="cls-2" points="457.97 502.59 463.34 523.41 476.47 527.52 457.97 527.52 457.97 502.59"/>
    <polygon class="cls-1" points="602.04 532.82 650.84 532.82 655.39 483.6 602.04 483.23 602.04 532.82"/>
    <polygon class="cls-3" points="602.04 532.82 650.84 532.82 655.39 483.6 602.04 483.23 602.04 532.82"/>
    <polygon class="cls-2" points="606.54 528.6 606.81 501.66 651.66 486.54 601.77 486.54 606.54 528.6"/>
    <polygon class="cls-6" points="606.88 527.39 645.99 527.39 645.99 502.59 606.88 502.59 606.88 527.39"/>
    <polygon class="cls-2" points="622.46 505.11 622.72 505.11 612.18 507.43 609.79 524.13 609.79 505.11 622.46 505.11"/>
    <polygon class="cls-2" points="642.28 505.11 642.55 505.11 632 507.43 629.62 524.13 629.62 505.11 642.28 505.11"/>
    <polygon class="cls-2" points="645.99 502.59 640.63 523.41 627.5 527.52 645.99 527.52 645.99 502.59"/>
    <polygon class="cls-2" points="626 502.59 620.63 523.41 607.51 527.52 626 527.52 626 502.59"/>
    <polygon class="cls-2" points="539.2 404.66 462.03 404.66 462.03 372.1 539.2 367.33 539.2 404.66"/>
    <polygon class="cls-1" points="515.4 370.45 525.08 369.91 505.45 402.8 492.33 402.8 515.4 370.45"/>
    <polygon class="cls-1" points="497.9 371.27 507.58 370.74 485.36 402.8 472.23 402.8 497.9 371.27"/>
    <polygon class="cls-1" points="464.81 393.05 464.81 374.89 489.74 372.23 468.26 377.87 464.81 393.05"/>
    <polygon class="cls-2" points="544.77 404.66 621.95 404.66 621.95 372.1 544.77 367.33 544.77 404.66"/>
    <polygon class="cls-1" points="601 372.3 609.88 372.76 592.31 402.8 579.18 402.8 601 372.3"/>
    <polygon class="cls-1" points="584.62 371.5 593.51 371.9 572.22 402.8 559.09 402.8 584.62 371.5"/>
    <polygon class="cls-1" points="548.25 388.48 548.25 370.31 573.42 372.34 551.7 373.3 548.25 388.48"/>
    <polygon class="cls-2" points="462.03 404.66 621.95 404.66 614.19 412.21 469.78 412.21 462.03 404.66"/>
    <polygon class="cls-1" points="414.88 580.3 665.11 580.3 665.11 528.58 414.88 528.58 414.88 580.3"/>
    <polygon class="cls-4" points="414.88 580.3 665.11 580.3 665.11 528.58 414.88 528.58 414.88 580.3"/>
    <polygon class="cls-2" points="419.47 534.2 419.47 574.99 512.4 574.99 428.3 558.38 419.47 534.2"/>
    <polygon class="cls-2" points="659.99 534.2 659.99 574.99 567.07 574.99 651.16 558.38 659.99 534.2"/>
    <polygon class="cls-2" points="419.47 531.89 656.63 531.89 540.36 549.76 419.47 531.89"/>
    <polygon class="cls-2" points="440.94 548.87 468.19 548.87 468.19 534.74 440.94 534.74 440.94 548.87"/>
    <polygon class="cls-2" points="609.02 548.87 636.27 548.87 636.27 534.74 609.02 534.74 609.02 548.87"/>
    <polygon class="cls-2" points="509.17 558.75 570.83 558.75 570.83 542.96 509.17 542.96 509.17 558.75"/>
    <polygon class="cls-1" points="513.61 545.92 567.54 545.92 567.54 556.12 563.27 548.06 513.61 545.92"/>
    <polygon class="cls-1" points="437.98 577.09 428.98 577.09 441.98 552.71 450.98 552.71 437.98 577.09"/>
    <polygon class="cls-1" points="449.98 577.09 440.98 577.09 453.99 552.71 462.99 552.71 449.98 577.09"/>
    <path class="cls-1" d="M611.51,547.17h22.99v-11.83l-5.2,9.56-17.79,2.27Z"/>
    <path class="cls-1" d="M466.62,547.17h-22.99v-11.83l5.2,9.56,17.79,2.27Z"/>
    <polygon class="cls-2" points="461.56 362.6 623.21 362.6 623.16 368.44 541.08 364.51 461.63 367.38 461.56 362.6"/>
    <polygon class="cls-2" points="471.47 422.96 482.81 440.76 478.63 480.34 471.87 480.34 471.47 422.96"/>
    <polygon class="cls-2" points="612.3 422.96 600.96 440.76 605.14 480.34 611.9 480.34 612.3 422.96"/>
    <path class="cls-1" d="M478.87,530.44l9.63-89.96,4.24-1.34,4-1.23c1.58-.48,3.16-.96,4.75-1.44,1.77-.53,3.55-1.06,5.33-1.58,1.91-.55,3.82-1.11,5.74-1.65,1.98-.56,3.97-1.11,5.97-1.66,2.01-.54,4.02-1.08,6.03-1.6,1.97-.51,3.94-1,5.91-1.47,1.87-.45,3.74-.88,5.62-1.28,1.71-.37,3.42-.72,5.14-1.03.28-.05.57-.09.86-.09,0,0,.24.02.24.02l1.21.22c.86.16,1.71.33,2.55.5,1.83.37,3.65.78,5.47,1.2,1.95.45,3.89.93,5.83,1.42,2,.5,4.01,1.03,6,1.56,2,.54,4.01,1.09,6,1.65,1.95.54,3.89,1.1,5.84,1.66,1.83.53,3.66,1.06,5.49,1.61,1.66.49,3.31.99,4.96,1.49l4.27,1.31,5.54,1.74,9.63,89.96h-126.24,0Z"/>
    <path class="cls-2" d="M542.08,423.72c-.43,0-.87.06-1.28.13-1.75.31-3.49.67-5.22,1.04-1.9.41-3.79.84-5.67,1.29-1.99.48-3.97.97-5.95,1.48-2.02.52-4.05,1.06-6.06,1.61-2,.55-4,1.1-6,1.66-1.92.54-3.84,1.1-5.76,1.65-1.78.52-3.56,1.05-5.34,1.58-1.59.48-3.18.96-4.76,1.44-1.34.41-2.67.82-4.01,1.24-1.02.32-2.05.64-3.07.96-.66.21-1.31.42-1.97.63-.23.07-.46.15-.69.22l-10.08,94.15h131.55l-10.08-94.15s-.06-.02-.09-.03c-.39-.13-.77-.25-1.16-.37-.79-.25-1.58-.5-2.37-.75-1.14-.36-2.27-.71-3.41-1.06-1.43-.44-2.86-.88-4.28-1.31-1.66-.5-3.32-1-4.98-1.5-1.83-.55-3.66-1.08-5.5-1.61-1.95-.56-3.9-1.12-5.85-1.66-2.01-.56-4.02-1.11-6.03-1.65-2.01-.54-4.02-1.06-6.04-1.57-1.95-.49-3.91-.97-5.87-1.42-1.84-.43-3.68-.84-5.53-1.21-.86-.18-1.72-.35-2.59-.51-.41-.08-.82-.15-1.24-.23-.21-.04-.43-.05-.65-.05h0ZM542.02,428.5l1.07.2c.84.16,1.67.32,2.5.49,1.81.37,3.61.77,5.41,1.19,1.93.45,3.86.92,5.79,1.4,1.99.5,3.98,1.02,5.97,1.55,2,.53,3.99,1.08,5.98,1.64,1.94.54,3.88,1.09,5.81,1.65,1.83.53,3.65,1.06,5.47,1.6,1.65.49,3.3.99,4.95,1.49,1.42.43,2.84.87,4.26,1.31,1.13.35,2.26.7,3.39,1.06l.64.2,9.18,85.77h-120.92l9.18-85.77c.91-.29,1.83-.57,2.74-.86,1.33-.41,2.65-.82,3.98-1.23,1.58-.48,3.15-.96,4.74-1.43,1.77-.53,3.54-1.05,5.31-1.57,1.9-.56,3.81-1.1,5.72-1.65,1.98-.56,3.96-1.11,5.95-1.65,1.99-.54,4-1.07,6-1.59,1.95-.5,3.91-.99,5.87-1.46,1.85-.44,3.7-.87,5.56-1.27,1.85-.4,3.5-.73,5.06-1.01.2-.04.32-.05.38-.06h0Z"/>
    <path class="cls-2" d="M541.91,443.84l7.85-2.69s4.83-9.2,6.8-14.26c-1.6-.4-3.21-.8-4.83-1.17-1.84-.43-3.68-.84-5.53-1.21-.86-.18-1.72-.35-2.59-.51-.41-.08-.82-.15-1.24-.23-.63-.11-1.31-.03-1.94.08-1.75.31-3.49.67-5.22,1.04-1.9.41-3.79.84-5.67,1.29-.42.1-.84.21-1.26.31l5.05,14.36,8.55,2.99h0Z"/>
    <polygon class="cls-6" points="493.98 452.59 542.02 447.9 592.05 452.59 595.82 524 489.01 524 493.98 452.59"/>
    <polygon class="cls-1" points="542.52 441.06 548.09 439.07 552.86 431.25 542.39 429.12 542.52 441.06"/>
    <polygon class="cls-2" points="489.01 524 543.18 516.75 595.21 523.98 489.01 524"/>
    <polygon class="cls-2" points="495.18 462.67 542.52 452.2 589.99 462.41 543.05 458.96 495.18 462.67"/>
    <polygon class="cls-2" points="495.18 472.62 542.52 462.14 589.99 472.35 543.05 468.91 495.18 472.62"/>
    <polygon class="cls-2" points="495.18 482.56 542.52 472.09 589.99 482.3 543.05 478.85 495.18 482.56"/>
    <polygon class="cls-2" points="495.18 492.51 542.52 482.03 589.99 492.24 543.05 488.8 495.18 492.51"/>
    <polygon class="cls-2" points="495.18 502.45 542.52 491.98 589.99 502.19 543.05 498.74 495.18 502.45"/>
    <polygon class="cls-2" points="495.18 512.4 542.52 501.92 589.99 512.13 543.05 508.69 495.18 512.4"/>
    <polygon class="cls-2" points="590.25 443.46 554.09 431.4 548.63 440.88 541.91 443.84 590.25 443.46"/>
    <polygon class="cls-2" points="494.04 443.46 530.21 431.4 535.67 440.88 542.38 443.84 494.04 443.46"/>
    <polygon class="cls-2" points="607 415.46 476.61 415.46 487.22 432.74 540.07 420.08 592.45 433.09 607 415.46"/>
    <path class="cls-1" d="M542.09,416.15c0,1.07-11.16,1.93-24.93,1.93s-24.93-.86-24.93-1.93,11.16-1.93,24.93-1.93,24.93.86,24.93,1.93Z"/>
    <polygon class="cls-1" points="429.77 413.13 444.33 413.13 444.33 381.85 429.77 381.85 429.77 413.13"/>
    <polygon class="cls-6" points="429.77 413.13 444.33 413.13 444.33 381.85 429.77 381.85 429.77 413.13"/>
    <polygon class="cls-2" points="433.45 384.7 441.14 384.7 441.14 409.1 433.45 384.7"/>
    <polyline class="cls-6" points="626.7 378.73 646.72 383.24 647.91 412.15 628.15 423.69 616.05 412.55 595.29 440.66 626.44 502.48 626.44 527.49 457.54 527.49 457.54 502.48 490.16 512.8 543.05 508.69 594.5 512.53 593.97 502.59 542.29 498.89 491.23 502.74 491.68 493.05 543.05 488.8 593.44 492.64 593.44 482.7 543.05 478.85 492.52 482.7 492.99 472.75 543.05 468.91 592.97 472.75 591.98 462.81 543.05 458.96 493.98 462.81 487.88 440.06 467.92 412.55 456.25 423.69 436.5 412.15 437.69 383.24 457.71 378.73"/>
    <polygon class="cls-1" points="640.08 413.13 654.64 413.13 654.64 381.85 640.08 381.85 640.08 413.13"/>
    <polygon class="cls-6" points="640.08 413.13 654.63 413.13 654.63 381.85 640.08 381.85 640.08 413.13"/>
    <polygon class="cls-2" points="650.96 384.7 643.27 384.7 643.27 409.1 650.96 384.7"/>
    <path class="cls-2" d="M719.76,606.29c0,1.77-80.48,3.2-179.76,3.2s-179.76-1.43-179.76-3.2,80.48-4.24,179.76-4.24,179.76,2.47,179.76,4.24Z"/>
  </g>
</svg>