<?xml version="1.0" encoding="UTF-8"?>
<svg xmlns="http://www.w3.org/2000/svg" xmlns:xodm="http://www.corel.com/coreldraw/odm/2003" version="1.1" viewBox="0 0 2610.4 581">
  <defs>
    <style>
      .cls-1 {
        fill: #002c69;
      }

      .cls-2 {
        stroke-width: 5.7px;
      }

      .cls-2, .cls-3, .cls-4, .cls-5, .cls-6, .cls-7 {
        stroke: #002c69;
      }

      .cls-2, .cls-3, .cls-4, .cls-5, .cls-6, .cls-7, .cls-8, .cls-9, .cls-10, .cls-11 {
        fill: none;
        stroke-linecap: round;
        stroke-linejoin: round;
      }

      .cls-3 {
        stroke-width: 6.4px;
      }

      .cls-4 {
        stroke-width: 4.4px;
      }

      .cls-5 {
        stroke-width: 4.5px;
      }

      .cls-6, .cls-10 {
        stroke-width: 4.5px;
      }

      .cls-7, .cls-8 {
        stroke-width: 4.5px;
      }

      .cls-12 {
        fill: #fff;
      }

      .cls-13 {
        fill: #fefefe;
      }

      .cls-14 {
        fill: #6b6b6b;
      }

      .cls-8, .cls-9, .cls-10, .cls-11 {
        stroke: #262c3a;
      }

      .cls-9 {
        stroke-width: 4.6px;
      }

      .cls-11 {
        stroke-width: 4.6px;
      }
    </style>
  </defs>
  <!-- Generator: Adobe Illustrator 28.6.0, SVG Export Plug-In . SVG Version: 1.2.0 Build 709)  -->
  <g>
    <g id="Camada_1">
      <g id="Layer_x5F_1">
        <g id="_2601807098800">
          <g>
            <path class="cls-12" d="M905.1,369.4l-28.5-57.8h-33.7v57.8h-63.6v-214.5h100.1c28.8,0,51.1,6.7,67,19.9,15.6,13.2,23.6,32.1,23.6,56.3s-3.1,29.4-9.2,40.7c-6.4,11.6-15.3,20.8-26.9,27.5l43.5,70.1h-72.2ZM843,262.6h36.4c9.5,0,17.1-2.4,22.3-7.6,5.2-5.2,7.7-12.5,7.7-22s-2.4-16.5-7.7-21.7c-5.2-4.9-12.9-7.3-22.3-7.3h-36.4v58.8h0Z"/>
            <path class="cls-12" d="M1135.8,298.4c0,23.3-7,41.3-20.8,54.2-14.1,13.2-33,19.6-57.2,19.6s-57.5-11.9-79.3-35.8l29.1-41.9c7.7,8,15.6,14.1,23.9,18.1,8,4,15,6.1,21.1,6.1s10.7-1.8,14.1-5.5c3.4-3.7,4.9-9.2,4.9-16.2v-91.2h-72.8v-50.8h137.1v143.5h0Z"/>
            <path class="cls-12" d="M1319.1,369.4l-12.5-34.3h-86.6l-12.9,34.3h-65.5l91.5-214.5h65.5l88.4,214.5h-67.9ZM1237.7,288.6h52l-25.7-70.1-26.3,70.1Z"/>
            <polygon class="cls-12" points="1467.2 154.9 1633.7 154.9 1633.7 203.8 1530.8 203.8 1530.8 246.7 1626.3 246.7 1626.3 295.6 1530.8 295.6 1530.8 369.4 1467.2 369.4 1467.2 154.9"/>
            <path class="cls-12" d="M1782.4,369.4l-28.5-57.8h-33.7v57.8h-63.6v-214.5h100.1c28.8,0,51.1,6.7,67,19.9,15.6,13.2,23.6,32.1,23.6,56.3s-3.1,29.4-9.2,40.7c-6.4,11.6-15.3,20.8-26.9,27.5l43.5,70.1h-72.2ZM1720.3,262.6h36.4c9.5,0,17.1-2.4,22.3-7.6,5.2-5.2,7.7-12.5,7.7-22s-2.4-16.5-7.7-21.7c-5.2-4.9-12.9-7.3-22.3-7.3h-36.4v58.8h0Z"/>
            <polygon class="cls-12" points="1878.5 154.9 2053.8 154.9 2053.8 203.8 1942.1 203.8 1942.1 237.5 2043.4 237.5 2043.4 286.4 1942.1 286.4 1942.1 320.4 2056.8 320.4 2056.8 369.4 1878.5 369.4 1878.5 154.9"/>
            <polygon class="cls-12" points="2087.4 154.9 2151.1 154.9 2151.1 369.4 2087.4 369.4 2087.4 154.9"/>
            <path class="cls-12" d="M2586.8,224c-11.3-6.7-23.9-12.5-37.6-17.1-13.8-4.6-24.8-7-33.7-7s-9.8.9-12.9,3.1c-3.4,2.1-4.9,5.5-4.9,9.5,0,5.8,3.1,10.1,9.2,13.2,6.1,3.4,15.9,6.7,29.1,10.4,15,4.3,27.5,8.6,37.3,12.9,9.8,4.6,18.4,11.3,25.7,20.2,7,8.9,10.7,20.8,10.7,35.5s-4,27.5-11.6,37.6c-8,10.4-18.7,18.1-31.8,23.3-13.5,5.2-28.5,7.7-45,7.7s-36.7-3.1-55.1-9.5c-18.7-6.1-34.6-14.7-48-25.4l23.9-48.3c10.7,9.5,24.2,17.1,39.8,23.6,15.6,6.4,28.8,9.8,40.1,9.8s12.2-1.2,16.2-4c4-2.8,5.8-6.4,5.8-11.3s-3.1-10.4-9.5-13.8c-6.4-3.1-16.2-6.4-29.4-9.8-15-4-27.2-8-37-12.2-9.8-4-18.4-10.4-25.4-19.3-7-8.9-10.7-20.2-10.7-34.6s3.7-26,11-36.4c7.3-10.1,17.7-18.1,31.2-23.6,13.2-5.5,28.8-8.3,46.5-8.3s32.1,2.1,48,6.7c15.9,4.6,29.7,10.7,41.6,18.4l-23.6,49h0Z"/>
            <path class="cls-12" d="M2399.3,224.1c-2.1-9.7-5.2-19-9.2-27.8l5.2-17.1-19.6-29.2-14.1,5.7c-7.4-7.2-15.8-13.4-25-18.5l-7.6-23.7-38.3-11.9-6.9,22.1c-60.1.6-113.9,53.2-110.1,131,.1,2.3.3,4.5.5,6.8-.4-81.7,65.5-131.7,130-117.4,50.6,11.2,85.7,60.3,88.1,112,2.5,51.6-27.7,104.2-77,120.5-6.1,2-12.3,3.4-18.6,4.2l8.3,19.8,37-14.1,5.3-24.1c8.7-5.6,16.5-12.3,23.2-19.9l14.6,4.8,16.7-30.3-6.8-16.7c3.1-9,5.3-18.4,6.5-28.2l12-7.6-1.6-33.4-12.7-6.9h0Z"/>
            <path class="cls-12" d="M2268.8,222.3c5-3.6,10.9-5.8,17.4-6,19.2-.6,35.5,16.6,36.6,38.3.9,18.8-10,34.8-25.3,39.1,9.9-7.1,16.1-19.9,15.4-34.3-1-21.7-17.4-38.8-36.6-38.3-2.6,0-5.1.5-7.5,1.2h0ZM2331.9,254.5c-1.4-29.2-23.5-52.3-49.3-51.6-25.8.8-45.6,25.1-44.2,54.3,1.4,29.2,23.5,52.3,49.3,51.6s45.6-25.1,44.2-54.3h0Z"/>
            <path class="cls-12" d="M2288.8,332.9c-37.6,1.1-69.7-32.5-71.7-75-2-42.5,26.8-77.9,64.3-79,37.6-1.1,69.7,32.5,71.7,75,2,42.5-26.8,77.9-64.3,79h0ZM2280.4,158.5c-47.5,1.4-83.9,46.1-81.3,99.9,2.6,53.8,43.2,96.2,90.6,94.9,47.5-1.4,83.9-46.1,81.3-99.9-2.6-53.8-43.2-96.2-90.6-94.9h0Z"/>
            <path class="cls-12" d="M937.4,418h-31.5l-2.6,12.8h28.4l-2.2,11h-28.4l-2.6,12.9h32.3l-2.1,11.1h-45.7l11.8-58.8h44.7l-2.2,11h0ZM957.6,466.3c-4.1,0-8.1-.8-12.1-2.4-3.9-1.6-7.2-3.7-9.7-6.3l5.5-8c2.1,2.1,4.6,3.8,7.6,5,2.9,1.3,5.6,2,8.1,2s3.2-.3,4.3-1.1c1.1-.8,1.6-1.7,1.6-2.9s-.6-2-1.8-2.8c-1.2-.8-2.9-1.6-5.4-2.5-2.6-1.1-4.8-2.1-6.5-3-1.8-.9-3.2-2.2-4.5-3.9-1.3-1.6-1.8-3.7-1.8-6.1s.8-5.3,2.2-7.5c1.4-2.2,3.5-3.9,6.1-5.1,2.6-1.2,5.6-1.8,9.1-1.8s7.1.6,10.7,1.8,6.6,3,9.2,5.2l-5.9,8.1c-2.4-1.8-4.8-3.1-7.2-4.1-2.5-1-4.7-1.5-6.6-1.5s-2.7.3-3.7,1.1c-1,.8-1.5,1.6-1.5,2.7s.6,1.9,1.8,2.7c1.2.8,2.9,1.6,5.4,2.5,2.7,1.1,4.9,2.2,6.6,3.1,1.8.9,3.3,2.3,4.5,3.9,1.3,1.8,1.9,3.9,1.9,6.3s-.8,5.3-2.3,7.5c-1.5,2.2-3.6,3.9-6.3,5.1-2.8,1.3-5.9,1.8-9.3,1.8h0ZM1017.4,420.1c3.5,0,6.6.8,9.4,2.5,2.7,1.7,4.8,4,6.3,7.1,1.5,3,2.3,6.5,2.3,10.4s-1.1,9.3-3.2,13.3c-2.1,4-5,7.2-8.6,9.5-3.7,2.3-7.8,3.4-12.3,3.4s-6.6-.8-9.1-2.3c-2.5-1.4-4.4-3.6-5.6-6.4l-5,24.4h-12.8l12.3-61.5h12.8l-1.2,5.8c1.9-2,4.2-3.6,6.7-4.7,2.5-1.1,5.2-1.6,8-1.6h0ZM1012.5,430.3c-2.4,0-4.6.7-6.5,1.9-2,1.3-3.6,3-4.8,5.2-1.2,2.2-1.8,4.6-1.8,7.2s.9,5.7,2.7,7.6c1.8,1.9,4.2,2.9,7.1,2.9s4.5-.7,6.5-1.9c2-1.3,3.6-3,4.8-5.3,1.2-2.2,1.8-4.6,1.8-7.2s-.9-5.7-2.7-7.6c-1.8-1.9-4.2-2.9-7.1-2.9h0ZM1065.7,420.2c4.3,0,8.1.8,11.2,2.4,3.1,1.7,5.5,4,7.3,7,1.7,3,2.5,6.5,2.5,10.5s-.3,4.6-.8,7.1h-33.2c.3,2.9,1.3,5.1,3.3,6.7,1.9,1.6,4.4,2.4,7.7,2.4s3.9-.3,5.9-1,3.6-1.6,5.2-2.9l6.3,7.4c-4.8,4.3-10.7,6.5-17.8,6.5s-8.8-.8-12.3-2.5c-3.5-1.7-6.2-4.1-8.1-7.2s-2.9-6.6-2.9-10.7,1.1-9.2,3.4-13.1c2.2-3.9,5.2-7,9.2-9.2,3.9-2.2,8.2-3.3,13.1-3.3h0ZM1074.8,439.5c.3-2.9-.4-5.3-1.9-7.1s-3.7-2.6-6.6-2.6-5.3.8-7.6,2.6c-2.3,1.8-3.9,4.1-4.9,7.1h21,0ZM1112.3,466.3c-4.2,0-7.9-.8-11-2.6-3.2-1.7-5.6-4.1-7.3-7.2-1.8-3.1-2.6-6.7-2.6-10.8s1.1-9.3,3.3-13.2c2.2-3.9,5.2-6.9,9.2-9.1,3.9-2.1,8.2-3.2,13.2-3.2s8.1.8,11.2,2.4c3.2,1.7,5.6,4,7.4,7.1l-9.3,6.3c-1.1-1.6-2.4-2.8-4.1-3.6-1.7-.8-3.6-1.3-5.7-1.3s-4.4.6-6.1,1.7c-1.8,1.2-3.3,2.8-4.4,4.9s-1.6,4.5-1.6,7.1.8,5.9,2.6,7.8c1.8,2,4,3,7,3,4.7,0,8.4-1.8,11-5.3l8.3,6c-2.2,3.2-5,5.6-8.6,7.4s-7.7,2.6-12.3,2.6h0ZM1161.4,420.6l-9,45.2h-12.8l9-45.2h12.8ZM1158.8,400.5c1.8,0,3.2.5,4.3,1.6,1.1,1.1,1.6,2.5,1.6,4.3s-.8,4.5-2.5,6c-1.7,1.7-3.7,2.5-6,2.5s-3.1-.6-4.2-1.7c-1.1-1.1-1.6-2.5-1.6-4.3s.8-4.5,2.5-6c1.6-1.6,3.6-2.4,6-2.4h0ZM1183.5,466.3c-3.5,0-6.6-.8-9.3-2.5-2.8-1.7-4.9-4-6.4-7.1-1.5-3-2.3-6.5-2.3-10.4s1.1-9.3,3.2-13.3c2.1-3.9,5-7.1,8.6-9.4,3.7-2.3,7.8-3.4,12.3-3.4s6.6.8,9.1,2.2c2.4,1.5,4.4,3.7,5.6,6.5l1.6-8.2h12.8l-9,45.2h-12.8l1.3-5.7c-4.1,4.1-9.1,6.2-14.7,6.2h0ZM1188.4,456.1c2.4,0,4.5-.7,6.5-1.9,2-1.3,3.6-3,4.8-5.3,1.2-2.2,1.8-4.6,1.8-7.2s-.9-5.7-2.7-7.6c-1.8-1.9-4.2-2.9-7.1-2.9s-4.5.7-6.5,1.9c-2,1.3-3.6,3-4.8,5.2-1.2,2.3-1.8,4.6-1.8,7.2s.9,5.8,2.7,7.7c1.8,1.9,4.2,2.9,7.1,2.9h0ZM1248.2,403.5l-12.4,62.3h-12.9l12.4-62.3h12.9ZM1270.5,420.6l-9,45.2h-12.8l9-45.2h12.8ZM1267.9,400.5c1.8,0,3.2.5,4.3,1.6,1.1,1.1,1.6,2.5,1.6,4.3s-.8,4.5-2.5,6c-1.7,1.7-3.7,2.5-6,2.5s-3.1-.6-4.2-1.7c-1.1-1.1-1.6-2.5-1.6-4.3s.8-4.5,2.5-6c1.6-1.6,3.6-2.4,6-2.4h0ZM1319.4,420.7l-1.4,8.1-28.8,26.8h24l-2,10.2h-40.1c0,0,1.4-8.2,1.4-8.2l28.8-26.8h-22.3c0,0,1.8-10.2,1.8-10.2h38.6c0,0,0,0,0,0Z"/>
            <path class="cls-12" d="M1338.3,466.3c-3.5,0-6.6-.8-9.3-2.5-2.8-1.7-4.9-4-6.4-7.1-1.5-3-2.3-6.5-2.3-10.4s1.1-9.3,3.2-13.3c2.1-3.9,5-7.1,8.6-9.4,3.7-2.3,7.8-3.4,12.3-3.4s6.6.8,9.1,2.2c2.4,1.5,4.4,3.7,5.6,6.5l1.6-8.2h12.8l-9,45.2h-12.8l1.3-5.7c-4.1,4.1-9.1,6.2-14.7,6.2h0ZM1343.2,456.1c2.4,0,4.5-.7,6.5-1.9,2-1.3,3.6-3,4.8-5.3,1.2-2.2,1.8-4.6,1.8-7.2s-.9-5.7-2.7-7.6c-1.8-1.9-4.2-2.9-7.1-2.9s-4.5.7-6.5,1.9c-2,1.3-3.6,3-4.8,5.2-1.2,2.3-1.8,4.6-1.8,7.2s.9,5.8,2.7,7.7c1.8,1.9,4.2,2.9,7.1,2.9h0ZM1395.8,466.3c-3.5,0-6.6-.8-9.3-2.5-2.8-1.7-4.9-4-6.4-7.1-1.5-3-2.3-6.5-2.3-10.4s1.1-9.3,3.2-13.3c2.1-3.9,5-7.1,8.6-9.4,3.7-2.3,7.8-3.4,12.3-3.4s6.6.8,9.1,2.2c2.4,1.5,4.4,3.7,5.6,6.5l5-25.4h12.8l-12.4,62.3h-12.8l1.3-5.7c-4.1,4.1-9.1,6.2-14.7,6.2h0ZM1400.6,456.1c2.4,0,4.5-.7,6.5-1.9,2-1.3,3.6-3,4.8-5.3,1.2-2.2,1.8-4.6,1.8-7.2s-.9-5.7-2.7-7.6c-1.8-1.9-4.2-2.9-7.1-2.9s-4.5.7-6.5,1.9c-2,1.3-3.6,3-4.8,5.2-1.2,2.3-1.8,4.6-1.8,7.2s.9,5.8,2.7,7.7c1.8,1.9,4.2,2.9,7.1,2.9h0ZM1462.4,420.2c4.5,0,8.4.8,11.8,2.6,3.3,1.8,5.9,4.1,7.6,7.2,1.8,3.1,2.7,6.8,2.7,10.9s-1.2,9.3-3.4,13.2c-2.3,3.9-5.5,6.9-9.5,9-4,2.1-8.6,3.2-13.8,3.2s-8.3-.8-11.7-2.6-6-4.2-7.7-7.3c-1.8-3.1-2.7-6.8-2.7-10.9s1.2-9.3,3.4-13.2c2.3-3.8,5.5-6.8,9.5-8.9s8.6-3.2,13.8-3.2h0ZM1461.4,430.9c-2.4,0-4.5.6-6.5,1.8s-3.4,2.8-4.5,4.9c-1.1,2.1-1.7,4.5-1.7,7.2s.9,6,2.7,8c1.8,2,4.2,3,7.3,3s4.5-.6,6.5-1.8,3.4-2.9,4.5-5c1.1-2.1,1.6-4.4,1.6-7.1s-.9-6-2.7-8c-1.8-2-4.3-3-7.3-3h0ZM1534.6,420.2c4.3,0,8.1.8,11.2,2.4,3.1,1.7,5.5,4,7.3,7,1.7,3,2.5,6.5,2.5,10.5s-.3,4.6-.8,7.1h-33.2c.3,2.9,1.3,5.1,3.3,6.7,1.9,1.6,4.4,2.4,7.7,2.4s3.9-.3,5.9-1,3.6-1.6,5.2-2.9l6.3,7.4c-4.8,4.3-10.7,6.5-17.8,6.5s-8.8-.8-12.3-2.5c-3.5-1.7-6.2-4.1-8.1-7.2s-2.9-6.6-2.9-10.7,1.1-9.2,3.4-13.1c2.2-3.9,5.2-7,9.2-9.2,3.9-2.2,8.2-3.3,13.1-3.3h0ZM1543.7,439.5c.3-2.9-.4-5.3-1.9-7.1s-3.7-2.6-6.6-2.6-5.3.8-7.6,2.6c-2.3,1.8-3.9,4.1-4.9,7.1h21ZM1626.9,420c5,0,8.8,1.3,11.7,3.9,2.9,2.7,4.3,6.2,4.3,10.7s-.2,2.9-.5,4.5l-5.3,26.6h-12.9l5-24.8c.2-.8.3-1.7.3-2.4,0-2.3-.7-4-2.1-5.4-1.4-1.3-3.3-1.9-5.7-1.9s-5.4,1-7.6,3c-2.3,2.1-3.7,4.8-4.4,8.1l-4.8,23.4h-12.8l4.9-24.8c.2-.8.3-1.7.3-2.4,0-2.3-.7-4-2-5.4-1.4-1.3-3.4-1.9-5.8-1.9s-5.4,1-7.6,3c-2.3,2.1-3.7,4.8-4.4,8.1l-4.7,23.4h-12.9l8.9-45.2h13l-1.3,6.2c3.7-4.5,8.5-6.8,14.4-6.8s7.3.8,10,2.6c2.6,1.8,4.4,4.3,5.3,7.4,4.4-6.6,10-10,16.9-10h0ZM1699.9,413.5c-1.8,0-3.3.5-4.7,1.6-1.4,1.1-2.3,2.4-2.7,4.2l-.7,3.3h10.7l-1.7,9h-10.7l-6.9,34.2h-12.8l6.9-34.2h-6l1.7-9h6.1l.9-4.8c.9-4.9,3.2-8.6,6.7-11.2,3.4-2.5,7.5-3.8,12.1-3.8s6.5.7,9.2,2l-3.4,9.8c-.7-.3-1.4-.6-2.4-.8-.9-.3-1.8-.3-2.4-.3h0ZM1719.4,428.1c2-2.6,4.4-4.6,7.1-6,2.8-1.3,5.7-2,9-2.1l-1.5,12.1c-.4,0-.9,0-1.7,0-3.9,0-7.5,1.1-10.4,3.4-2.9,2.3-4.9,5.2-5.7,8.6l-4.3,21.7h-12.9l9-45.2h12.9l-1.5,7.6h0ZM1760.6,420.2c4.3,0,8.1.8,11.2,2.4,3.1,1.7,5.5,4,7.3,7,1.7,3,2.5,6.5,2.5,10.5s-.3,4.6-.8,7.1h-33.2c.3,2.9,1.3,5.1,3.3,6.7,1.9,1.6,4.4,2.4,7.7,2.4s3.9-.3,5.9-1,3.6-1.6,5.2-2.9l6.3,7.4c-4.8,4.3-10.7,6.5-17.8,6.5s-8.8-.8-12.3-2.5c-3.5-1.7-6.2-4.1-8.1-7.2s-2.9-6.6-2.9-10.7,1.1-9.2,3.4-13.1c2.2-3.9,5.2-7,9.2-9.2,3.9-2.2,8.2-3.3,13.1-3.3h0ZM1769.7,439.5c.3-2.9-.4-5.3-1.9-7.1s-3.7-2.6-6.6-2.6-5.3.8-7.6,2.6c-2.3,1.8-3.9,4.1-4.9,7.1h21ZM1807.5,420.6l-9,45.2h-12.8l9-45.2h12.8ZM1804.9,400.5c1.8,0,3.2.5,4.3,1.6,1.1,1.1,1.6,2.5,1.6,4.3s-.8,4.5-2.5,6c-1.7,1.7-3.7,2.5-6,2.5s-3.1-.6-4.2-1.7c-1.1-1.1-1.6-2.5-1.6-4.3s.8-4.5,2.5-6c1.6-1.6,3.6-2.4,6-2.4h0ZM1838.4,420.2c4.5,0,8.4.8,11.8,2.6,3.3,1.8,5.9,4.1,7.6,7.2s2.7,6.8,2.7,10.9-1.2,9.3-3.4,13.2c-2.3,3.9-5.5,6.9-9.5,9s-8.6,3.2-13.8,3.2-8.3-.8-11.7-2.6-6-4.2-7.7-7.3c-1.8-3.1-2.7-6.8-2.7-10.9s1.2-9.3,3.4-13.2c2.3-3.8,5.5-6.8,9.5-8.9s8.6-3.2,13.8-3.2h0ZM1837.4,430.9c-2.4,0-4.5.6-6.5,1.8-1.9,1.2-3.4,2.8-4.5,4.9-1.1,2.1-1.7,4.5-1.7,7.2s.9,6,2.7,8c1.8,2,4.2,3,7.3,3s4.5-.6,6.5-1.8c1.9-1.2,3.4-2.9,4.5-5,1.1-2.1,1.6-4.4,1.6-7.1s-.9-6-2.7-8c-1.8-2-4.3-3-7.3-3h0ZM1883.2,466.3c-4.1,0-8.1-.8-12.1-2.4-3.9-1.6-7.2-3.7-9.7-6.3l5.5-8c2.1,2.1,4.6,3.8,7.6,5,2.9,1.3,5.6,2,8.1,2s3.2-.3,4.3-1.1c1.1-.8,1.6-1.7,1.6-2.9s-.6-2-1.8-2.8c-1.2-.8-2.9-1.6-5.4-2.5-2.6-1.1-4.8-2.1-6.5-3-1.8-.9-3.2-2.2-4.5-3.9-1.3-1.6-1.8-3.7-1.8-6.1s.8-5.3,2.2-7.5c1.4-2.2,3.5-3.9,6.1-5.1,2.6-1.2,5.6-1.8,9.1-1.8s7.1.6,10.7,1.8c3.6,1.3,6.6,3,9.2,5.2l-5.9,8.1c-2.4-1.8-4.8-3.1-7.2-4.1-2.5-1-4.7-1.5-6.6-1.5s-2.7.3-3.7,1.1c-1,.8-1.5,1.6-1.5,2.7s.6,1.9,1.8,2.7c1.2.8,2.9,1.6,5.4,2.5,2.7,1.1,4.9,2.2,6.6,3.1,1.8.9,3.3,2.3,4.5,3.9,1.3,1.8,1.9,3.9,1.9,6.3s-.8,5.3-2.3,7.5-3.6,3.9-6.3,5.1c-2.8,1.3-5.9,1.8-9.3,1.8h0ZM1945.4,466.3c-3.5,0-6.6-.8-9.3-2.5-2.8-1.7-4.9-4-6.4-7.1s-2.3-6.5-2.3-10.4,1.1-9.3,3.2-13.3c2.1-3.9,5-7.1,8.6-9.4,3.7-2.3,7.8-3.4,12.3-3.4s6.6.8,9.1,2.2c2.4,1.5,4.4,3.7,5.6,6.5l1.6-8.2h12.8l-9,45.2h-12.8l1.3-5.7c-4.1,4.1-9.1,6.2-14.7,6.2h0ZM1950.3,456.1c2.4,0,4.5-.7,6.5-1.9,2-1.3,3.6-3,4.8-5.3,1.2-2.2,1.8-4.6,1.8-7.2s-.9-5.7-2.7-7.6c-1.8-1.9-4.2-2.9-7.1-2.9s-4.5.7-6.5,1.9c-2,1.3-3.6,3-4.8,5.2-1.2,2.3-1.8,4.6-1.8,7.2s.9,5.8,2.7,7.7,4.2,2.9,7.1,2.9h0ZM2047.4,465.7l-2.7-11.4h-27.2l-6.5,11.4h-13.7l35.3-58.8h13.6l15.4,58.8h-14.3ZM2023.7,443.7h18.6l-5.5-23.3-13.2,23.3h0ZM2088.1,428.1c2-2.6,4.4-4.6,7.1-6,2.8-1.3,5.7-2,9-2.1l-1.5,12.1c-.4,0-.9,0-1.7,0-3.9,0-7.5,1.1-10.4,3.4s-4.9,5.2-5.7,8.6l-4.3,21.7h-12.9l9-45.2h12.9l-1.5,7.6h0ZM2148.9,420.2c4.3,0,8.1.8,11.2,2.4,3.1,1.7,5.5,4,7.3,7,1.7,3,2.5,6.5,2.5,10.5s-.3,4.6-.8,7.1h-33.2c.3,2.9,1.3,5.1,3.3,6.7,1.9,1.6,4.4,2.4,7.7,2.4s3.9-.3,5.9-1c1.9-.7,3.6-1.6,5.2-2.9l6.3,7.4c-4.8,4.3-10.7,6.5-17.8,6.5s-8.8-.8-12.3-2.5c-3.5-1.7-6.2-4.1-8.1-7.2-1.9-3.1-2.9-6.6-2.9-10.7s1.1-9.2,3.4-13.1c2.2-3.9,5.2-7,9.2-9.2,3.9-2.2,8.2-3.3,13.1-3.3h0ZM2158,439.5c.3-2.9-.4-5.3-1.9-7.1-1.5-1.8-3.7-2.6-6.6-2.6s-5.3.8-7.6,2.6c-2.3,1.8-3.9,4.1-4.9,7.1h21,0ZM2241.2,420c5,0,8.8,1.3,11.7,3.9,2.9,2.7,4.3,6.2,4.3,10.7s-.2,2.9-.5,4.5l-5.3,26.6h-12.9l5-24.8c.2-.8.3-1.7.3-2.4,0-2.3-.7-4-2.1-5.4-1.4-1.3-3.3-1.9-5.7-1.9s-5.4,1-7.6,3c-2.3,2.1-3.7,4.8-4.4,8.1l-4.8,23.4h-12.8l4.9-24.8c.2-.8.3-1.7.3-2.4,0-2.3-.7-4-2-5.4-1.4-1.3-3.4-1.9-5.8-1.9s-5.4,1-7.6,3c-2.3,2.1-3.7,4.8-4.4,8.1l-4.7,23.4h-12.9l8.9-45.2h13l-1.3,6.2c3.7-4.5,8.5-6.8,14.4-6.8s7.3.8,10,2.6c2.6,1.8,4.4,4.3,5.3,7.4,4.4-6.6,10-10,16.9-10h0ZM2298.7,482.5c-7.1,0-13.6-2.1-19.5-6.2l5.5-8.6c1.8,1.4,3.9,2.4,6.4,3.2,2.4.8,4.8,1.1,7.2,1.1,3.9,0,7-.8,9.4-2.4s3.9-3.9,4.7-7.1l1.1-4.6c-3.9,3.6-8.5,5.5-13.6,5.5s-6.2-.8-8.8-2.4-4.5-3.8-6-6.5c-1.4-2.8-2.1-6-2.1-9.7s1-8.8,3-12.6c1.9-3.8,4.7-6.7,8.1-8.9,3.4-2.2,7.3-3.3,11.5-3.3s6.1.7,8.5,2c2.3,1.3,4,3.3,5.2,5.9l1.5-7.4h12.8l-8.7,43.2c-1.3,6-4.1,10.7-8.7,13.9-4.6,3.3-10.5,4.9-17.6,4.9h0ZM2304.9,453.2c2.1,0,4.1-.6,6-1.7,1.8-1.1,3.2-2.7,4.3-4.6s1.6-4,1.6-6.3-.8-5.1-2.4-6.9c-1.6-1.7-3.8-2.5-6.5-2.5s-4.1.6-5.9,1.7c-1.8,1.2-3.2,2.8-4.3,4.7-1.1,2-1.6,4.2-1.6,6.5s.8,5,2.4,6.6c1.6,1.6,3.7,2.4,6.4,2.4h0ZM2363,420.2c4.3,0,8.1.8,11.3,2.4,3.1,1.7,5.5,4,7.3,7,1.7,3,2.5,6.5,2.5,10.5s-.3,4.6-.8,7.1h-33.2c.3,2.9,1.3,5.1,3.3,6.7s4.4,2.4,7.7,2.4,3.9-.3,5.9-1c1.9-.7,3.6-1.6,5.2-2.9l6.3,7.4c-4.8,4.3-10.7,6.5-17.8,6.5s-8.8-.8-12.3-2.5c-3.5-1.7-6.2-4.1-8.1-7.2-1.9-3.1-2.9-6.6-2.9-10.7s1.1-9.2,3.4-13.1c2.2-3.9,5.2-7,9.2-9.2,3.9-2.2,8.2-3.3,13.1-3.3h0ZM2372.1,439.5c.3-2.9-.4-5.3-1.9-7.1-1.5-1.8-3.7-2.6-6.6-2.6s-5.3.8-7.6,2.6c-2.3,1.8-3.9,4.1-4.9,7.1h21ZM2408.5,428.1c2-2.6,4.4-4.6,7.1-6,2.8-1.3,5.7-2,9-2.1l-1.5,12.1c-.4,0-.9,0-1.7,0-3.9,0-7.5,1.1-10.4,3.4s-4.9,5.2-5.7,8.6l-4.3,21.7h-12.9l9-45.2h12.9l-1.5,7.6h0ZM2442,466.3c-3.5,0-6.6-.8-9.3-2.5-2.8-1.7-4.9-4-6.4-7.1-1.5-3-2.3-6.5-2.3-10.4s1.1-9.3,3.2-13.3c2.1-3.9,5-7.1,8.6-9.4,3.7-2.3,7.8-3.4,12.3-3.4s6.6.8,9.1,2.2c2.4,1.5,4.4,3.7,5.6,6.5l1.6-8.2h12.8l-9,45.2h-12.8l1.3-5.7c-4.1,4.1-9.1,6.2-14.7,6.2h0ZM2446.8,456.1c2.4,0,4.5-.7,6.5-1.9,2-1.3,3.6-3,4.8-5.3,1.2-2.2,1.8-4.6,1.8-7.2s-.9-5.7-2.7-7.6c-1.8-1.9-4.2-2.9-7.1-2.9s-4.5.7-6.5,1.9c-2,1.3-3.6,3-4.8,5.2-1.2,2.3-1.8,4.6-1.8,7.2s.9,5.8,2.7,7.7,4.2,2.9,7.1,2.9h0ZM2506.6,403.5l-12.4,62.3h-12.9l12.4-62.3h12.9Z"/>
          </g>
          <g>
            <polygon class="cls-12" points="695.6 253 469.3 253 469.3 184.8 719.9 184.8 695.6 253"/>
            <polygon class="cls-12" points="658.7 333.1 432.4 333.1 432.4 264.9 683 264.9 658.7 333.1"/>
            <polygon class="cls-12" points="619 416.7 392.7 416.7 392.7 348.4 643.3 348.4 619 416.7"/>
            <polygon class="cls-12" points="24.4 253 250.7 253 250.7 184.8 0 184.8 24.4 253"/>
            <polygon class="cls-12" points="61.3 333.1 287.6 333.1 287.6 264.9 36.9 264.9 61.3 333.1"/>
            <polygon class="cls-12" points="101 416.7 327.2 416.7 327.2 348.4 76.6 348.4 101 416.7"/>
            <path class="cls-13" d="M166,239.6c-2.3,0-4.2-1.9-4.2-4.2v-55c0-2.3,1.9-4.2,4.2-4.2h25.6c2.3,0,4.2,1.9,4.2,4.2v55c0,2.3-1.9,4.2-4.2,4.2h-25.6Z"/>
            <path class="cls-13" d="M191.6,172h-25.6c-4.6,0-8.4,3.8-8.4,8.4v55c0,4.6,3.7,8.4,8.4,8.4h25.6c4.6,0,8.4-3.7,8.4-8.4v-55c0-4.6-3.7-8.4-8.4-8.4h0ZM191.6,180.4v55h-25.6v-55h25.6Z"/>
            <path class="cls-13" d="M536.1,239.6c-2.3,0-4.2-1.9-4.2-4.2v-55c0-2.3,1.9-4.2,4.2-4.2h25.6c2.3,0,4.2,1.9,4.2,4.2v55c0,2.3-1.9,4.2-4.2,4.2h-25.6Z"/>
            <path class="cls-13" d="M561.7,172h-25.6c-4.6,0-8.4,3.8-8.4,8.4v55c0,4.6,3.8,8.4,8.4,8.4h25.6c4.6,0,8.4-3.7,8.4-8.4v-55c0-4.6-3.7-8.4-8.4-8.4h0ZM561.7,180.4v55h-25.6v-55h25.6Z"/>
            <polygon class="cls-13" points="193.9 301.4 239.7 301.4 239.7 3.2 193.9 3.2 193.9 301.4"/>
            <polygon class="cls-3" points="193.9 301.4 239.7 301.4 239.7 3.2 193.9 3.2 193.9 301.4"/>
            <polygon class="cls-1" points="231.7 8.8 199.5 8.8 199.5 322.4 219.1 322.4 220.1 22.3 231.7 8.8"/>
            <polygon class="cls-13" points="180.9 373.7 219.6 373.7 219.6 265.5 180.9 265.5 180.9 373.7"/>
            <polygon class="cls-7" points="180.9 373.7 219.6 373.7 219.6 265.5 180.9 265.5 180.9 373.7"/>
            <polygon class="cls-1" points="216 373.6 216 271.4 186.9 271.4 186.3 373 216 373.6"/>
            <polygon class="cls-13" points="486.1 301.4 531.8 301.4 531.8 3.2 486.1 3.2 486.1 301.4"/>
            <polygon class="cls-3" points="486.1 301.4 531.8 301.4 531.8 3.2 486.1 3.2 486.1 301.4"/>
            <polygon class="cls-1" points="494 8.8 526.2 8.8 526.2 322.4 506.6 322.4 505.7 22.3 494 8.8"/>
            <polygon class="cls-13" points="506.1 373.7 544.9 373.7 544.9 265.5 506.1 265.5 506.1 373.7"/>
            <polygon class="cls-7" points="506.1 373.7 544.9 373.7 544.9 265.5 506.1 265.5 506.1 373.7"/>
            <polygon class="cls-1" points="509.8 373.6 509.8 271.4 538.9 271.4 539.4 373 509.8 373.6"/>
            <polygon class="cls-13" points="425.4 96.7 452.7 96.7 452.7 70.9 425.4 70.9 425.4 96.7"/>
            <polygon class="cls-7" points="425.4 96.7 452.7 96.7 452.7 70.9 425.4 70.9 425.4 96.7"/>
            <polygon class="cls-1" points="431.9 75.8 447.7 75.8 447.7 92 436.4 92 431.9 75.8"/>
            <polygon class="cls-13" points="271.4 96.7 298.7 96.7 298.7 70.9 271.4 70.9 271.4 96.7"/>
            <polygon class="cls-7" points="271.4 96.7 298.7 96.7 298.7 70.9 271.4 70.9 271.4 96.7"/>
            <polygon class="cls-1" points="292.2 75.8 276.4 75.8 276.4 92 287.7 92 292.2 75.8"/>
            <path class="cls-13" d="M470.2,87.9l-107.1-2.4h0s-1.1,0-1.1,0h-1.1s0,0,0,0l-107.1,2.4s-22.7,60.2-21.7,59.9c1-.3,117.5,1.2,129.8.5,12.3.7,128.8-.8,129.8-.5,1.1.4-21.7-59.9-21.7-59.9h0Z"/>
            <path class="cls-3" d="M470.2,87.9l-107.1-2.4h0s-1.1,0-1.1,0h-1.1s0,0,0,0l-107.1,2.4s-22.8,60.2-21.7,59.9c1-.3,117.5,1.2,129.8.5,12.3.7,128.8-.8,129.8-.5,1.1.4-21.7-59.9-21.7-59.9h0Z"/>
            <path class="cls-1" d="M246.9,135.1v-10.5l13.7-30.1s49-6.3,98.7,39.9c0,0-112.9.2-112.4.7h0Z"/>
            <path class="cls-1" d="M476.3,135.1v-10.5l-13.7-30.1s-49-6.3-98.7,39.9c0,0,112.9.2,112.3.7h0Z"/>
            <path class="cls-13" d="M328.1,104.7c0,3.6-9.8,6.6-21.9,6.6s-21.9-2.9-21.9-6.6,9.8-6.6,21.9-6.6,21.9,2.9,21.9,6.6Z"/>
            <path class="cls-1" d="M224.5,575.9h-47.6c-7.5,0-13.5-6.1-13.5-13.5v-49.9h74.6v49.9c0,7.5-6.1,13.5-13.5,13.5h0Z"/>
            <path class="cls-13" d="M170.5,514.2v45s-.2,12.9,10.7,12.9h37.6l-37.5-2.1s-8.9-3-9.1-11.4l-1.8-44.5h0Z"/>
            <path class="cls-1" d="M543,575.9h-47.6c-7.5,0-13.5-6.1-13.5-13.5v-49.9h74.6v49.9c0,7.5-6.1,13.5-13.5,13.5h0Z"/>
            <path class="cls-13" d="M489,514.2v45s-.2,12.9,10.7,12.9h37.6l-37.4-2.1s-8.9-3-9.1-11.4l-1.7-44.5h0Z"/>
            <polygon class="cls-13" points="214 384.5 512.7 384.5 512.7 141.3 214 141.3 214 384.5"/>
            <polygon class="cls-2" points="214 384.5 512.7 384.5 512.7 141.3 214 141.3 214 384.5"/>
            <path class="cls-13" d="M233.1,365.8v-131.4h260.6v130.4l-260.6.9h0Z"/>
            <path class="cls-4" d="M233.1,365.8v-131.4h260.6v130.4l-260.6.9Z"/>
            <polygon class="cls-13" points="257.8 446.1 171.9 446.1 163.9 359.5 257.8 358.8 257.8 446.1"/>
            <polygon class="cls-2" points="257.8 446.1 171.9 446.1 163.9 359.5 257.8 358.8 257.8 446.1"/>
            <polygon class="cls-1" points="249.9 438.6 249.4 391.2 170.5 364.6 258.3 364.6 249.9 438.6"/>
            <polygon class="cls-7" points="180.4 436.5 249.3 436.5 249.3 392.9 180.4 392.9 180.4 436.5"/>
            <line class="cls-7" x1="214.9" y1="392.7" x2="214.9" y2="436.7"/>
            <polygon class="cls-1" points="221.9 397.3 221.4 397.3 239.9 401.4 244.2 430.8 244.2 397.3 221.9 397.3"/>
            <polygon class="cls-1" points="187 397.3 186.5 397.3 205.1 401.4 209.3 430.8 209.3 397.3 187 397.3"/>
            <polygon class="cls-1" points="180.4 392.9 189.9 429.5 213 436.7 180.4 436.7 180.4 392.9"/>
            <polygon class="cls-1" points="215.6 392.9 225.1 429.5 248.2 436.7 215.6 436.7 215.6 392.9"/>
            <polygon class="cls-13" points="469.1 446.1 555 446.1 563 359.5 469.1 358.8 469.1 446.1"/>
            <polygon class="cls-2" points="469.1 446.1 555 446.1 563 359.5 469.1 358.8 469.1 446.1"/>
            <polygon class="cls-1" points="477.1 438.6 477.5 391.2 556.4 364.6 468.7 364.6 477.1 438.6"/>
            <polygon class="cls-7" points="477.6 436.5 546.5 436.5 546.5 392.9 477.6 392.9 477.6 436.5"/>
            <line class="cls-7" x1="512.1" y1="392.7" x2="512.1" y2="436.7"/>
            <polygon class="cls-1" points="505.1 397.3 505.5 397.3 487 401.4 482.8 430.8 482.8 397.3 505.1 397.3"/>
            <polygon class="cls-1" points="539.9 397.3 540.4 397.3 521.9 401.4 517.7 430.8 517.7 397.3 539.9 397.3"/>
            <polygon class="cls-1" points="546.5 392.9 537 429.5 513.9 436.7 546.5 436.7 546.5 392.9"/>
            <polygon class="cls-1" points="511.3 392.9 501.9 429.5 478.7 436.7 511.3 436.7 511.3 392.9"/>
            <polygon class="cls-1" points="358.6 220.5 222.8 220.5 222.8 163.3 358.6 154.9 358.6 220.5"/>
            <polygon class="cls-13" points="316.7 160.3 333.7 159.4 299.2 217.3 276.1 217.3 316.7 160.3"/>
            <polygon class="cls-13" points="285.9 161.8 302.9 160.9 263.8 217.3 240.7 217.3 285.9 161.8"/>
            <polygon class="cls-13" points="227.7 200.1 227.7 168.2 271.5 163.5 233.7 173.4 227.7 200.1"/>
            <polygon class="cls-1" points="368.4 220.5 504.2 220.5 504.2 163.3 368.4 154.9 368.4 220.5"/>
            <polygon class="cls-13" points="467.3 163.6 482.9 164.4 452 217.3 428.9 217.3 467.3 163.6"/>
            <polygon class="cls-13" points="438.5 162.2 454.1 162.9 416.7 217.3 393.6 217.3 438.5 162.2"/>
            <polygon class="cls-13" points="374.5 192.1 374.5 160.1 418.8 163.7 380.6 165.4 374.5 192.1"/>
            <polygon class="cls-1" points="222.8 220.5 504.2 220.5 490.5 233.8 236.4 233.8 222.8 220.5"/>
            <polygon class="cls-13" points="139.8 529.6 580.1 529.6 580.1 438.6 139.8 438.6 139.8 529.6"/>
            <polygon class="cls-3" points="139.8 529.6 580.1 529.6 580.1 438.6 139.8 438.6 139.8 529.6"/>
            <polygon class="cls-1" points="147.9 448.5 147.9 520.3 311.4 520.3 163.4 491 147.9 448.5"/>
            <polygon class="cls-1" points="571.1 448.5 571.1 520.3 407.6 520.3 555.6 491 571.1 448.5"/>
            <polygon class="cls-1" points="147.9 444.4 565.2 444.4 360.6 475.9 147.9 444.4"/>
            <polygon class="cls-1" points="185.7 474.3 233.6 474.3 233.6 449.4 185.7 449.4 185.7 474.3"/>
            <polygon class="cls-1" points="481.4 474.3 529.4 474.3 529.4 449.4 481.4 449.4 481.4 474.3"/>
            <polygon class="cls-1" points="305.7 491.7 414.2 491.7 414.2 463.9 305.7 463.9 305.7 491.7"/>
            <polygon class="cls-13" points="313.5 469.1 408.4 469.1 408.4 487.1 400.9 472.9 313.5 469.1"/>
            <polygon class="cls-13" points="180.5 524 164.6 524 187.5 481.1 203.3 481.1 180.5 524"/>
            <polygon class="cls-13" points="201.6 524 185.7 524 208.6 481.1 224.5 481.1 201.6 524"/>
            <path class="cls-13" d="M485.8,471.3h40.5v-20.8l-9.2,16.8-31.3,4h0Z"/>
            <path class="cls-13" d="M230.8,471.3h-40.5v-20.8l9.2,16.8,31.3,4h0Z"/>
            <polygon class="cls-1" points="221.9 146.5 506.4 146.5 506.3 156.8 361.9 149.9 222.1 155 221.9 146.5"/>
            <line class="cls-6" x1="233.1" y1="234.4" x2="268.3" y2="282.8"/>
            <line class="cls-6" x1="493.8" y1="234.4" x2="457.3" y2="283.9"/>
            <polygon class="cls-1" points="239.4 252.7 259.3 284.1 252 353.7 240.1 353.7 239.4 252.7"/>
            <polygon class="cls-1" points="487.2 252.7 467.2 284.1 474.6 353.7 486.5 353.7 487.2 252.7"/>
            <path class="cls-13" d="M252.4,441.9l17-158.3,7.5-2.4,7-2.2c2.8-.9,5.6-1.7,8.4-2.5,3.1-.9,6.2-1.9,9.4-2.8,3.4-1,6.7-1.9,10.1-2.9,3.5-1,7-2,10.5-2.9,3.5-1,7.1-1.9,10.6-2.8,3.5-.9,6.9-1.8,10.4-2.6,3.3-.8,6.6-1.5,9.9-2.3,3-.6,6-1.3,9-1.8.5,0,1-.2,1.5-.2,0,0,.4,0,.4,0l2.1.4c1.5.3,3,.6,4.5.9,3.2.7,6.4,1.4,9.6,2.1,3.4.8,6.8,1.6,10.3,2.5,3.5.9,7,1.8,10.6,2.7,3.5.9,7.1,1.9,10.6,2.9,3.4,1,6.8,1.9,10.3,2.9,3.2.9,6.4,1.9,9.7,2.8,2.9.9,5.8,1.7,8.7,2.6l7.5,2.3,9.7,3.1,16.9,158.3h-222.1Z"/>
            <path class="cls-1" d="M363.6,254.1c-.8,0-1.5.1-2.2.2-3.1.6-6.1,1.2-9.2,1.8-3.3.7-6.7,1.5-10,2.3-3.5.8-7,1.7-10.5,2.6-3.6.9-7.1,1.9-10.7,2.8-3.5,1-7,1.9-10.5,2.9-3.4,1-6.8,1.9-10.1,2.9-3.1.9-6.3,1.8-9.4,2.8-2.8.8-5.6,1.7-8.4,2.5-2.4.7-4.7,1.4-7,2.2-1.8.6-3.6,1.1-5.4,1.7-1.2.4-2.3.7-3.5,1.1-.4.1-.8.3-1.2.4l-17.7,165.7h231.5l-17.7-165.7s-.1,0-.2,0c-.7-.2-1.4-.4-2-.7-1.4-.4-2.8-.9-4.2-1.3-2-.6-4-1.3-6-1.9-2.5-.8-5-1.5-7.5-2.3-2.9-.9-5.8-1.8-8.8-2.6-3.2-1-6.4-1.9-9.7-2.8-3.4-1-6.9-2-10.3-2.9-3.5-1-7.1-2-10.6-2.9-3.5-.9-7.1-1.9-10.6-2.8-3.4-.9-6.9-1.7-10.3-2.5-3.2-.8-6.5-1.5-9.7-2.1-1.5-.3-3-.6-4.5-.9-.7-.1-1.4-.3-2.2-.4-.4,0-.8,0-1.2,0h0ZM363.5,262.5l1.9.3c1.5.3,2.9.6,4.4.9,3.2.7,6.4,1.4,9.5,2.1,3.4.8,6.8,1.6,10.2,2.5,3.5.9,7,1.8,10.5,2.7,3.5.9,7,1.9,10.5,2.9,3.4,1,6.8,1.9,10.2,2.9,3.2.9,6.4,1.9,9.6,2.8,2.9.9,5.8,1.7,8.7,2.6,2.5.8,5,1.5,7.5,2.3,2,.6,4,1.2,6,1.9l1.1.4,16.2,150.9h-212.8l16.2-150.9c1.6-.5,3.2-1,4.8-1.5,2.3-.7,4.7-1.4,7-2.2,2.8-.8,5.6-1.7,8.3-2.5,3.1-.9,6.2-1.9,9.4-2.8,3.3-1,6.7-1.9,10.1-2.9,3.5-1,7-2,10.5-2.9,3.5-1,7-1.9,10.6-2.8,3.4-.9,6.9-1.7,10.3-2.6,3.3-.8,6.5-1.5,9.8-2.2,3.2-.7,6.2-1.3,8.9-1.8.4,0,.6,0,.7,0h0Z"/>
            <path class="cls-1" d="M363.3,289.5l13.8-4.7s8.5-16.2,12-25.1c-2.8-.7-5.7-1.4-8.5-2.1-3.2-.8-6.5-1.5-9.7-2.1-1.5-.3-3-.6-4.5-.9-.7-.1-1.4-.3-2.2-.4-1.1-.2-2.3,0-3.4.1-3.1.6-6.1,1.2-9.2,1.8-3.3.7-6.7,1.5-10,2.3-.7.2-1.5.4-2.2.6l8.9,25.3,15,5.3h0Z"/>
            <polygon class="cls-7" points="279 304.9 363.5 296.6 451.5 304.9 458.2 430.5 270.2 430.5 279 304.9"/>
            <polyline class="cls-8" points="279 322.9 365.3 316.1 451.4 322.9"/>
            <polyline class="cls-10" points="277.2 340.4 365.3 333.6 453.2 340.4"/>
            <polyline class="cls-5" points="276.4 357.9 365.3 351.1 454 357.9"/>
            <polyline class="cls-5" points="274.9 376.1 365.3 368.6 454 375.4"/>
            <polyline class="cls-11" points="274.2 393.1 364 386.4 454.9 392.9"/>
            <polyline class="cls-9" points="272.3 410.8 365.3 403.6 455.9 410.4"/>
            <polygon class="cls-13" points="364.4 284.6 374.2 281.1 382.6 267.3 364.2 263.6 364.4 284.6"/>
            <polygon class="cls-1" points="270.2 430.5 365.6 417.8 457.1 430.5 270.2 430.5"/>
            <polygon class="cls-1" points="281.1 322.6 364.4 304.2 447.9 322.2 365.3 316.1 281.1 322.6"/>
            <polygon class="cls-1" points="281.1 340.1 364.4 321.7 447.9 339.7 365.3 333.6 281.1 340.1"/>
            <polygon class="cls-1" points="281.1 357.6 364.4 339.2 447.9 357.2 365.3 351.1 281.1 357.6"/>
            <polygon class="cls-1" points="281.1 375.1 364.4 356.7 447.9 374.7 365.3 368.6 281.1 375.1"/>
            <polygon class="cls-1" points="281.1 392.6 364.4 374.2 447.9 392.2 365.3 386.1 281.1 392.6"/>
            <polygon class="cls-1" points="281.1 410.1 364.4 391.7 447.9 409.7 365.3 403.6 281.1 410.1"/>
            <polygon class="cls-1" points="448.4 288.8 384.8 267.6 375.1 284.3 363.3 289.5 448.4 288.8"/>
            <polygon class="cls-1" points="279.1 288.8 342.7 267.6 352.3 284.3 364.2 289.5 279.1 288.8"/>
            <polygon class="cls-1" points="477.9 239.6 248.4 239.6 267.1 270 360.1 247.7 452.3 270.6 477.9 239.6"/>
            <path class="cls-13" d="M363.6,240.8c0,1.9-19.6,3.4-43.9,3.4s-43.9-1.5-43.9-3.4,19.6-3.4,43.9-3.4,43.9,1.5,43.9,3.4Z"/>
            <line class="cls-7" x1="179.9" y1="182.9" x2="215.2" y2="174.9"/>
            <line class="cls-7" x1="177.8" y1="233.7" x2="212.6" y2="254"/>
            <polygon class="cls-13" points="166 235.5 191.6 235.5 191.6 180.4 166 180.4 166 235.5"/>
            <polygon class="cls-7" points="166 235.5 191.6 235.5 191.6 180.4 166 180.4 166 235.5"/>
            <polygon class="cls-1" points="172.5 185.4 186 185.4 186 228.4 172.5 185.4"/>
            <line class="cls-7" x1="547.7" y1="182.9" x2="512.5" y2="174.9"/>
            <line class="cls-7" x1="549.8" y1="233.7" x2="515.1" y2="254"/>
            <polygon class="cls-13" points="536.1 235.5 561.7 235.5 561.7 180.4 536.1 180.4 536.1 235.5"/>
            <polygon class="cls-7" points="536.1 235.5 561.7 235.5 561.7 180.4 536.1 180.4 536.1 235.5"/>
            <polygon class="cls-1" points="555.2 185.4 541.7 185.4 541.7 228.4 555.2 185.4"/>
            <path class="cls-14" d="M676.3,575.3c0,3.1-141.6,5.6-316.3,5.6s-316.3-2.5-316.3-5.6,141.6-7.5,316.3-7.5,316.3,4.3,316.3,7.5Z"/>
          </g>
        </g>
      </g>
    </g>
  </g>
</svg>